<?xml version="1.0" standalone="no"?>
<!DOCTYPE svg PUBLIC "-//W3C//DTD SVG 1.1//EN" "http://www.w3.org/Graphics/SVG/1.1/DTD/svg11.dtd" >
<svg xmlns="http://www.w3.org/2000/svg">
<metadata></metadata>
<defs>
<font id="burnstown_damregular" horiz-adv-x="619" >
<font-face units-per-em="1000" ascent="700" descent="-300" />
<missing-glyph horiz-adv-x="257" />
<glyph horiz-adv-x="257" />
<glyph unicode=" "  horiz-adv-x="257" />
<glyph unicode="&#x09;" horiz-adv-x="257" />
<glyph unicode="&#xa0;" horiz-adv-x="257" />
<glyph unicode="!" horiz-adv-x="272" d="M237 615l4 -409l-169 -8l-39 384zM213 237h8v338l-27 1l-14 -101l-15 94l-18 3l-10 -105l-23 98l-54 -12l36 -325l44 -1l8 101l21 -96l15 3l-5 96zM251 87q0 -45 -25 -74.5t-68 -29.5t-67.5 29t-24.5 75q0 45 24.5 73.5t67.5 28.5t68 -28.5t25 -73.5zM219 93q0 27 -23 45 t-55 18q-27 0 -39 -15t-12 -53q0 -21 16 -40q0 29 15 43q-2 -10 -2 -24q0 -11 3 -32l31 54l-7 -62q11 -11 23 -11q17 0 33.5 26t16.5 51z" />
<glyph unicode="&#x22;" horiz-adv-x="324" d="M154 600l170 -3l-48 -208h-105q-16 52 -18 86l-22 -100h-105l-15 199l145 10zM286 556q0 9 -4 25h-26l1 -17q0 -13 -9 -20q-20 20 -20 38l-19 -62q-15 49 -30 58v-21q0 -92 10 -145q1 2 4 26t8 29q6 -9 14 -58q5 68 19 81q0 -2 5.5 -29.5t10.5 -48.5q6 6 21 66.5t15 77.5 zM141 541q0 16 -5 25h-26q0 -20 -8 -37q-18 17 -19 31q-2 -7 -9 -25t-11 -29q-2 5 -8.5 21.5t-11 24.5t-9.5 12v-22q0 -97 9 -145q1 2 4 26t8 29q6 -6 20 -32q0 20 13 55q6 -34 16 -78q6 6 21.5 66.5t15.5 77.5z" />
<glyph unicode="#" horiz-adv-x="640" d="M483 5l-137 15v109h-63v-112l-148 -22v139h-105l13 144h102v24h-120v156h126l6 143l132 -16v-134h62v136l149 22v-164h103l-13 -143h-102v-22h121v-158h-126v-117zM577 428h-522l4 -35h49l37 -4l8 -4l-8 -5l-28 -3l-56 3l4 -18h24l23 -6l-23 -6h-23l5 -29h505l-4 34 l-48 15l53 13v45zM67 151l520 15l-10 21l-24 8l30 3l-3 19l-35 -1l-26 7l30 8l28 -1l-3 27h-507v-28h48l6 -5l-44 -8h-10v-18l17 1l14 -5l-9 -6l-22 -2v-35zM381 556l-8 -3v-104h96v128l-34 -10l-8 -89l-15 82l-16 -2l-7 -47zM262 453v116l-23 -5l-14 -56l-5 56l-13 2 l-9 -66l-15 67l-5 2v-116h84zM254 50l8 1v79h-97v-103l38 12l5 87l16 -82l15 3l7 46zM373 125l2 -90l21 6l14 57l7 -57l11 -1l11 65l14 -67l5 -3v90h-85zM170 281h92v21h-92v-21zM463 281v21h-90v-21h90zM348 281v21h-62v-21h62z" />
<glyph unicode="$" horiz-adv-x="371" d="M357 517v-1q-39 -55 -69 -118q-21 4 -32 5v-88q75 -23 75 -78q0 -110 -78 -155v-75l-147 -23v77q-54 10 -98 39q5 14 21 44t29.5 55.5t14.5 27.5q10 -2 39 -15v33q-42 31 -56.5 54.5t-14.5 68.5q0 44 22 84.5t59 68.5l4 112l132 -17v-47q64 -1 99 -52zM315 490 q3 4 6.5 13.5t5.5 13.5q-35 28 -81 28q-70 0 -124 -53.5t-54 -123.5q0 -47 30 -86q5 -7 27 -21.5t40.5 -27.5t18.5 -18q0 -12 -16.5 -26.5t-30.5 -14.5q-26 0 -52 20q-4 -5 -5 -12q8 -16 49 -39l-1 -4q-43 0 -62 19q0 -2 -4 -8t-5 -10q17 -19 63 -33l-2 -5q-16 3 -72 22 l-6 -9q99 -26 105 -26q60 0 112 44t52 97q0 10 -2 17.5t-4 13t-8.5 11t-10.5 9t-16 8.5t-17.5 7t-23 8.5t-25.5 9.5q-39 14 -39 51q0 72 72 72q35 0 41 -11l1 2q4 4 4 8q0 13 -35 38q13 0 45 -23l12 18q-3 8 -37 32q5 5 6 5q13 0 43 -16zM231 326v80q-44 0 -44 -33 q0 -27 44 -47zM261 219q0 -36 -36 -60q20 58 20 61q0 22 -24 51l2 3q38 -24 38 -55zM133 17l38 13l2 28q-1 -1 -10 -1h-20q-9 0 -10 1v-41zM224 230q0 -21 -11.5 -40.5t-28.5 -23.5q25 24 25 53q0 22 -19 41h8q26 0 26 -30zM143 436l3 -2q-11 -14 -16 -99q-12 18 -12 42 q0 49 25 59zM115 441l3 -4q-22 -33 -22 -76q0 -9 2 -29l-5 -1q-6 22 -6 41q0 60 28 69zM231 567v32l-23 -6l-6 -31q7 3 29 5zM189 593l-13 1l-6 -44q21 8 22 8zM153 598l-5 1v-62l14 9zM189 60l5 -24l14 3l4 26zM223 41l9 2v29l-13 -6zM137 198h1q6 4 17 13l-18 16v-29z" />
<glyph unicode="%" horiz-adv-x="643" d="M414 641l126 -82l-112 -213q1 1 8 1h10q65 0 116.5 -53t51.5 -123q0 -65 -56 -111.5t-134 -46.5q-46 0 -78 24t-48 61l-50 -96l-148 78l121 217q-16 -2 -17 -2q-78 0 -131.5 49t-53.5 123q0 73 44 118.5t121 45.5q122 0 161 -114zM323 477v7q0 63 -32 96t-94 33 q-70 0 -110 -35t-40 -99q0 -69 47 -119t112 -50q17 0 25 4l15 26q-4 -5 -31 -5h-9v3q29 6 50 19zM416 321l-106 -200q27 -93 100 -93q71 0 130 50.5t59 105.5t-51.5 98.5t-101.5 43.5q-13 0 -30 -5zM241 47l266 513l-27 7l-55 -76l29 84l-20 15l-46 -56l36 63l-10 10 l-281 -513l29 -4l65 90l5 -9l-35 -91l3 -5l62 67l6 -3l-52 -75zM253 458q0 -29 -24 -52t-56 -23q-28 0 -44.5 17.5t-16.5 51.5q0 31 22 51.5t54 20.5q30 0 47.5 -17.5t17.5 -48.5zM490 123q-24 -21 -56 -21q-30 0 -52 20.5t-22 46.5t22 48t52 22q27 0 51 -21t24 -47 q0 -24 -19 -48zM235 453q0 24 -15.5 40.5t-38.5 16.5q-19 0 -34.5 -20t-15.5 -40q0 -15 8 -31t23 -16h9q28 0 46 13.5t18 36.5zM471 133q17 17 17 42q0 19 -11 32.5t-31 13.5q-35 0 -51.5 -18t-16.5 -46q10 -16 27.5 -26.5t31.5 -10.5q18 0 34 13zM357 398q0 1 -17.5 -35.5 t-37 -75t-22.5 -41.5q2 7 32 78.5t32 76.5h7q1 0 2 1q4 0 4 -4zM403 435q0 -8 -17.5 -55.5t-22.5 -47.5q-7 0 -7 6q25 59 47 97zM289 523l-2 -2q-2 5 -3.5 8t-3.5 6l-4 6t-4 5t-6 4.5t-6 4.5t-8.5 6t-10.5 6.5t-13.5 8t-16.5 9.5q29 0 53.5 -18t24.5 -44zM559 143l-2 2 q5 8 5 31q0 15 -13 68q24 -24 24 -64q0 -20 -14 -37zM98 380l-4 -2q-29 23 -29 71v9q0 9 1 10h2q8 -43 30 -88zM435 68v-2q-6 -3 -15 -3q-17 0 -32.5 11t-15.5 19q0 4 4 8l4 -5q22 -20 55 -28zM254 381l2 -1q-3 -13 -18.5 -20.5t-31.5 -7.5q-17 0 -17 11l8 -1q27 0 57 19z M260 513l-3 -1q-22 24 -43 36l7 2q17 0 28 -10.5t11 -26.5zM532 158h-1q0 35 -7 56l1 2l6 -4q11 -11 11 -30q0 -15 -10 -24zM89 475q3 -58 19 -84l-19 25q-8 24 -8 33zM418 49l1 -1q-1 -5 -11 -5q-15 0 -40 28l2 1q15 -11 48 -23z" />
<glyph unicode="&#x26;" horiz-adv-x="575" d="M457 385l118 -86l-107 -141q23 -26 51 -83l-139 -110q-9 19 -28 42q-36 -41 -108 -41q-83 0 -160 53t-77 121q0 90 136 159l-89 104q31 21 44 38q-4 16 -4 30q0 55 47 88.5t120 33.5q86 0 143.5 -46t57.5 -118q0 -12 -5 -44zM457 60l27 29q-195 293 -265 396l-20 3 q-6 -4 -13 -8t-9.5 -5.5t-6 -3.5t-5 -4l-3 -4t-3.5 -5q63 -41 65 -73l-9 -5q-1 0 -29.5 34.5t-42.5 34.5l-14 -12q1 -4 33 -41t32 -43l-10 -6l-70 79q-8 -1 -25 -18q168 -193 311 -391l21 9l-54 68l64 -61l8 10l-23 63q-1 1 -6.5 9.5t-5.5 9.5q0 4 4 4l-2 -1q0 -3 3 -3z M340 30q0 -1 -7 11.5t-15 25.5t-11 13l-29 -32q-14 -15 -41 -15q31 25 49 64l-4 -3q-4 -3 -10.5 -7.5t-14 -8.5t-15 -7t-12.5 -3q-13 0 -19 5q59 24 59 40v1q-27 -5 -54 -5q-58 0 -58 34q0 29 36 81q-2 0 -10 10t-14 10q-7 0 -23 -9t-29 -17l-13 -9l-1 3q0 9 53 59 q-114 -36 -114 -116q0 -64 63.5 -117.5t132.5 -53.5q61 0 101 46zM431 417q0 63 -45.5 111t-109.5 48q-57 0 -100 -25.5t-54 -68.5q67 41 80 41l1 -2l-15 -17q17 3 33 12q29 -45 47 -55l20 1q19 1 29.5 -9.5t10.5 -30.5q0 -13 -7 -35l14 -14q23 12 32 33v-5q0 -14 -7 -30 l-8 -18q0 -2 1 -2q8 0 20.5 9.5t17.5 18.5q0 -6 2 -8q0 -9 -17 -27t-17 -22l16 -13q56 35 56 108zM462 181l86 118q-17 6 -17 13l-54 -41l22 69l-49 -41q21 34 21 52l-18 8q-35 -47 -58 -74zM245 140q-2 2 -17 23.5t-16 24.5q-36 -24 -36 -41q0 -18 31 -18q24 0 38 11z M376 156l7 -8q0 -7 -13 -7l-9 7q0 8 10 8h5zM302 431q-1 2 -7 2h-15l17 -19q0 1 2 7t3 10zM238 343l7 -8q0 -7 -7 -7l-8 7q0 8 8 8z" />
<glyph unicode="'" horiz-adv-x="199" d="M21 590l170 -8l-47 -207h-105zM151 545q0 5 -2 21l-44 4l5 -77q-17 35 -33 72q2 -16 2 -27q0 -18 -3 -32q-2 5 -8.5 21.5t-11 24.5t-9.5 12q0 -119 9 -167q8 16 12 55q14 -35 17 -51q0 37 4 73l28 -77q11 11 22.5 66.5t11.5 81.5z" />
<glyph unicode="(" horiz-adv-x="383" d="M374 487q-56 -18 -91 -87.5t-35 -126.5q0 -60 31 -167t85 -207q-25 -13 -101.5 -38.5t-102.5 -25.5q-39 37 -64 122.5t-32.5 155t-7.5 124.5q0 66 14 133t43.5 134t84 120.5t126.5 79.5q41 -120 50 -217zM339 503q-18 72 -22 84l-33 -34l31 62l-8 29l-103 -151l61 141 q-79 -36 -130.5 -161t-51.5 -238q0 -93 22.5 -204.5t61.5 -168.5l80 28q-55 52 -55 120q39 -85 70 -107l55 20q-45 73 -72 185.5t-27 184.5q0 19 8 50t37.5 79.5t75.5 80.5z" />
<glyph unicode=")" horiz-adv-x="403" d="M23 17q56 18 91 87.5t35 126.5q0 61 -30.5 168t-85.5 207q28 14 103.5 38.5t100.5 24.5q39 -37 64.5 -122.5t33 -155t7.5 -123.5q0 -67 -14 -134t-43.5 -133.5t-84 -120t-127.5 -79.5q-37 109 -50 216zM58 1q1 -6 5 -21t8 -31t9 -32l33 34l-31 -61l8 -30l104 151 l-62 -141q79 37 130.5 162t51.5 238q0 92 -22.5 203.5t-61.5 168.5l-79 -27q54 -53 54 -121q-38 84 -69 107l-56 -19q45 -73 72 -185.5t27 -184.5q0 -19 -8 -50t-37.5 -80t-75.5 -81z" />
<glyph unicode="*" horiz-adv-x="685" d="M674 446q0 -30 -21 -49t-52 -19q-27 0 -47 18l-110 -93q2 -12 7 -28t19.5 -35t33.5 -20q71 -12 71 -77q0 -31 -21 -54t-51 -23t-48 27t-18 72q-40 17 -87 41l-98 -117q4 -13 4 -30q0 -25 -14.5 -42t-37.5 -17q-24 0 -39.5 17.5t-15.5 42.5q0 21 11.5 38.5t30.5 21.5 l34 146l-75 33q-27 -31 -56 -31t-52 29.5t-23 63.5q0 65 74 65q20 0 45.5 -16t43.5 -16q29 0 63 7l10 93q-31 26 -31 55q0 31 27 52t59 21q57 0 57 -72q0 -31 -23 -54l34 -70l157 42q15 45 66 45q31 0 52 -18.5t21 -48.5zM651 446q0 21 -14 33.5t-35 12.5q-44 0 -49 -42 l-186 -52l-52 106q30 12 30 46q0 21 -13 36t-34 15q-20 0 -34 -15t-14 -36q0 -33 28 -44l-14 -126l-121 -16q-7 39 -49 39q-23 0 -38 -15.5t-15 -39.5q0 -22 15.5 -37.5t37.5 -15.5q34 0 47 32l109 -48l-42 -180h-5q-32 0 -32 -39q0 -38 33 -38q11 0 22 11t11 24l-1 3 q-2 4 -5.5 12t-6.5 17l120 144l121 -63q-7 -24 -7 -35q0 -17 15.5 -31.5t32.5 -14.5q20 0 33.5 16.5t13.5 39.5q0 21 -12.5 36t-32.5 15q-15 0 -25 -5l-67 116l141 120q12 -27 45 -27q22 0 35.5 13t13.5 33z" />
<glyph unicode="+" horiz-adv-x="627" d="M409 391l194 5l-16 -175l-125 -17l37 -115l-209 -74l-34 185h-234l5 201l152 -9l-45 150l196 39zM562 239l-123 22h122v92l-506 14l-3 -89l78 -15l-84 -10l72 -8l-71 -21h18q23 0 76 -1.5t57 -1.5q124 0 364 18zM206 394l167 -8l-69 173l-47 -7l33 -117l-55 110l-29 -6 l23 -104l-58 97zM417 80l46 20l-43 104l-132 -7l24 -145l26 73l33 -45l2 62zM309 318l10 -13l-10 -11l-11 11z" />
<glyph unicode="," horiz-adv-x="216" d="M249 125l-41 -69q-10 0 -58 13l-70 -134l-65 -35v84l56 132q-20 15 -36 39l34 70h22q56 0 102 -25.5t56 -74.5zM203 162l-11 9q-41 32 -99 32q-3 0 -4.5 -0.5t-2.5 -2.5t-1 -6q0 -22 37.5 -45t82.5 -33q1 0 6.5 4t7.5 5v3q0 16 -16 34zM34 -65l34 22l41 83 q-1 3 -5.5 13.5t-5.5 15.5l20 -9q10 15 12 17q-24 11 -38 25l-58 -120v-47zM73 171l-7 -14q19 -30 55 -49.5t73 -24.5q1 6 12 19q-102 26 -133 69z" />
<glyph unicode="-" horiz-adv-x="336" d="M16 403l320 -2l-18 -162h-272zM307 353l3 31h-206l-65 -4l5 -29h111l-79 -15h-28l3 -21l61 -8l-58 -6l3 -33h245l1 28l-68 19l69 3l-1 17l-89 12z" />
<glyph unicode="." horiz-adv-x="212" d="M212 87q0 -42 -23 -68t-64 -26q-47 0 -77 32.5t-30 81.5q0 42 23 68.5t63 26.5q46 0 77 -34t31 -81zM192 93q0 33 -25 53t-60 20q-28 0 -46 -13t-18 -37q0 -41 24 -68v4q0 15 7 23l15 -50q14 -14 31 -14q28 0 50 26.5t22 55.5z" />
<glyph unicode="/" horiz-adv-x="510" d="M370 676l140 -91l-326 -618l-164 85zM178 16l293 570l-27 8l-64 -84l34 93l-23 16l-51 -61l40 68l-10 13l-313 -570l32 -4l73 99l5 -11l-38 -101l3 -4l68 74l7 -4l-58 -84zM306 408q0 -2 -41 -84t-44 -86q2 11 33.5 85t38.5 86l10 2q3 0 3 -3zM357 449q0 -10 -19 -62.5 t-25 -52.5q-8 0 -8 5q8 21 52 110z" />
<glyph unicode="0" horiz-adv-x="427" d="M427 253q0 -128 -50.5 -208t-133.5 -80q-100 0 -165 107.5t-65 257.5q0 104 54.5 174t140.5 70q98 0 158.5 -92.5t60.5 -228.5zM370 417l5 -24q-17 35 -36.5 51.5t-95.5 61.5q29 0 63 -18.5t54 -50.5v1q0 1 -1 3q-53 95 -138 95q-78 0 -123.5 -73.5t-45.5 -185.5 q0 -102 51.5 -192t112.5 -90q78 0 130 79t52 192q0 91 -28 151zM311 266q0 -125 -82 -168q-83 40 -83 165q0 67 25 114.5t65 47.5q33 0 54 -46t21 -113zM293 266q0 41 -15.5 84t-32.5 43q-42 0 -63 -38.5t-21 -83.5q0 -85 59 -157q73 42 73 152zM212 63q-1 -2 -5 -2 q-25 0 -55.5 39t-30.5 66v12q49 -91 91 -115zM200 34q-86 26 -111 123q54 -82 111 -123zM320 378q-12 10 -24 21t-17 16t-10.5 10t-9 7l-7 4t-9.5 5l9 1q27 0 47.5 -19t20.5 -45z" />
<glyph unicode="1" horiz-adv-x="262" d="M60 611l166 -17v-610l-193 -23zM182 19l11 1v557l-31 -5l-17 -62l-8 62l-15 1l-11 -70l-18 73l-7 1l-21 -582l50 13l10 94l19 -87l19 1l8 51z" />
<glyph unicode="2" horiz-adv-x="517" d="M517 412q0 -75 -22 -119t-81 -82q-87 -64 -102 -79q7 0 21.5 -0.5t23.5 -0.5q35 0 105 2l10 -165l-442 -9l-25 171q16 -2 41 -2h13q11 19 61 63t99.5 83t50.5 40q53 55 53 98v12q-26 23 -50 23q-46 0 -102 -90l-119 98q23 69 91.5 114.5t155.5 45.5q97 0 157.5 -55.5 t60.5 -147.5zM490 398q0 86 -55 141t-142 55q-69 0 -123.5 -33.5t-81.5 -94.5q19 23 74 53l-62 -67l9 -13l62 43q-27 -30 -41 -64l35 -35q18 41 51.5 67t71.5 26q31 0 50 -18t19 -49q0 -19 -2.5 -33.5t-13 -30t-17.5 -24.5t-30.5 -26.5t-37 -26t-51 -33.5t-59.5 -39 q-73 -69 -70 -157l1 -36l22 2q2 14 31 95q-5 -18 -16 -94l32 -4q9 39 28 96q-1 -9 -6.5 -42t-8.5 -58l62 -5q-5 12 -5 35q0 20 2.5 35t13 31t17.5 25.5t29.5 26.5t35.5 26.5t48.5 33t56.5 38.5q71 62 71 154zM444 1l-3 33h-127l124 31l-102 15l103 24q-80 4 -170 4 q-25 -52 -24 -82l1 -27q60 0 198 2zM436 449q-5 11 -9.5 19t-12.5 16l-12.5 12.5t-18 13t-20.5 12t-28 14.5t-32 17q47 0 89 -31.5t44 -72.5zM55 99l-25 3l9 -99q9 24 16 96zM387 434q-11 10 -23 21.5t-17 16t-11.5 10t-9.5 7.5t-7.5 4t-9.5 3l10 2q27 0 47.5 -19t20.5 -45z M145 81l8 -8l-8 -8l-8 8z" />
<glyph unicode="3" horiz-adv-x="477" d="M477 215q0 -94 -73.5 -175t-164.5 -81q-56 0 -116 33q-4 1 -105 63q2 4 14.5 19t39.5 47.5t54 67.5q66 -40 91 -40q35 0 47 46q-58 17 -184 60l93 145l-163 6l29 213l385 -25l-6 -185l-32 -6l-18 -33q109 -46 109 -155zM453 213q0 103 -96 134q-2 -5 -11 -18.5t-14 -22.5 q45 -24 56.5 -37t11.5 -34l-2 -11q-42 61 -78 65q-1 -11 -19 -25l27 -32q15 -19 15 -35q0 -14 -8 -32q-1 28 -14 48l-33 35l-17 -23q20 -7 20 -20q0 -76 -74 -76q-48 0 -87 33q-6 -19 -15 -19q3 -5 11 -12.5t18.5 -15t20.5 -13.5t17 -10l7 -5q-45 9 -61 16t-27 22l-11 -13 q9 -10 76 -70q-21 3 -49.5 20t-35.5 31q-2 0 -13.5 -12.5t-12.5 -12.5q23 -28 85 -57t103 -29q81 0 145.5 71t64.5 160zM398 525l7 52l-353 9l-10 -51l95 -15l-97 -18l80 -24l-86 -20l8 -33h346l-4 33l-87 13l96 16l3 23l-70 10zM244 232l116 170h-157l-82 -122l18 -4l74 68 l-37 -83l13 -8l61 59l-46 -66zM273 504l10 -9l-10 -9l-10 9zM245 345l9 -10l-9 -9l-8 9zM169 42v-1h-2q-1 0 -1 1h3z" />
<glyph unicode="4" horiz-adv-x="594" d="M562 355l32 -165l-106 -7v-231l-179 -9l-8 199l-230 -40l-8 138l-41 46l288 317l66 -54l128 27l-8 -223zM154 197l270 279l-27 19l-62 -37l41 54l-20 14l-80 -55l71 71l-35 31l-255 -287l27 -36l46 33l-17 -48l86 50l-69 -64zM94 133l482 90l-91 7l87 15l-7 25h-77l68 34 l-6 22l-252 -21l-143 -139l-68 57zM465 -16l1 195l-149 -32l10 -163l20 -4l14 70l10 -70l17 4l12 96l8 -96h57zM471 348l9 197l-86 -12l63 -57l-134 -142zM419 278l14 -24l-8 -7l-6 3l-14 24l7 7zM309 439l6 -6q0 -8 -8 -8l-13 2l-6 8q0 7 8 7z" />
<glyph unicode="5" horiz-adv-x="508" d="M508 220q0 -89 -85 -144.5t-211 -55.5q-75 0 -130 23q2 15 21.5 92t21.5 96q6 0 48 -8.5t55 -8.5q37 0 37 21q0 17 -29 54q-70 -13 -204 -28l7 149l-28 6q1 24 2 57.5t2 56.5t1 40v39q0 10 -1 11q113 9 434 40l18 -207l-168 -18q129 -73 169 -115t40 -100zM490 221 q0 58 -79.5 123.5t-144.5 65.5q-19 0 -34 -8q1 -1 1 -6v-17q0 -3 4 -6t12.5 -8t13.5 -9l-23 -9l4 -19q46 -54 46 -96q0 -52 -73 -52q-9 0 -32 4t-30 4q-2 0 -2 -21l-2 -10q27 -6 77 -24l-89 -17l82 -33l-96 -11q83 -29 122 -29q79 0 161 57.5t82 120.5zM443 574l2 53 l-406 -29l-7 -53l96 -5l-95 -28l81 -17l-82 -27l9 -25l400 31l-7 33l-88 4l93 25l3 23l-71 3zM125 304l75 8v104l-134 -18l-6 -94l24 47l9 -57l36 70zM417 197q0 -33 -14 -35l-8 9q0 2 3 12.5t3 13.5q0 27 -23 53l8 7q10 0 20.5 -21.5t10.5 -38.5zM454 204q0 -41 -15 -42 l-9 9q0 2 4.5 15.5t4.5 17.5q0 27 -18 46l8 7q9 0 17 -20t8 -33zM175 377l8 -20l-8 -6l-5 4l-9 20l8 6zM142 520l7 -8l-7 -9l-8 9z" />
<glyph unicode="6" horiz-adv-x="496" d="M496 182q0 -90 -78.5 -149t-189.5 -59q-226 0 -226 166q0 87 75.5 232t180.5 267l160 -97q-96 -149 -105 -162q67 -9 125 -72t58 -126zM461 199q0 41 -60.5 99.5t-103.5 58.5q-1 -15 -16 -22q44 -9 62 -53q-39 36 -57 36l-13 -4l-15 -20q36 -23 47 -46l-55 33l-7 -36 l9 -10q10 -10 20 -21t10 -15q0 -25 -15 -42.5t-38 -17.5q-45 0 -45 55q0 39 82 168q5 6 19.5 27.5t41 60t56.5 79.5l-36 17l-98 -91l74 110l-16 4l-84 -79l63 94l-15 10q-89 -78 -160.5 -212.5t-71.5 -216.5q0 -149 197 -149q107 0 166 47.5t59 135.5zM386 179 q0 -36 -18.5 -71t-48.5 -45q33 27 44 72q3 9 17 86q6 -22 6 -42zM256 184q0 9 -8.5 18.5t-18.5 12.5l-18 -31q2 -20 14 -20q10 0 20.5 6.5t10.5 13.5zM334 170q0 -54 -45 -64q24 46 29.5 59t8.5 33q7 -14 7 -28zM167 364q0 8 10 8q11 0 11 -8t-11 -8q-10 0 -10 8z" />
<glyph unicode="7" horiz-adv-x="622" d="M511 641l111 3q0 -31 -20 -190l-37 -3l-390 -429l-177 142l289 286l-278 8l18 196l391 -14l53 50zM581 582l4 37h-520l-21 -57h106l-102 -21l87 -18l-87 -13l-7 -34h528l3 24l-65 8l69 18l5 26l-87 6zM179 66l358 389h-211l-280 -283l25 -22l230 182l-205 -206l25 -24 l217 228l-198 -239zM446 639l39 5l-14 21zM462 553l9 -9l-9 -9l-8 9z" />
<glyph unicode="8" horiz-adv-x="510" d="M510 165q0 -102 -85.5 -173t-201.5 -71q-96 0 -155 52t-59 140q0 33 15 58t65 85q12 14 18 22q-46 73 -46 146q0 90 73 156t170 66q85 0 133 -53.5t48 -143.5q0 -79 -68 -139q41 -16 67 -57t26 -88zM475 166q0 67 -62 123q-2 0 -14.5 -4t-12.5 -5l11 -16q12 -18 12 -23 v-2q-31 17 -58 17q-24 0 -45 -10q74 -10 77 -48q-76 38 -95 42q-6 1 -85 7q-37 3 -65 17q-42 -25 -68 -66t-26 -88q0 -35 19 -63q52 -16 117 -31q-15 -9 -46 -9q-9 0 -31 2t-28 2q50 -59 134 -59q95 0 180.5 67t85.5 147zM457 438q0 85 -40.5 134.5t-109.5 49.5 q-82 0 -149.5 -57t-67.5 -132q0 -63 47.5 -117t107.5 -54q72 0 142 56.5t70 119.5zM329 153q0 -31 -36.5 -59t-68.5 -28q-44 0 -44 50q0 35 24 55.5t61 20.5q27 0 45 -11t19 -28zM320 459q0 -87 -104 -87q-9 0 -18.5 15.5t-9.5 26.5q0 27 28.5 50t59.5 23q12 0 28 -9t16 -19 zM294 150l-1 13q-22 6 -27 6q-24 0 -42 -16t-19 -39q16 -16 36 -16t37 16t16 36zM285 449l-17 9q-19 -3 -55 -37q21 -21 49 -21h3q8 13 20 49zM408 480q-13 34 -34 49.5t-98 55.5q47 0 89.5 -32t42.5 -73zM362 55l41 76q0 -46 -32.5 -88.5t-72.5 -44.5q39 17 64 57zM360 467 q-62 57 -79 61l10 1q28 0 48.5 -18.5t20.5 -43.5zM346 125l1 -9q0 -27 -18.5 -47.5t-45.5 -20.5q38 38 47 48.5t16 28.5z" />
<glyph unicode="9" horiz-adv-x="496" d="M2 364q0 91 78.5 150.5t190.5 59.5q225 0 225 -166q0 -89 -73.5 -232t-182.5 -268l-160 97q70 108 104 162q-65 10 -123.5 72t-58.5 125zM38 348q0 -42 60 -100.5t100 -58.5l3 5l7.5 10t8.5 8q-44 8 -60 53l25 -21q16 -14 31 -14l12 2l14 21q-39 24 -45 46l54 -34l9 38 q-4 2 -22.5 21.5t-18.5 23.5q0 25 15.5 42.5t39.5 17.5q43 0 43 -54q0 -42 -82 -170q-5 -6 -18.5 -26t-41.5 -60.5t-56 -80.5l37 -16l96 91l-74 -109l17 -5l84 79l-63 -93l16 -12q86 81 158.5 215t72.5 216q0 148 -197 148q-106 0 -165.5 -48.5t-59.5 -134.5zM112 368 q0 35 20.5 70.5t47.5 45.5q-28 -24 -38.5 -53t-21.5 -104q-8 17 -8 41zM244 362q0 -7 9.5 -17t17.5 -13l18 30q-1 22 -17 22q-7 0 -17.5 -8t-10.5 -14zM165 378q0 52 43 64l-21 -46q-8 -16 -15 -48q-7 13 -7 30zM347 205l-8 7l11 13l7 -8z" />
<glyph unicode=":" horiz-adv-x="203" d="M203 378q0 -45 -25 -74.5t-68 -29.5q-41 0 -66.5 30t-25.5 74t25.5 73t66.5 29q43 0 68 -28.5t25 -73.5zM203 87q0 -46 -25 -75t-68 -29q-41 0 -66.5 29.5t-25.5 74.5q0 44 25.5 73t66.5 29q43 0 68 -28.5t25 -73.5zM171 93q0 27 -26 46.5t-61 19.5q-50 0 -50 -43 q0 -6 11 -31.5t12 -32.5q0 18 8 23q3 -6 19 -21.5t18 -19.5l-4 -7q10 -11 23 -11q18 0 34 26t16 51zM171 385q0 27 -26 46.5t-61 19.5q-50 0 -50 -43q0 -7 11 -32t12 -32q0 16 8 23q3 -7 19 -22t18 -19l-4 -7q10 -12 23 -12q18 0 34 26.5t16 51.5z" />
<glyph unicode=";" horiz-adv-x="224" d="M249 89l-41 -70q-12 0 -20.5 2t-22 6.5t-15.5 5.5l-70 -134l-65 -36v85l56 132q-22 16 -36 38l34 71h22q56 0 102 -26t56 -74zM224 421q0 -45 -25 -74t-67 -29t-67 29t-25 74t25 74.5t67 29.5t67 -29.5t25 -74.5zM194 428q0 29 -26.5 47.5t-60.5 18.5q-51 0 -51 -42 q0 -8 9 -32.5t15 -34.5v2q0 16 7 24q5 -11 18 -22l20 -20l-5 -7q8 -11 23 -11q17 0 34 26.5t17 50.5zM203 125l-11 9q-39 32 -99 32q-3 0 -4.5 -0.5t-2.5 -2.5t-1 -6q0 -22 37.5 -45t82.5 -32q1 0 6.5 4t7.5 5v2q0 16 -16 34zM34 -101l34 21l41 83q-1 4 -5.5 15t-5.5 15 l20 -9q9 13 12 17q-24 11 -38 25l-58 -121v-46zM73 134l-7 -13q19 -30 55.5 -50t72.5 -24q1 2 12 19q-34 9 -51.5 14.5t-42.5 19.5t-39 34z" />
<glyph unicode="&#x3c;" horiz-adv-x="474" d="M410 198l-40 -100q-87 37 -239 116l-72 -23l-46 105l33 8l13 49l50 -15l267 90l49 -94q-85 -36 -172 -69zM74 217l319 129l-5 9l-53 -10l27 19l-41 5l54 26l-3 6q-221 -80 -324 -125v-2l41 11l-34 -24l5 -9q1 1 42 12q-24 -19 -31 -37zM162 222l189 -88l1 4l-26 26l34 -7 l1 5l-30 33l44 -16l5 7l-159 63zM76 323l-3 -12l16 8zM302 176q-12 0 -12 13q6 10 12 10q13 0 13 -12q-5 -11 -13 -11zM309 337q-12 0 -12 11q1 8 12 8q10 0 10 -11q-3 -8 -10 -8zM116 266q-9 0 -9 8q0 9 9 9q12 0 12 -9q-5 -8 -12 -8z" />
<glyph unicode="=" horiz-adv-x="634" d="M603 507l-16 -176q-177 -22 -420 -22q-47 0 -145 2l5 200q164 -11 341 -11q127 0 235 7zM562 350l-123 23h122v90q-212 0 -506 14l-3 -89l78 -15l-84 -10l72 -8l-71 -20h18q23 0 76 -2t57 -2q130 0 364 19zM302 411q0 11 11 11t11 -11t-11 -11t-11 11zM28 57l5 175 q235 46 564 55l6 -200q-325 0 -575 -30zM59 216l4 -50l115 -8l-113 -19l2 -37l507 18l-4 88l-77 11l83 14l-2 29l-18 -1q-234 -12 -375 -29q-54 -7 -122 -16zM529 162q0 -13 -10 -13q-12 0 -12 10q0 13 10 13q12 0 12 -10z" />
<glyph unicode="&#x3e;" horiz-adv-x="468" d="M27 328l40 100q87 -37 239 -116l72 23l47 -105l-33 -8l-14 -49l-50 15l-267 -90l-48 94q75 33 171 69zM363 309l-319 -129l5 -9l53 10l-27 -19l41 -5l-53 -26l2 -6q221 80 324 125v2l-41 -11l35 24l-6 9q-1 -1 -42 -12q22 18 32 37zM276 304l-189 88l-2 -4l27 -26l-35 7 l-1 -5l30 -33l-43 16l-6 -7l159 -63zM361 203l3 12l-16 -8zM135 350q12 0 12 -13q-6 -10 -12 -10q-13 0 -13 12q5 11 13 11zM129 189q11 0 11 -11q-1 -8 -11 -8q-11 0 -11 11q5 8 11 8zM321 260q9 0 9 -8q0 -9 -9 -9q-11 0 -11 9q3 8 11 8z" />
<glyph unicode="?" horiz-adv-x="451" d="M289 55q0 -40 -21.5 -64.5t-60.5 -24.5q-44 0 -72 31.5t-28 77.5q0 33 18 59q-3 0 -8.5 0.5t-7.5 0.5q0 142 60 184q23 16 52 54.5t32 75.5q-20 18 -41 18q-38 0 -88 -78l-106 87q18 59 79.5 99.5t137.5 40.5q82 0 134.5 -49t52.5 -129q0 -67 -20 -110t-73 -68 q-17 -12 -24 -19t-13.5 -26t-6.5 -49v-38l-24 1q28 -32 28 -74zM395 426q0 75 -46 121.5t-121 46.5q-55 0 -100 -26t-71 -74q13 14 59 40v-3l-52 -57l7 -8q8 5 24.5 17.5t25.5 17.5l3 -2q-24 -31 -35 -55l8.5 -8.5l10 -10l8.5 -8.5q19 36 47 57.5t60 21.5q28 0 45.5 -16.5 t17.5 -43.5q0 -63 -78 -118q-69 -49 -69 -142v-19h15q16 54 26 82h3q-4 -19 -12 -81q3 -1 12.5 -1.5t11.5 -0.5v1q8 36 24 81l3 -1q-3 -12 -7 -41.5t-6 -42.5q45 -5 49 -5q0 1 -0.5 7.5t-0.5 9.5q0 37 9 59.5t21.5 34t47.5 36.5q60 42 60 131zM268 61q0 29 -23 47t-55 18 q-25 0 -41 -12t-16 -32q0 -39 18 -60q0 16 10 26l14 -50h-1q12 -12 28 -12q26 0 46 25.5t20 49.5zM353 471l-3 -1q-28 64 -115 89l1 3q41 0 79 -28t38 -63zM311 458l-4 -3q-10 20 -22.5 32t-20.5 15.5t-23 7.5v3l9 2q25 0 43 -16.5t18 -40.5zM196 225l7 -10l-8 -9l-9 9z" />
<glyph unicode="@" horiz-adv-x="796" d="M707 189q-91 -32 -230 -32q-171 0 -315 82q-51 30 -95.5 73t-44.5 85q0 32 16.5 48.5t33.5 16.5q22 0 72.5 -28.5t74.5 -28.5q14 21 30 68.5t35.5 77t51.5 32.5l52 -3q22 19 51 19q10 0 22 -2.5t21 -5t22.5 -8.5t20 -9t21 -10.5t18.5 -9.5q20 -13 28.5 -36t12 -58 t6.5 -48q64 -18 112 -57t48 -93q0 -51 -64 -73zM704 222q35 18 35 52q0 19 -10.5 36.5t-21 27.5t-34.5 22.5t-32 16t-33 12.5q-102 41 -170 41q-39 0 -102 -23.5t-95 -23.5q-64 0 -132 37q-2 1 -9.5 6t-14 8t-12.5 3q-21 0 -21 -31q0 -28 39 -76q151 -151 405 -151 q122 0 208 43zM303 541l-62 -135h21q16 0 74 22.5t100 22.5q56 0 149 -33q-2 66 -23 114q-42 33 -143 51q-24 -11 -52 -33t-31 -24l-5 5l31 26q-16 2 -23 2q-29 0 -36 -18zM230 327q0 33 74 33q37 0 75 -5t79.5 -16.5t72 -35t39.5 -56.5q-36 -28 -95 -28q-30 0 -67 4.5 t-79.5 15.5t-70.5 34t-28 54z" />
<glyph unicode="A" d="M594 220l-5 -138l14 -52l-137 -57l-49 84q-104 -17 -161 -17q-40 -97 -44 -105l-151 55l-28 204l91 13l100 268l-30 83l85 33l22 49l148 -87l-37 -107l116 -226h66zM412 527q0 21 -10 32q-28 -12 -59 -43q5 26 28 58l-31 15l-44 -64q5 12 31 70l-15 8q-74 -160 -118 -292 l-109 -297l25 -6l44 85v-30q0 -33 -9 -64l45 72l-10 -91l16 -10q9 26 216 557zM562 43l10 14l-171 362q-47 -91 -47 -131q0 -48 57.5 -158t90.5 -110l-28 55l55 -32q-5 20 -5 23l1 13q17 -26 37 -36zM405 80v18q-54 10 -78 15l61 12q-15 12 -51 21q25 6 25 20q0 3 -16 6.5 t-29 3.5h-5q-29 -59 -44 -110q58 0 137 14zM76 81l31 90l-38 -5zM572 102l4 92h-33zM240 501l29 59l-47 -16zM314 204l41 -10l-20 55zM484 142q0 -13 -13 -13q-11 3 -11 13q0 14 11 14q13 -3 13 -14zM202 132q0 -14 -11 -14q-11 4 -11 14q0 13 11 13q11 -6 11 -13zM327 470 q0 -11 -9 -11q-9 3 -9 11q0 10 9 10q9 -4 9 -10z" />
<glyph unicode="B" horiz-adv-x="540" d="M99 606l154 -16l8 -13q129 0 199.5 -41t70.5 -105q0 -38 -27 -79.5t-82 -57.5q55 -6 91.5 -42t36.5 -73q0 -188 -274 -188q-10 0 -85.5 4.5t-105.5 4.5h-13l17 180l-59 72l59 46l9 120l-40 121l48 10zM213 16l27 548l-21 3l-15 -59l-5 64l-19 1v-29q0 -37 -5 -50 q-4 11 -18 81l-37 10q3 -10 3 -53q0 -39 -7.5 -218.5t-7.5 -219.5q0 -54 5 -72q17 17 36 60q17 -47 17 -66l4 -1l9.5 28.5t12.5 36.5q8 -37 17 -65zM370 272q-91 0 -113 -37v-32h41q78 0 78 -53v-7q-31 -44 -124 -59q4 -45 12 -45q10 0 48 19q-12 -18 -18 -23l-31 -26 q13 -4 31 -4q86 15 145 35q77 58 77 121q0 53 -39.5 82t-106.5 29zM340 411q0 -34 -88 -59q23 -8 33 -8q8 0 26 6q-13 -23 -54 -33l1 -4q5 0 14 -0.5t13 -0.5q27 0 54 19q-1 -26 -49 -38v-4q92 7 150.5 43t58.5 92q0 53 -49 87.5t-116 34.5q-44 0 -77 -11q0 -7 -2 -25 t-2 -22q0 -21 7 -29q80 0 80 -48zM305 176q-29 0 -58 -26q10 -11 10 -35l39 10q46 22 52 34l-1 3q-14 14 -42 14zM318 420q0 4 -4 9t-16 10t-28 5h-12v-64q60 10 60 40zM462 146q-5 5 -11.5 32t-6.5 38q0 6 5 6q9 0 18 -15.5t9 -27.5q0 -28 -14 -33zM420 139q-1 7 -8.5 36 t-7.5 36q0 5 5 5q10 0 17.5 -11.5t7.5 -24.5q0 -5 -5.5 -22t-8.5 -19zM417 404l-4 5q-20 25 -28 74h3q12 0 20.5 -26t8.5 -53zM60 249l31 -42h2l-9 65zM431 485q20 0 22 -58l-7 -7q-3 16 -8.5 30t-9 21t-3.5 8q0 6 6 6zM184 194q0 -13 -12 -13q-11 0 -11 13t11 13 q12 0 12 -13zM81 526l16 -38l3 2v36h-19zM189 469q9 0 9 -10t-9 -10q-10 0 -10 10t10 10zM165 272q9 -2 9 -10q0 -10 -8 -10q-7 5 -7 10q0 10 6 10z" />
<glyph unicode="C" horiz-adv-x="451" d="M451 121q0 -43 -64.5 -74t-121.5 -31q-102 0 -162 80t-60 210q0 129 57.5 218.5t147.5 89.5q63 0 133 -47q-19 -68 -19 -154q-45 32 -79 32q-62 0 -62 -100q0 -57 23 -114.5t55 -57.5q34 0 63 68q17 -16 53 -65t36 -55zM420 110l-3 2q1 -1 -15 -9.5t-34 -17t-27 -12.5 q22 16 44 62q-51 -28 -67 -27l-15 1q22 9 40.5 33t18.5 47v3q-33 -45 -65 -45q-42 0 -72.5 60t-30.5 129q0 63 26 97.5t76 34.5q29 0 52 -8q-7 3 -36.5 29.5t-42.5 31.5q12 3 13 3q10 0 36.5 -11.5t29.5 -12.5q-29 35 -58 57q3 1 7 1h5q5 0 24 -6t25 -6q2 0 5 3 q-51 45 -104 45q-74 0 -125.5 -87.5t-51.5 -201.5q0 -119 59.5 -191t159.5 -72q32 0 71 20.5t55 47.5zM195 126l-5 -1q-17 0 -36.5 30t-19.5 54l3 16q21 -65 58 -99zM212 153q-1 -2 -7 -2q-15 0 -28 25t-13 47q0 15 3 22q25 -78 45 -92zM338 71q1 1 3 2q-2 -2 -3 -2z" />
<glyph unicode="D" horiz-adv-x="570" d="M570 276q0 -107 -66.5 -194.5t-156.5 -87.5q-5 0 -5 -7q0 -6 1 -7l-176 -5v12q-10 -2 -39 -6t-44 -7l-11 206l102 4l-1 146q-72 -2 -113 -10q-7 14 -7 57q0 61 13 129l103 12l3 46l188 13l9 -28q1 0 9 -5t25 -14.5t35 -19.5q131 -70 131 -234zM329 516q0 44 -26 44 q-5 0 -8 -17.5t-7 -41.5t-11 -34v9q0 5 -7 33.5t-7 34.5l-14 1l-6 -69l-13 68q-18 -2 -28 -9q-4 -27 -4 -101q0 -25 2.5 -137t2.5 -136q0 -84 -9 -158h10l18 65v-63l38 2l21 102l4 -101l32 3q-4 58 -4 95t8 204t8 206zM536 250q0 95 -47.5 171.5t-121.5 96.5 q-12 -79 -12 -117q0 -18 2 -44q72 -38 72 -100q0 -36 -22.5 -63.5t-58.5 -40.5v-137q91 18 139.5 79.5t48.5 154.5zM171 356v80l-15 -1q-14 0 -19 8q30 30 32 33q-4 1 -4 9q0 1 0.5 3t0.5 3l-78 -11l-5 -68q10 -1 45 -15q-17 -4 -46 -20q6 -2 6 -12t-4 -19q40 11 73 11 q13 0 14 -1zM172 11l2 49q-3 0 -6 -0.5t-4 -1.5h-2q-18 0 -38 18q5 1 12 3t9.5 2.5t6 2t4.5 2.5t3.5 3t3.5 4.5t3 6.5l7 25q-8 -4 -22 -4q-6 0 -23 5q24 10 39 36l-65 1l8 -152h62zM395 258q0 24 -12 44.5t-30 23.5l-5 -138q47 15 47 70zM480 364q-4 5 -15.5 19t-17.5 20 t-17 15t-23 13t-26 5q11 8 23 8q24 0 50 -28t26 -52zM449 335l-30 28q-6 6 -35 22q5 7 14 7q18 0 34.5 -19.5t16.5 -37.5zM266 431l5 -5q0 -8 -7 -8q-6 0 -15 9l8 8zM257 114l9 -7l-9 -7l-8 7z" />
<glyph unicode="E" horiz-adv-x="562" d="M528 545l37 -145l-245 -24v-47q20 -1 70 -3t77 -4q0 -16 -8 -168l-142 10v-25l177 -42q-3 -14 -11.5 -65.5t-14.5 -79.5q-129 25 -263 25q-28 0 -80 -2v27q-18 3 -53.5 7t-51.5 6l28 159l83 -5l7 193q-16 -1 -83 -8q3 38 9.5 103.5t8.5 82.5l70 -4v38q31 -2 88.5 -4 t79.5 -3l17 -18q37 0 108 -2t92 -2zM287 33l3 504l-3 2q-2 -6 -9 -25t-10 -29l-20 64h-24q-19 -23 -21 -26l-37 34v-541h8l18 82l10 -88l23 1l19 78l10 -78zM322 403l214 18l-10 31q-8 0 -26.5 2.5t-27.5 3.5l49 14l-2 22q-23 0 -57 4l55 26l-1 3h-194v-124zM476 75l-159 30 l-21 -106l156 -25l1 2q-27 19 -31 31q2 0 11 -2.5t14 -2.5l15 1q-7 14 -41 28q23 1 33.5 9.5t21.5 34.5zM391 207l62 18q-10 3 -28.5 10t-23.5 9l44 11v55h-122v-116l110 -5l1 3zM125 11l6 142h-65l-24 -113zM79 385h58l-12 132h-35zM241 461l2 -3q-3 -14 -22 -23v26h20z M235 270l-11 -9l-15 27l6 6z" />
<glyph unicode="F" horiz-adv-x="501" d="M313 546l188 -3l-24 -159l-142 -6l1 -25l151 4l5 -127l-136 -21l5 -183l-195 -41l-16 398h-102l16 158q78 6 249 50v-45zM270 25l62 19l-37 520l-23 -7l-10 -130l-14 126l-40 -10l-10 -90l-14 86l-17 -4l23 -518l22 8l3 47l25 -56l15 56zM477 511l2 15h-155l10 -126 l124 5l-50 28l61 20l2 18l-71 29zM350 228l129 12l-2 36l-65 4l62 18l-7 13l-50 6l44 6q10 7 10 8l-4 7l-127 -4zM71 414h77l-5 119h-17q-29 0 -46 -7v-16l26 -10l-30 -9l-1 -17l26 -7l-27 -10zM256 271q0 -5 -4 -5l-6 2l-5 -2q-4 0 -4 5q0 8 9 14q10 -7 10 -14zM231 480 l8 -6l-8 -7l-8 7z" />
<glyph unicode="G" horiz-adv-x="503" d="M503 -24q-51 -15 -153 -51l-33 99q-31 -9 -60 -9q-97 0 -167.5 97.5t-70.5 217.5q0 123 71.5 191.5t197.5 68.5q70 0 147 -59l-89 -145q-21 11 -53 11q-47 0 -73 -28.5t-26 -74.5q0 -37 19.5 -64t50.5 -30l-16 109l152 44q43 -173 103 -377zM422 107q-33 21 -37 32 q-41 -34 -91 -34q-7 0 -23 2q53 13 69.5 23t23.5 32l-16 19q-20 -38 -51 -38q-14 0 -27 5q46 4 67 55l-6 22q-31 -45 -69 -45q-36 0 -63 40t-27 84q0 54 35.5 83.5t98.5 29.5q15 0 33 -3l4 16q-23 20 -52 22q20 10 39 10q14 0 16 -1q-13 18 -53 42q57 -13 74 -27l34 50 q-63 33 -133 33q-98 0 -157 -61.5t-59 -161.5q0 -10 2.5 -29t2.5 -24q2 12 24 59q-8 -27 -8 -61q0 -53 25 -102q-15 19 -41 64q2 -57 68.5 -129.5t123.5 -72.5q41 0 93 19t80 47zM443 121l-58 210l-35 -14q5 -46 15 -60q-9 1 -41 49l-30 -9l4 -52l-28 51l20 -89l46 46 q72 -100 107 -132zM462 -15l15 9q-3 13 -14 51t-17 60q-13 -25 -44.5 -45.5t-62.5 -28.5l23 -87l32 14l-14 36l33 -27l22 8l-4 59zM155 476q-7 -10 -16.5 -24.5t-13.5 -20.5t-9.5 -14.5t-7.5 -12.5t-4.5 -9.5t-3.5 -9.5t-2 -9q-7 4 -7 13q0 24 20.5 53.5t43.5 33.5zM167 434 q-35 -50 -37 -73q-9 5 -9 18q0 18 14 34t32 21z" />
<glyph unicode="H" horiz-adv-x="603" d="M592 334l11 -175l-50 -17v-153l-170 -13v175l-86 -9l-17 -158l-171 -16v199l-29 -1l-13 165h32l11 7l18 247l179 -10v-230h81l15 211h167v-222h22zM280 542l-27 4l-10 -68l-10 71l-22 3l-17 -84l-6 85l-40 6l-18 -560l23 3l6 71l16 -60l31 -3l8 86l11 -78l37 -1 q18 285 18 525zM474 9l63 9v519h-33l-12 -71l-12 71h-22v-74l-32 76l-16 -526l25 103l17 -108l10 58zM303 175l85 9l-58 25l58 5v48l-58 16l58 11v32l-85 -4v-142zM91 189l22 3v117l-25 3zM557 180l24 6l-7 111h-14zM199 257l9 -8l-9 -6l-8 6zM480 250l8 -5l-8 -6l-8 10z " />
<glyph unicode="I" horiz-adv-x="278" d="M84 611l166 -17v-610l-193 -23zM206 19l10 1v557l-28 -5l-17 -62l-9 62l-14 1l-14 -70l-17 73l-7 1l-19 -582l49 13l9 94l20 -87l19 1l8 51z" />
<glyph unicode="J" horiz-adv-x="480" d="M480 624v-174q-1 -133 -36 -243.5t-104 -178.5t-160 -68q-11 0 -67.5 3t-71.5 3q13 117 38 223q0 -1 16.5 -3t37 -4t29.5 -2q1 0 3.5 0.5t4.5 0.5l12 1q88 73 88 301q0 67 -9 143zM460 474q0 82 -11 125h-48l-13 -91l-11 91h-18l-3 -119l-19 119l-47 3q13 -77 13 -144 q0 -186 -101 -295q-4 -1 -31 -1h-72q-1 -8 -3 -17.5t-2 -12.5q0 -16 54 -16h24q-36 -15 -64 -15q-3 0 -8.5 0.5t-8.5 0.5q-2 -5 -3.5 -18.5t-3.5 -22.5q42 -18 99 -18q-18 -7 -106 -9v-9q0 -12 -6 -27l128 -7q115 0 188 137t73 346zM330 156q0 -24 -31.5 -54t-55.5 -30 q65 52 84 94q3 -4 3 -10zM282 191q0 -19 -26 -40t-45 -21h-5q44 35 54.5 45.5t17.5 27.5q4 -5 4 -12z" />
<glyph unicode="K" horiz-adv-x="545" d="M398 545l147 -107l-190 -185l125 -217l-161 -97l-58 127l-9 -75l-177 -15l8 167l-42 35l47 63l20 303l172 9l6 -140zM261 528l-41 -1l-18 -88l-4 82h-36l-14 -76l-5 76h-18l-26 -514l18 6l14 76l8 -79l17 1l17 89q12 -87 22 -87q1 0 5 0.5t12.5 2t17.5 2.5q0 169 31 510z M496 443q-44 62 -87 78q-73 -62 -112.5 -142.5t-39.5 -169.5q0 -15 3 -35q195 217 236 269zM419 27l31 16l-114 188l-76 -103l68 -152l32 16l-33 67l52 -58l24 16l-41 85zM458 462q-6 -30 -33 -37l-52 -19q4 17 24.5 41.5t33.5 32.5v-4q0 -3 -5 -18.5t-5 -20.5q7 2 37 25z M61 189l20 -10l-1 26zM178 238l6 -9l-6 -9l-7 9z" />
<glyph unicode="L" horiz-adv-x="508" d="M477 216l31 -170l-246 -19l-2 -43l-189 -14l-5 19l-60 -14l-6 196l75 9l23 419l191 -9l-16 -396zM238 11l28 551l-45 3l-19 -94l-8 96h-19l-20 -85v88l-31 2l-30 -573l19 2l13 83l19 -81l50 4l13 70l13 -67zM266 50l222 14l-12 45l-101 5l92 18l-2 18l-67 4l63 21l-2 14 l-193 -20v-119zM71 17l4 138l-57 -8l1 -24l36 -2l-35 -19l2 -21l34 -10l-34 -14l3 -52h33zM171 107l9 -9l-9 -10l-12 10z" />
<glyph unicode="M" horiz-adv-x="1021" d="M779 558l242 -485l-156 -109l-180 340l-162 -309l-35 43l-72 -53l-107 223l-8 1l-57 -264l-192 55l162 593l186 -85l-8 -31l69 -138l106 160l23 -19l4 14zM948 47l47 32q-92 190 -228 450q-4 -1 -18.5 -5t-24.5 -7l22 -68l-40 58l-18 -7l16 -62l-32 61l-45 -21 q6 -13 247 -481l17 13l-33 79l51 -67l20 11l-20 77zM206 -30l171 524l-35 9l-44 -58l25 76l-30 11l-25 -79l-28 109l-142 -490l-21 -55l28 -2l46 97l-17 -106l23 -9l39 87l-5 -103zM502 74l35 20l-156 359l-28 -83l43 -107l-52 54l-7 -31l24 -56l-35 34l-16 -25l111 -223 l23 18l-27 73l50 -59l15 11l-20 69zM558 116l97 211l-29 82l-28 -5l7 45l-44 -60l15 73l-98 -159l21 -49l68 84l-59 -105zM217 276l46 66l-57 -171zM156 194l60 191q0 -34 -21.5 -103t-38.5 -88zM600 298l8 -8l-66 -70zM521 31l20 43l-33 -25zM287 417q-6 -11 -11 -11 t-11 11q5 9 11 9q4 0 11 -9zM454 179l9 -8l-9 -7l-9 7zM710 418l7 -7l-7 -8l-8 8z" />
<glyph unicode="N" horiz-adv-x="720" d="M671 174l49 -53l-48 -40l2 -111q-30 0 -189 19l-5 38l-182 179l7 -214q-17 -5 -36 -5q-10 0 -59.5 6t-63.5 6h-8l-40 368l-71 68l60 65l3 90l193 9l11 -108l186 -187l7 279l197 -19zM649 7l8 519l-65 20v-104l-20 101l-19 -86l-13 86l-34 7v-528l25 -2l6 64l20 -69l25 -4 l7 87l24 -87zM235 24l42 -2v72q0 18 -0.5 59t-0.5 61v89q-6 214 -27 262l-38 3l-13 -92l-14 84l-9 1l-13 -112l-25 117l-15 -6l40 -535l16 2l12 101l14 -94l16 64zM295 245l190 -191v212l-184 192v-69l61 -99l-63 60v-30l62 -66l-65 35zM55 439l37 -36v68zM675 107l19 14 l-26 24zM228 411q0 -6 -9 -11q-11 5 -11 11q0 5 11 10q9 -4 9 -10zM575 138l9 -9l-9 -8l-9 8z" />
<glyph unicode="O" horiz-adv-x="614" d="M614 321q0 -73 -37.5 -149.5t-97 -126.5t-118.5 -50q-134 0 -226 89t-92 218t78.5 212.5t204.5 83.5q124 0 206 -78.5t82 -198.5zM584 336q0 111 -60.5 173.5t-170.5 62.5q-125 0 -199.5 -65t-74.5 -180q0 -123 85.5 -216t205.5 -93q56 0 106 48t79 121.5t29 148.5z M454 290q0 -56 -42.5 -95t-100.5 -39q-50 0 -79 33.5t-29 89.5q0 54 40 90.5t96 36.5q52 0 83.5 -32t31.5 -84zM424 280q0 42 -29.5 74t-68.5 32q-35 0 -63 -37t-28 -76q0 -35 16.5 -60.5t53.5 -25.5q54 0 86.5 25.5t32.5 67.5zM519 405q-14 31 -37.5 51t-94.5 61 q43 0 86.5 -34.5t45.5 -77.5zM192 169h-3q-13 0 -27.5 36t-14.5 66q0 25 9 40q9 -102 36 -142zM459 149q-3 -19 -32.5 -35t-56.5 -16t-27 18l11 -1q2 0 5 -0.5t4 -0.5q45 0 96 35zM171 147q-55 46 -55 124q0 23 4 35q17 -105 51 -159zM465 389q-41 39 -51 47.5t-28 16.5h10 q28 0 48.5 -18.5t20.5 -45.5zM462 105q0 -16 -20 -26.5t-45 -10.5q-9 0 -10 1l-16 2q60 14 91 34z" />
<glyph unicode="P" horiz-adv-x="640" d="M640 404q0 -85 -88.5 -134.5t-229.5 -49.5l2 -203l-219 -26q2 44 2 70q0 187 -48 274l43 18l3 47l-53 3l-24 155l79 12v41h187l5 -29q46 8 86 8q105 0 180 -53.5t75 -132.5zM260 36l38 10l-24 544l-90 4l-9 -114l-13 113l-33 -1v-581l42 6l23 120l13 -112l23 3l7 100z M603 412q0 70 -65 109t-171 39q-21 0 -55 -2l2 -10q0 -3 -2 -15l59 7l-59 -29v-12l59 -6l-58 -16l2 -28l46 1q78 2 78 -46q0 -33 -22.5 -52.5t-57.5 -19.5q-21 0 -39 7l-2 -83q23 -4 55 -4q103 0 166.5 43t63.5 117zM425 406q-31 28 -73 28q-24 0 -40 -13l1 -46q23 -8 46 -8 q48 0 66 39zM66 430l38 -4v123l-55 -6zM553 421q0 -13 -9 -38q-13 59 -36 108q45 -25 45 -70zM504 425q0 -14 -4 -25q-22 59 -27.5 70t-23.5 29q23 -7 39 -28.5t16 -45.5zM84 326l16 -41v41h-16zM202 274q0 -8 -8 -8q-7 4 -7 10q0 7 7 7q8 -3 8 -9z" />
<glyph unicode="Q" horiz-adv-x="545" d="M444 194l101 -147l-123 -114q-19 29 -36.5 57.5t-34 55t-23.5 37.5q-60 -31 -116 -31q-92 0 -143.5 59t-51.5 163q0 131 74.5 237t173.5 106q90 0 152.5 -84.5t62.5 -193.5q0 -79 -36 -145zM453 335q0 103 -52.5 183t-129.5 80q-59 0 -110.5 -47t-80 -120t-28.5 -151 q0 -93 42.5 -149t114.5 -56q43 0 98 21q-15 12 -18 25q-17 -16 -34 -16q-16 0 -27 7q10 0 30.5 10.5t26.5 10.5l-9 18q-24 -19 -54 -19q-29 0 -41 27q14 -11 44 -11q37 0 41 18l-17 18q-4 0 -12.5 -0.5t-12.5 -0.5q-45 0 -69.5 23t-24.5 66q0 55 39 102t88 47q47 0 69 -33 l31 -70l14 49q5 -7 5 -49v-17l18 -30q22 44 22 94q0 9 -6 39q19 -34 19 -68q0 -12 -8 -38l-15 -44l22 -37q25 46 25 118zM495 20l24 22l-184 264l-29 -12q12 -29 24 -51q-15 9 -45 42l-15 -7q11 -29 17 -39l-39 30l-11 -6l193 -298l16 17l-25 77l46 -65l-13 86zM205 271 l121 57q-8 64 -64 64q-43 0 -78.5 -32t-35.5 -74q0 -33 17.5 -60t43.5 -27q14 0 35 13q-17 20 -39 59zM268 526l-14 1h-7q-44 0 -88 -33q3 48 66 48q37 0 43 -16zM235 486l-32 -19q-16 -7 -28 -25q6 44 60 44zM330 215l14 -12l-6 -7l-16 11z" />
<glyph unicode="R" horiz-adv-x="554" d="M599 -34l-132 -100l-218 227l-5 -104l-192 -9l20 170l-49 148l68 16l11 91l-84 -4q0 27 -1 81t-1 82q71 5 99 12l7 38h168v-29q92 -2 148 -61t56 -149q0 -56 -24.5 -101.5t-67.5 -66.5zM221 8l41 581h-27l-16 -87v85l-30 4l-16 -92l-12 95l-21 1l-64 -597l36 3l13 84 l5 -78h29l14 68l3 -59zM469 384q0 77 -49.5 126.5t-122.5 49.5h-12l-5 -114q42 0 68.5 -18t26.5 -49q0 -27 -23 -44.5t-83 -35.5l-3 -23q84 4 104 27l1 -1q0 -26 -103 -45l-2 -20q78 5 111 20q-15 -25 -120 -34l1 -24l43 -1q71 -1 119.5 53t48.5 133zM540 -44l22 13 l-179 221q-45 -15 -126 -15v-51l218 -222l26 18l-24 36l35 -30l19 15l-31 29zM112 560l-77 -7l-1 -50l45 -13l-45 -12l1 -20h42l-42 -19v-22l71 4q6 110 6 139zM345 379q0 42 -65 42l-14 -92q39 1 59 15t20 35zM80 192l7 107l-44 -10l32 -98zM179 276l10 -12l-5 -6l-11 12z M197 480l6 -4l-6 -6q-2 0 -4 3t-4 3z" />
<glyph unicode="S" horiz-adv-x="422" d="M313 616q85 0 131 -64q-35 -50 -91 -149q-8 0 -39.5 5t-40.5 5q-52 0 -52 -46q0 -16 4 -25.5t16.5 -18t25 -14t41.5 -18t55 -25.5q23 -12 36 -33t13 -45q0 -106 -62.5 -168t-166.5 -62q-94 0 -185 53q7 23 43 88.5t38 71.5q4 -11 32 -26t55 -15q9 0 16.5 7t8.5 14 q-8 16 -60 52t-58 44q-33 40 -33 110q0 102 83.5 180.5t189.5 78.5zM303 594q-90 0 -164 -72.5t-74 -164.5q0 -63 41 -112q6 -10 34 -29.5t52 -35.5t24 -22q0 -12 -20.5 -30t-34.5 -18q-32 0 -69 28l-13 -22q15 -22 56 -50q-41 10 -70 27l-17 -30q17 -24 64 -41 q-50 8 -73 25l-14 -22l18 -6q90 -30 127 -30q83 0 151 54t68 136q0 18 -4 30t-8.5 20t-19.5 16.5t-25.5 13.5t-37.5 16t-46 19q-49 18 -49 60q0 90 90 90q50 0 50 -22q16 22 16 27q0 14 -41 42q10 -1 51 -31l19 28q0 14 -46 44q20 0 58 -22l25 40q-54 44 -118 44zM318 164 q0 -41 -31 -64q20 51 20 65q0 30 -24 60q35 -27 35 -61zM271 179q0 -21 -11 -44t-25 -33q26 31 26 63q0 29 -21 48h1q30 0 30 -34zM139 369q0 55 26 72q-15 -33 -19 -111q-7 15 -7 39zM98 363q0 68 30 83q-26 -38 -26 -104v-11q-4 8 -4 32z" />
<glyph unicode="T" horiz-adv-x="408" d="M391 572l17 -192l-142 -10v-409h-149v394l-111 -16l7 185zM31 368l348 30l-1 44l-51 11l50 10v22l-89 5l88 20l-1 40l-345 -42v-64l95 19l-97 -44l65 -6l-65 -17zM221 -16h29v369h-48l-8 -50l-7 50l-12 -2l-4 -71l-9 68l-28 2v-367l21 1l12 91l15 -93l16 -1l10 94z M190 475l9 -9l-9 -9l-9 9z" />
<glyph unicode="U" d="M619 561l-1 -9q-11 -102 -11 -213v-28q0 -8 -1 -10q-39 -356 -283 -356q-139 0 -201.5 79.5t-62.5 261.5q0 20 3.5 111.5t3.5 110.5q0 23 -2 59l191 17q5 -30 5 -65q-3 -12 -3 -43l-2 -60q-5 -80 -5 -104q0 -146 74 -146q49 0 72 97t23 310v19l194 19q6 -25 6 -50z M590 521q0 41 -4 66h-19q-18 -69 -28 -119l1 117q-5 -4 -13 -4q-6 0 -6 3q-12 -21 -27 -89q-6 32 -6 74v13l-42 -7q3 -78 3 -88q0 -177 -33 -266t-93 -89q-100 0 -100 198q0 16 3.5 96t3.5 97v17q0 22 -14 22q-18 0 -46 -6l-4 -119l-23 112l-23 -3l10 -113l-25 112l-9 -5 v-25q0 -29 -1 -69.5t-2 -70t-1 -31.5q0 -187 48.5 -275t148.5 -88q127 0 186.5 47t81.5 167q33 183 33 326zM377 100q-23 -18 -62 -18q-33 0 -44 16q10 -5 33 -5q15 0 73 7zM392 67q-27 -19 -71 -19q-36 0 -48 18q25 -9 54 -9q34 0 65 10z" />
<glyph unicode="V" horiz-adv-x="565" d="M404 626l161 -62q-67 -153 -203 -419l40 -123l-172 -79l-10 54l-86 25l24 84l-158 466l157 82q48 -106 123 -315zM375 41q-4 7 -120 287q-47 111 -114 290l-16 -9l10 -92l-45 73q8 -33 9 -95l-44 86l-24 -6l108 -297q17 -50 35 -96.5t47.5 -114.5t35.5 -81l15 7 q-2 4 -7 16t-11.5 26t-12.5 30l44 -65l32 16q-20 25 -29 57q31 -31 59 -43q1 0 6.5 1t12.5 3.5t9 6.5zM355 176l162 357l-9 12l-39 -35l6 39l-13 11l-43 -45l23 61l-25 19l-119 -294zM167 43l46 -15l-29 60zM428 446q0 -13 -11 -13q-13 3 -13 13q0 15 13 15q11 -3 11 -15z M147 458q0 -14 -12 -14q-10 5 -10 14q0 12 10 12q12 -4 12 -12zM272 118q0 -11 -9 -11q-10 4 -10 11q0 12 10 12q9 -6 9 -12z" />
<glyph unicode="W" horiz-adv-x="987" d="M262 -54l-243 485l156 110l180 -341l162 309l35 -42l73 51l106 -222l9 -2l56 265l191 -55l-162 -593l-185 86l9 30l-71 138l-104 -159l-23 19l-5 -15zM92 458l-46 -32q140 -289 225 -451q4 0 11 2.5t17.5 6t17.5 5.5l-23 68l41 -59l18 5l-16 63l31 -59l44 19 q-63 132 -246 482l-18 -14l34 -78l-51 66l-19 -11l19 -77zM833 534l-170 -523l36 -11l43 59l-25 -76l31 -10l24 78l27 -109l143 489l21 56l-27 3l-47 -97l17 106l-24 9l-37 -88l4 104zM539 430l-36 -20l155 -359l29 83l-44 107l53 -54l8 32l-24 57l35 -36l16 25l-112 223 l-24 -18l28 -72l-50 59l-15 -12l19 -68zM482 389l-97 -211l28 -84l30 6l-8 -43l43 59l-13 -73l96 159l-20 48l-69 -84l60 105zM822 229l-46 -66l59 172zM885 311l-62 -190q3 39 23 103t39 87zM439 206l-6 7l66 72zM519 474l-20 -44l33 25zM754 89q5 9 10 9q6 0 11 -9 q-4 -10 -11 -10q-6 0 -10 10zM585 326l-9 6l9 8l9 -8zM330 85l-9 8l9 7l8 -7z" />
<glyph unicode="X" horiz-adv-x="576" d="M447 554l129 -152l-174 -199l82 -161l-131 -72l-68 97l-68 -108l-170 112l126 172l-133 220l173 94l88 -168zM434 42l15 12l-250 472l-46 -23l42 -95l-67 77l-19 -11l40 -88l-59 79l-26 -10l304 -462l21 15l-41 76l58 -62l11 8l-52 108zM389 228l146 174l-25 33l-82 -68 l65 86l-16 17l-69 -70l54 90l-17 20l-133 -143q66 -119 77 -139zM206 -7l60 98l-79 125l-107 -135l28 -24l47 44l-24 -51l22 -16l36 41l-15 -58zM288 249l8 -8l-8 -9l-8 9z" />
<glyph unicode="Y" horiz-adv-x="565" d="M379 574l186 -98l-312 -551l-164 100l87 171l-187 212l137 164l159 -177zM245 -39l295 505l-28 10l-65 -83l44 92l-20 11l-73 -82l46 103l-50 24l-269 -502l17 -14l74 103l-57 -115l12 -8l62 66l-44 -81zM273 371l-143 153l-20 -22l60 -94l-76 72l-17 -18l71 -91l-89 73 l-26 -35l156 -186q4 9 84 148zM298 247l9 -9l-9 -9l-9 9z" />
<glyph unicode="Z" horiz-adv-x="633" d="M429 551l54 49l38 -48l112 2q0 -15 -19 -189l-38 -3l-179 -184l214 6q4 -12 4 -36q0 -8 -6 -57t-6 -65v-8l-367 -40l-67 -71l-67 60l-89 3l-10 193l109 11l186 186l-278 8l19 196zM597 531l-521 5l-19 -64h105l-102 -20l87 -18l-87 -14l-8 -35h529l2 25l-65 7l69 20l4 25 l-87 6l87 24zM578 114l3 43l-280 -1q-220 -5 -263 -26l-4 -39l94 -12l-85 -13l-1 -11l112 -14l-116 -25l5 -14l533 40l-1 16l-99 13l92 13l-64 16zM357 175l192 192h-212l-192 -187h69l98 64l-59 -64h30l65 61l-34 -65zM164 -66l36 39l-68 -3zM496 554l-13 22l-25 -27z M191 108q6 0 12 -10q-6 -9 -12 -9q-7 0 -11 9q4 10 11 10zM466 454l9 9l8 -9l-8 -9z" />
<glyph unicode="[" horiz-adv-x="467" d="M410 679l36 -146l-151 -21v-464l102 -32q-3 -14 -11.5 -65.5t-14.5 -79.5q-113 15 -188 15q-27 0 -79 -2l18 826q28 -1 84 -2.5t83 -3.5l17 -19zM265 -58l4 732l-4 1q-3 -9 -10 -27.5t-9 -25.5l-19 63h-24q-7 -6 -22 -26l-36 34v-768h8l18 82l9 -88l24 1l18 78l10 -78z M301 540l117 14l-10 31q-8 0 -27 2.5t-27 3.5l49 15l-2 21q-9 0 -30.5 2t-26.5 2l54 26l-1 3l-96 4v-124zM379 -6l-84 20l-21 -106l81 -15l1 2q-27 20 -30 31q1 0 10.5 -2.5t14.5 -2.5l14 2q-7 13 -41 27q23 1 33.5 9.5t21.5 34.5zM220 598l1 -4q-2 -14 -22 -22v26h21z" />
<glyph unicode="\" horiz-adv-x="490" d="M490 63l-142 -91l-348 625l164 84zM451 61l-295 572l-27 -19l55 -83l-4 -5l-70 75l-3 -6l40 -100l-7 -10l-72 99l-32 -4l312 -571l9 11l-37 71l50 -61l23 16l-33 93l62 -84zM285 241q0 -3 -4 -3q-8 0 -10 1q-1 1 -36.5 85.5t-34.5 85.5q1 0 8.5 -13t19 -35t20.5 -40 q37 -80 37 -81zM336 200q-36 65 -51 109q0 6 8 6q4 0 21 -48.5t22 -66.5z" />
<glyph unicode="]" horiz-adv-x="467" d="M261 594l1 4h20v-26q-19 8 -21 22zM187 14l-85 -20q10 -26 21 -34.5t34 -9.5q-32 -13 -41 -27l15 -2q5 0 14 2.5t11 2.5q-3 -11 -31 -31l1 -2l81 15zM64 554l117 -14v124l-97 -4l-1 -3l55 -26q-5 0 -26.5 -2t-30.5 -2l-2 -21l49 -15q-9 -1 -27.5 -3.5t-26.5 -2.5z M213 674l3 -732l33 -22l11 78l18 -78l24 -1l9 88l18 -82h8v768l-36 -34q-15 20 -22 26h-24l-19 -63q-3 10 -10 28t-10 25zM35 533l37 146l103 6l17 19q28 2 84 3.5t84 2.5l18 -826q-52 2 -80 2q-73 0 -188 -15q-6 28 -14.5 79.5t-11.5 65.5l99 32v464z" />
<glyph unicode="^" horiz-adv-x="396" d="M134 232l-100 40q31 71 116 239l-22 72l104 47l8 -33l49 -14l-15 -50l90 -267l-94 -49q-36 86 -68 172zM154 568l128 -319l9 5l-10 53l20 -27l4 41l26 -53l6 2q-89 244 -125 324h-1l10 -41l-24 34l-9 -5q3 -4 5.5 -11.5t4 -17.5t2.5 -13q-16 21 -37 32zM158 480l-87 -189 l3 -1l26 27l-7 -35l5 -1l33 30l-16 -43l7 -6l64 159zM260 566l-13 3l8 -16zM113 340q0 12 12 12q10 -6 10 -12q0 -13 -12 -13q-10 4 -10 13zM273 334q0 11 12 11q8 -2 8 -11q0 -11 -12 -11q-8 6 -8 11zM203 526q0 9 8 9q9 0 9 -9q0 -11 -9 -11q-8 3 -8 11z" />
<glyph unicode="_" horiz-adv-x="622" d="M603 -26l-16 -152q-186 -19 -418 -19q-48 0 -146 2l5 172q170 -10 340 -10q127 0 235 7zM562 -162l-123 21h122v77l-505 12l-2 -77l77 -12l-84 -9l73 -7l-72 -17h18q23 0 76 -2t57 -2q130 0 363 16zM303 -109q0 10 10 10q11 0 11 -10q0 -9 -11 -9q-10 0 -10 9z" />
<glyph unicode="`" horiz-adv-x="338" d="M122 840l66 -49q-3 -13 -21 -56l128 -86l27 -66l-79 11l-127 70q-21 -21 -43 -32l-65 40q0 57 30.5 108.5t83.5 59.5zM71 789q-43 -45 -43 -104q6 -3 14 -3q22 0 50 36t39 77l-6 14l-8 3h-5q-8 0 -14.5 -3t-16.5 -11zM295 603l-19 41l-80 50l-26 -7l10 17l-21 14 q-7 -19 -30 -37l116 -71zM57 668l17 -11q63 36 89 123l-21 17q-32 -96 -85 -129z" />
<glyph unicode="a" horiz-adv-x="495" d="M495 20l-11 -6q-16 2 -17 2q-9 0 -22.5 -5t-26.5 -12t-24.5 -13.5t-19.5 -11.5l-7 -5q0 25 -33 77q-76 -14 -129 -14q-2 -6 -8 -20.5t-12.5 -31t-14.5 -32.5q-5 2 -22 9t-32 12t-23 5q-14 0 -24 -5q0 8 -13 27l-13 18q-17 46 -17 141q44 0 72 17q11 7 42 103t31 111 q0 4 -9 31.5t-9 35.5q27 0 51.5 16t24.5 38q0 8 -1 9q56 -9 116 -67l21 4q-4 -10 -9 -24.5t-12 -37t-12 -37.5q33 -39 90 -179h43q9 0 11 1q5 -17 11 -83.5t8 -72.5zM330 421q0 14 -9 26q-26 -12 -47 -35q5 21 22 47l-24 12l-35 -51q20 47 25 56l-12 6q-21 -47 -40 -94.5 t-32.5 -82.5t-47.5 -128t-62 -166l20 -4l35 68v-8q0 -29 -7 -68l37 58l-8 -73l12 -8q34 92 173 445zM450 34l8 10l-130 286q-45 -66 -45 -100q0 -38 45 -125.5t74 -88.5l-23 43l45 -25q-5 9 -5 18v11q16 -21 31 -29zM324 65v14q-19 1 -62 11q12 4 49 10q-17 10 -41 16 q20 6 20 17q0 8 -35 8h-6q-26 -53 -35 -87q56 0 110 11zM458 82l2 73h-26zM61 68l24 66l-29 -3q5 -52 5 -59v-4zM192 401l23 48l-37 -14zM252 163l33 -8l-17 45zM387 114q0 -12 -10 -12q-9 4 -9 12q0 11 9 11q10 -4 10 -11zM162 106q0 -12 -9 -12q-8 4 -8 12q0 10 8 10 q9 -4 9 -10zM262 376q0 -9 -8 -9q-7 3 -7 9q0 9 7 9q8 -3 8 -9z" />
<glyph unicode="b" horiz-adv-x="428" d="M453 132q0 -160 -233 -160q-16 0 -89 4t-88 4q14 82 15 153q-25 39 -51 62q40 30 50 40l8 100l-33 104l39 10q-6 17 -6 33l2 14q42 -2 136 -14l-8 -10h49q77 0 134 -36.5t57 -88.5q0 -58 -73 -122q91 -66 91 -93zM164 -7l24 465l-17 2l-14 -58l-4 61l-14 4v-25 q0 -31 -5 -47q-6 10 -18 72l-28 8q2 -16 2 -44q0 -31 -5.5 -184t-5.5 -186q0 -47 3 -60q7 8 30 55q14 -39 14 -63q8 18 22 64q11 -50 16 -64zM421 116q0 44 -34 68.5t-88 24.5q-76 0 -94 -30v-26q13 3 33 3q67 0 67 -47l-1 -8q-33 -45 -104 -50q-2 -24 -2 -26v-8q3 0 5 -0.5 t3 -0.5l2 -1q11 0 46 20q-8 -17 -43 -46q7 -4 24 -4q53 0 119.5 41.5t66.5 89.5zM406 339q0 43 -40 73t-98 30q-22 0 -65 -9q0 -4 -0.5 -19t-0.5 -20q0 -15 4 -23q12 4 15 4q22 0 38.5 -13t16.5 -33q0 -28 -73 -50q15 -5 24 -5q4 0 25 7q-10 -21 -47 -34h15q33 0 54 18 q0 -26 -43 -38q81 7 128 35.5t47 76.5zM280 116q-19 14 -36 14q-25 0 -48 -23q9 -9 9 -26l39 16q33 14 36 19zM253 337q0 7 -15 19h-32l1 -51q46 9 46 32zM389 132q0 -30 -12 -30l-7 8q0 6 -5 26t-5 27q0 8 5 8q10 0 17 -13t7 -26zM343 330q0 -9 -4 -9q-10 0 -14.5 11.5 t-10.5 43.5l-3 15q-1 1 -1 3h1q12 0 22 -20.5t10 -43.5zM354 133q0 -11 -4.5 -24t-10.5 -13q0 10 -6.5 33.5t-6.5 28.5q0 8 5 8q9 0 16 -11t7 -22zM370 344l-6 -7q-9 0 -9 27q0 2 -5.5 12t-5.5 12q0 6 8 6q18 0 18 -50zM36 194l25 -37l-6 51zM142 145q0 -12 -12 -12 q-10 0 -10 12t10 12q12 0 12 -12zM153 370q0 -9 -10 -9q-9 0 -9 9q0 10 9 10q10 0 10 -10zM134 203q0 -12 -9 -12q-7 7 -7 12q0 11 7 11q9 -4 9 -11zM56 426l12 -29v29h-12z" />
<glyph unicode="c" horiz-adv-x="364" d="M362 97q0 -35 -50 -60.5t-100 -25.5q-82 0 -131 66t-49 168q0 100 47.5 174t118.5 74q54 0 109 -39q-16 -58 -16 -127q-39 27 -66 27q-47 0 -47 -78q0 -41 19.5 -88.5t41.5 -47.5q27 0 49 56q12 -12 30.5 -36t31 -42.5t12.5 -20.5zM291 52q27 16 39 32l-25 -13 q-10 -3 -20.5 -10t-14.5 -7l-1 3q18 12 34 45q-30 -18 -53 -18h-4l-3 1l-2 4q16 7 31 25.5t17 33.5q-22 -32 -51 -32q-35 0 -60 47t-25 106q0 107 84 107q18 0 29 -4q-34 34 -57 46q11 3 16 3q8 0 26.5 -9t21.5 -9q-21 24 -45 43l11 3q0 -2 17 -6t24 -4h2q-43 35 -80 35 q-58 0 -98.5 -71t-40.5 -159q0 -94 45.5 -151.5t126.5 -57.5q24 0 56 17zM158 100l-5 -2q-16 0 -32 24t-16 45l2 15l5 1q17 -57 46 -83zM171 124v-3q-1 -1 -7 -1q-13 0 -23.5 19t-10.5 40q0 4 5 21q10 -40 16.5 -52.5t19.5 -23.5z" />
<glyph unicode="d" horiz-adv-x="460" d="M458 220q0 -90 -54 -158.5t-126 -68.5q-2 0 -2 -4v-9h-143l-1 7q-7 -1 -30 -4t-37 -6l-8 169l82 3q0 20 -0.5 57t-0.5 56q-52 0 -90 -9q-7 14 -7 49q0 53 11 104l82 11q0 18 3 36l152 10l8 -24l4 -2q4 -1 10 -6l35 -19q2 -2 6 -2q106 -61 106 -190zM262 412q0 33 -22 34 q-3 -9 -8 -38.5t-9 -36.5l-3 1l1 8q0 6 -6.5 27t-6.5 28h-6q-2 -10 -3.5 -29t-2.5 -26h-4l-10 54q-22 -3 -22 -46q0 -6 0.5 -20t0.5 -21v-52q0 -15 1.5 -58.5t1.5 -55.5v-52q0 -81 -7 -124h5l13 51h5v-50q4 0 12.5 0.5t13.5 0.5l17 81h4l2 -79q4 0 11.5 1t11.5 1 q-4 29 -4 73q0 31 7 164.5t7 163.5zM427 200q0 74 -36.5 134t-96.5 78q-8 -56 -8 -91q0 -18 3 -33q56 -32 56 -82q0 -27 -18.5 -51t-45.5 -34q0 -19 -0.5 -53.5t-0.5 -52.5q72 14 109.5 62t37.5 123zM135 287v60l-3 -1h-4q-10 0 -21 9q9 7 24 25q-1 1 -1 5v6l-58 -8l-4 -52 q15 -2 39 -13q-32 -13 -38 -16q2 -3 2 -9q0 -11 -2 -13q28 7 60 7h6zM135 10l3 36q-1 -2 -4 -2h-4q-18 0 -33 17q24 6 30.5 12t9.5 25q-12 -2 -16 -2q-13 0 -24 5q23 9 33 27q-8 0 -24 0.5t-23 0.5q1 -21 4 -60t3 -59h45zM314 207q0 19 -8.5 34t-22.5 17q0 -12 -1 -33 t-1.5 -38.5t-0.5 -33.5q34 13 34 54zM386 288l-8 8q-27 30 -40 39.5t-35 11.5q9 10 20 10q22 0 41.5 -22t21.5 -47zM360 263l-25 27v-1q-21 15 -32 18q5 8 16 8q15 0 28 -17t13 -35zM214 347l6 -7q0 -8 -8 -8q-4 0 -14 10l8 6zM206 93l8 -8l-8 -6l-8 6z" />
<glyph unicode="e" horiz-adv-x="451" d="M431 451l31 -121l-204 -18v-42h123l-6 -142l-119 7v-26l147 -35l-23 -117q-109 20 -218 20q-2 0 -68 -3l2 24l-89 17l23 128l69 -5v160h-63l15 147l57 -2v26h141l15 -18h167zM229 26l2 416l-18 -49l-16 58h-17l-19 -23l-29 26v-444l21 80l9 -83l17 1l15 72l10 -70z M262 330l173 17l-8 22l-49 7l46 13l-3 15l-53 4l51 25h-157v-103zM386 59l-124 31l-23 -92l128 -21q-23 14 -27 26h35q-11 9 -43 22h2q25 0 35 6.5t17 27.5zM311 170l50 14l-43 14l42 11v43h-98v-94l89 -3zM94 17l5 105h-51l-20 -89zM58 318h44l-8 106h-26zM192 380l2 -3 q0 -15 -19 -24v27h17zM189 220l-7 -6l-4 2q-6 5 -14 19l7 8l4 -4q2 0 14 -19z" />
<glyph unicode="f" horiz-adv-x="404" d="M253 439l150 -3l-19 -131l-114 -4q0 -3 0.5 -9t0.5 -9q14 1 38.5 2t44.5 2t38 2v-107l-105 -16l3 -147l-159 -33l-13 318h-82l13 131q73 4 204 41v-37zM216 22l48 14q-4 69 -14 206.5t-15 206.5l-15 -5q-7 -62 -8 -102h-5l-11 97q-14 -1 -27 -6l-10 -70h-3l-10 66l-11 -3 q3 -72 9.5 -206t9.5 -204l13 6l4 36l3 1l20 -41l10 47zM380 411l1 8h-119q2 -50 7 -98q13 0 42.5 2.5t47.5 2.5l-38 20l52 19q0 2 1.5 5.5t1.5 5.5q-10 3 -57 22l1 4zM281 184l100 11q0 5 -0.5 12t-0.5 12l-51 3l-1 3l48 14q-1 3 -5 7l-37 6v3l35 6h-1l8 4l-1 1q-2 0 -4 3 l-97 -4q1 -10 3.5 -37.5t3.5 -43.5zM59 334h57l-3 91q-3 0 -8 0.5t-7 0.5q-12 0 -17.5 -0.5t-10.5 -4.5t-5 -12q3 0 26 -9l-28 -9q0 -2 -1 -5t-1 -6l27 -7l-27 -10q0 -5 -1 -14.5t-1 -14.5zM207 217q0 -5 -5 -5h-8q-6 0 -6 5q0 9 9 13q10 -4 10 -13zM184 386l10 -7l-10 -8 l-8 8z" />
<glyph unicode="g" horiz-adv-x="405" d="M403 -18v-2q-43 -17 -124 -44l-26 80q-34 -6 -47 -6q-79 0 -135.5 76.5t-56.5 177.5q0 100 56 154t160 54q59 0 121 -46l-73 -119q-23 10 -43 10q-36 0 -57 -22.5t-21 -59.5q0 -28 14 -49t38 -24q-2 15 -6.5 44.5t-5.5 41.5l124 37zM271 50q39 14 64 34q-17 11 -28 25 q-31 -27 -72 -27q-12 0 -26 5q16 4 26.5 7t18.5 6l12 4.5t8 5t5.5 5.5t4.5 7t5 8q-2 1 -10 11q-16 -28 -41 -28q-15 0 -24 3l1 5q35 4 53 42l-4 12q-23 -33 -55 -33q-30 0 -52 32t-22 70q0 91 109 91h12q10 0 14 -1q1 1 1 5t1 5q-14 14 -47 16q18 11 38 11h9q-11 14 -40 30 l1 3q23 -3 32.5 -5.5t13.5 -4.5t15 -9l24 35q-49 25 -104 25q-84 0 -127.5 -52.5t-43.5 -143.5q0 -7 3 -14q2 8 17 39l3 -2q-6 -34 -6 -47q0 -34 20 -82l-5 -1q-4 5 -27 42q7 -45 59 -97.5t92 -52.5q22 0 72 16zM312 148q24 -32 39 -47q-5 21 -21 76.5t-24 84.5l-24 -10 q2 -29 13 -49q-14 5 -37 41q-3 -2 -10.5 -4t-9.5 -3q1 -4 1 -12v-10q0 -17 1 -20l-3 -1l-16 29q3 -9 7 -27t7 -27l36 36q20 -30 41 -57zM371 -9l9 6q-11 43 -24 82q-9 -17 -33.5 -33.5t-48.5 -22.5l17 -65q9 5 21 9l-10 28l1 3l27 -23q2 1 8 3t8 4q-2 30 -2 45l3 1zM124 383 l1 -3q-7 -8 -19 -28l-8 -12q-15 -23 -17 -44q-10 7 -10 16q0 19 17 43t36 28zM139 350l-23 -31q-7 -10 -9 -33q-13 5 -13 17q0 15 13.5 28.5t31.5 18.5z" />
<glyph unicode="h" horiz-adv-x="512" d="M501 273l11 -157l-45 -17v-138l-156 -11v158l-78 -7l-16 -144l-154 -14v181l-29 -3l-9 151h27l11 7l17 225l163 -10v-209h74l13 191h152v-203h19zM217 463l-23 5l-10 -62l-10 63l-19 2l-16 -75l-5 80l-36 3l-18 -509l22 4l6 64l15 -55l27 -2l7 77l9 -69l36 -2 q13 227 15 476zM394 -20l58 9v471h-31l-11 -66l-10 66h-22v-67l-28 68l-14 -478l21 93l18 -96l10 51zM235 131l82 7l-55 24l55 4v43l-54 15l54 11v28l-78 -5zM46 143l20 4v105l-23 3zM469 134l22 6l-6 101h-13zM143 205l10 -7l-10 -6l-6 6zM400 199l8 -5l-8 -5l-7 9z" />
<glyph unicode="i" horiz-adv-x="236" d="M66 491l137 -15v-491l-160 -18zM166 17l6 1q0 76 -0.5 220.5t-0.5 220.5q-2 -1 -9 -1q-4 0 -7.5 -3.5t-6 -10.5t-4 -12.5t-3.5 -14.5t-3 -11l-4 2l-6 47q-2 0 -4.5 1t-3.5 1l-10 -55h-3l-14 58h-3l-15 -462q5 1 16.5 5t18.5 5q1 7 3.5 33.5t3.5 40.5h4l16 -68q8 0 11 6 t4.5 18t2.5 17h3z" />
<glyph unicode="j" horiz-adv-x="388" d="M385 501l1 -118q0 -187 -67 -302t-176 -115q-48 0 -112 6q15 119 30 181q7 0 30.5 -2.5t32.5 -2.5q42 0 66 67.5t24 170.5q0 71 -7 117zM367 379q0 46 -10 98h-35q-1 -13 -5.5 -41t-4.5 -30l-13 71h-10q0 -16 -1 -46.5t-1 -45.5l-19 92l-33 3q10 -51 10 -113 q0 -136 -70 -221q-16 -20 -68 -20q-4 0 -13 1t-14 1q0 -5 -1.5 -12.5t-1.5 -9.5q0 -13 43 -13q2 0 10.5 0.5t12.5 0.5q-24 -14 -69 -14q-1 -2 -5 -30q36 -14 86 -14q-14 -9 -91 -11q0 -16 -5 -25q61 -7 82 -7q101 0 163.5 104.5t62.5 281.5zM266 125q0 -23 -28.5 -46 t-48.5 -23q60 46 72 78q5 -5 5 -9zM228 153q0 -18 -21.5 -34.5t-47.5 -16.5q27 16 39.5 29.5t22.5 32.5q7 -5 7 -11z" />
<glyph unicode="k" horiz-adv-x="437" d="M338 476l137 -99l-177 -172l114 -198l-147 -91l-53 118l-9 -69l-163 -14l7 154l-38 32l43 58l19 281l158 7l6 -130zM212 460l-39 -2l-16 -80l-4 75h-33l-13 -70l-5 70h-17l-24 -473l19 4l12 71l7 -73l16 2l15 81q8 -81 20 -81t33 5q0 153 29 471zM428 380q-41 59 -80 73 q-66 -56 -103.5 -131t-37.5 -156q0 -20 4 -33q122 134 217 247zM357 -2l28 15l-105 174l-69 -97l62 -139l30 15l-31 61l49 -53l22 15l-40 77zM357 376l36 24q-3 -12 -12 -21t-15.5 -12.5t-25 -10t-25.5 -9.5q3 12 22.5 37t31.5 32l1 -4q0 -3 -13 -36zM27 146l19 -8l-2 24z M134 192l7 -10l-7 -8l-5 8z" />
<glyph unicode="l" horiz-adv-x="414" d="M387 175l25 -141l-196 -14l-3 -35l-154 -10l-2 14l-50 -11l-5 161l61 7l17 334l158 -5l-14 -318zM192 11l23 438q-5 0 -15.5 0.5t-17.5 0.5q-4 -28 -16 -73h-3l-6 75h-12l-15 -67h-5v69q-2 0 -9 0.5t-11 0.5l-23 -454l4 1h7l11 65h3l15 -62l36 3l11 55h3l10 -53 q2 0 5 0.5t5 0.5zM219 42l174 10l-10 33q-56 4 -80 4v4l73 14q-3 7 -3 11l-52 4v3l50 16q0 2 -0.5 5t-0.5 4l-146 -17q-2 -16 -2.5 -45.5t-2.5 -45.5zM59 16l2 106q-6 0 -20 -2.5t-21 -3.5v-16l34 -3l-32 -17q0 -9 3.5 -13t15 -6t13.5 -3l-30 -15q0 -6 0.5 -18t0.5 -19h24 q2 0 4 2t3.5 4.5t2.5 3.5zM140 89l10 -10l-10 -12l-10 12z" />
<glyph unicode="m" horiz-adv-x="821" d="M624 449l196 -392l-129 -89l-143 271q-21 -40 -130 -246l-27 33q-4 -3 -27 -18t-34 -23l-84 180h-2q0 1 -1 1q-6 -30 -22 -101.5t-24 -111.5l-158 45l132 479l151 -69l-7 -25l54 -107l42 63q5 8 19.5 29.5t22.5 33.5l18 -16q0 4 3 11zM759 40l33 24q-64 135 -178 357 q-10 0 -32 -9l17 -55h-5l-30 46l-8 -2h2l-6 -3l13 -47l-4 -1l-25 46l-32 -15q17 -33 81 -158t115 -223q10 8 12 8q-12 22 -28 63l4 1l38 -52l14 7q-3 10 -7.5 31t-7.5 31h4zM164 -20l134 414q-3 1 -11 3t-13 4q-7 -8 -18.5 -24t-16.5 -23l-3 2l20 61q-4 0 -10 2t-11 3 q-20 -63 -21 -67l-22 88q-18 -65 -56 -193.5t-56 -192.5l-15 -41q3 0 8.5 -1t8.5 -1q5 13 19 39.5t19 36.5h3l-14 -83q6 -5 16 -7q4 12 14.5 35.5t15.5 35.5l3 -2l-3 -84q6 -2 9 -5zM403 61l24 15l-122 280q-16 -41 -20 -60q5 -14 17.5 -43.5t16.5 -41.5l-2 -3l-41 42 q-1 -2 -2 -9t-3 -12l19 -45l-1 -2l-27 26l-13 -17q11 -22 42 -82t47 -93q2 1 7.5 5.5t7.5 5.5q-4 9 -11 28t-11 29l4 3l40 -47q2 7 9 8l-16 54l3 2zM446 98l75 164q-3 13 -22 64l-23 -5l4 29l-29 -40l-4 1l8 46l-70 -113l16 -37q6 7 24 30t28 34l4 -1l-49 -83zM123 155 l49 152h3q-6 -102 -49 -154zM173 221l35 53l4 -1l-46 -139l-3 1zM479 241l9 -9l-53 -57l-4 1zM231 334v-3q-5 -8 -10 -8q-4 0 -13 9q6 11 13 11q1 0 5 -3t5 -6zM417 28l10 24l-19 -13q6 -10 9 -11zM363 145l9 -7l-9 -8l-9 8zM568 336l8 -7l-8 -8l-8 8z" />
<glyph unicode="n" horiz-adv-x="580" d="M539 139l39 -43l-38 -33q0 -15 0.5 -45t0.5 -44l-155 16l-3 32l-144 140q2 -30 4 -89t3 -81q-18 -4 -37 -4q-6 0 -20.5 2t-24.5 3l-32 5h-24l-32 296q-1 1 -56 53l47 53q0 7 2 34t2 41l158 5l8 -87l144 -146q2 41 4 116.5t3 104.5l161 -15zM518 7l6 412l-48 16 q0 -15 -0.5 -41.5t-0.5 -40.5h-4l-13 71l-14 -60h-3l-11 69q-5 2 -12 3t-12 2q2 -36 2 -107v-206q0 -68 1 -105l3 -1q2 0 2 -1l7 -1q2 9 4 27t3 25h3l15 -55q3 0 9.5 -1.5t9.5 -1.5l4 69h3l18 -69zM189 20h31v187q0 196 -22 243q-2 0 -12 1.5t-15 1.5q-9 -53 -10 -73h-4 l-10 66q-2 0 -3 0.5t-3 0.5q-2 -21 -11 -90h-4l-18 93q-1 -1 -4.5 -1t-4.5 -2q3 -44 15 -194.5t17 -229.5q2 0 5 0.5t4 0.5l10 78h4l9 -66l11 44h4zM238 196l149 -149l-3 166q-23 25 -70.5 74.5t-70.5 74.5v-50q8 -11 24.5 -38t25.5 -39l-4 -3l-48 44q0 -11 5 -21.5t11 -17 t17 -18t15 -16.5v-1l-50 26q0 -6 -0.5 -16.5t-0.5 -15.5zM46 351l26 -25q0 9 -0.5 24t-0.5 22q-24 -20 -25 -21zM184 329q0 -6 -9 -12q-10 5 -10 12q0 6 10 11q9 -4 9 -11zM460 112l9 -10l-9 -9l-9 9zM542 89l11 9l-16 14q4 -18 5 -23z" />
<glyph unicode="o" horiz-adv-x="494" d="M493 257q0 -58 -29.5 -119.5t-78 -102.5t-96.5 -41q-110 0 -183 70.5t-73 176.5q0 105 62.5 172t166.5 67q96 0 163.5 -63t67.5 -160zM466 269q0 89 -47 137t-136 48q-101 0 -159.5 -50.5t-58.5 -141.5q0 -100 69 -173t162 -73q67 0 118.5 82t51.5 171zM365 232 q0 -44 -35 -77t-82 -33q-40 0 -63.5 26.5t-23.5 73.5t30.5 76t79.5 29q43 0 68.5 -25.5t25.5 -69.5zM337 224q0 34 -22.5 58.5t-53.5 24.5q-27 0 -49.5 -29.5t-22.5 -58.5q0 -27 13 -47.5t42 -20.5q41 0 67 20t26 53zM417 324l-4 -1q-12 28 -28 42t-82 51q42 0 78 -28 t36 -64zM139 118l-4 -2q-44 36 -44 100q0 10 2 30h5q13 -84 41 -128zM367 121l2 -1q-4 -18 -26.5 -31t-46.5 -13t-24 18l11 -1q43 0 84 28zM157 133l-32 37q-2 10 -4.5 21.5t-3.5 17t-1 7.5q0 12 9 39q9 -88 32 -122zM373 312l-2 -1q-41 40 -64 49l2 3l8 1q23 0 39.5 -15.5 t16.5 -36.5zM369 85l2 -1q-1 -15 -17.5 -22.5t-38.5 -7.5q-2 0 -8.5 0.5t-9.5 0.5v3q47 9 72 27z" />
<glyph unicode="p" horiz-adv-x="516" d="M513 323q0 -69 -72 -109.5t-181 -40.5q0 -27 1 -81t1 -81l-180 -20q2 34 2 58q0 150 -40 220l36 16q0 6 1 16t1 17q-1 0 -17 1.5t-24 1.5l-21 128l64 9v33h152l5 -24q38 8 66 8q86 0 146 -43.5t60 -108.5zM208 31l29 8q-3 73 -10 215.5t-10 215.5l-68 4q0 -16 -3 -45 t-4 -44h-3l-11 87q-4 0 -11.5 -0.5t-11.5 -0.5q0 -55 -1 -146.5t-1.5 -167.5t-0.5 -147q22 2 32 5l19 95h4l10 -88l15 3q2 13 3 38.5t3 38.5h3zM480 330q0 55 -49 85.5t-137 30.5q-16 0 -42 -2q1 -2 1 -6v-9q37 3 45 5v-4l-46 -22v-7l45 -5v-3l-44 -13v-20q6 0 18 1t18 1 q64 0 64 -39q0 -28 -18 -43.5t-48 -15.5q-19 0 -30 4q0 -10 -0.5 -30.5t-0.5 -31.5q14 -3 42 -3q84 0 133 33t49 94zM287 296q35 0 50 30q-24 19 -56 19q-18 0 -29 -8q0 -5 0.5 -18t0.5 -17q23 -6 34 -6zM55 346l26 -3v94l-40 -4zM444 337q0 -8 -9 -38q-11 49 -33 98 q42 -24 42 -60zM405 339q0 -10 -5 -25q-5 15 -9 26.5t-6.5 18.5t-7 13.5t-6 8.5t-7 8.5t-7.5 8.5l2 3q21 -7 33.5 -24t12.5 -38zM163 220q0 -8 -9 -8q-6 2 -6 9q0 8 7 8q8 -1 8 -9zM71 260l8 -21v21h-8z" />
<glyph unicode="q" horiz-adv-x="439" d="M357 155l81 -117l-101 -95l-75 121q-50 -24 -92 -24q-75 0 -117 47.5t-42 131.5q0 105 59.5 191t141.5 86q71 0 123 -69t52 -156q0 -63 -30 -116zM361 268q0 82 -41.5 145t-102.5 63q-72 0 -122.5 -80t-50.5 -172q0 -71 33 -117t90 -46q26 0 74 16q-10 12 -11 16 q-11 -11 -26 -11q-9 0 -24 6l1 3q16 0 44 17q-1 2 -4 7l-1 2q-19 -13 -42 -13q-26 0 -38 29q22 -12 40 -12q24 0 32 12q-3 2 -7 6.5t-6 6.5q-1 -1 -10 -1h-9q-78 0 -78 72q0 47 31.5 84.5t72.5 37.5q36 0 56 -27l24 -52q2 6 10 38q4 -6 7 -34.5t12 -41.5q15 30 15 71 q0 16 -4 31l4 2q15 -26 15 -54q0 -2 -18 -69l16 -24q18 37 18 89zM397 17l15 17q-72 105 -146 209q-14 -7 -19 -8q10 -26 18 -41l-2 -3q-2 0 -36 34l-8 -4q7 -20 12 -29l-1 -2l-32 23q0 -4 -6 -4q26 -42 77 -119t75 -115l11 10q-2 10 -9.5 31.5t-10.5 31.5h4l32 -45 q-1 6 -4.5 27.5t-4.5 33.5l2 1zM162 217l95 47q-5 48 -48 48q-33 0 -61 -26t-28 -57q0 -25 14.5 -46t32.5 -21q14 0 25 8q-1 2 -6.5 10t-12 17.5t-11.5 19.5zM217 420h-14q-43 0 -78 -28q2 43 55 43q32 0 37 -15zM189 387l-27 -15q-12 -8 -20 -20l-3 1q3 38 50 38v-4z M264 174l15 -10l-9 -9l-15 10z" />
<glyph unicode="r" horiz-adv-x="475" d="M526 -22l-116 -90l-189 196l-5 -87l-169 -11l18 152l-45 131l60 13l11 75l-74 -4l-1 146q37 1 85 12l6 33l151 -4v-22q79 -2 128 -54t49 -132q0 -112 -80 -146q55 -70 171 -208zM194 16l35 502h-20l-18 -104l3 103l-24 3l-17 -90l-11 93l-16 2l-54 -518l26 3l16 90l2 -85 h24l13 69l5 -61zM410 342q0 65 -42 108t-106 43l-9 -1l-5 -94q82 0 82 -60q0 -43 -91 -72l-2 -18q77 6 89 26q2 -2 2 -4q0 -24 -91 -41l-1 -15q70 5 99 21q-8 -24 -103 -36q5 -1 5 -8q0 -3 -4 -10l33 -1q63 0 103.5 48t40.5 114zM474 -31l17 12q-92 123 -154 190l-44 -7 q-25 -4 -64 -7l-1 -42l189 -194l19 15l-26 41l39 -32l13 12l-29 28zM98 493l-62 -6l-2 -41l46 -11l-46 -11l1 -16h44l-44 -19v-18l58 5q5 61 5 117zM302 337q0 34 -54 34l-11 -75q65 2 65 41zM71 175l4 91l-32 -8zM158 248l13 -10l-8 -8l-10 10zM175 427l6 -6l-6 -8l-9 8z " />
<glyph unicode="s" horiz-adv-x="348" d="M368 429v-2q-31 -42 -70 -116q-48 8 -64 8q-36 0 -36 -34q0 -9 4.5 -16.5t15.5 -14.5t21 -12t30.5 -14t34.5 -16q38 -18 38 -64q0 -82 -47.5 -130.5t-129.5 -48.5q-75 0 -146 42q6 15 21.5 45.5t29 55t14.5 27.5q21 -2 64 -29q10 0 18 12q-5 10 -42.5 36.5t-44.5 33.5 q-27 32 -27 88q0 79 66 139.5t147 60.5q69 0 103 -51zM325 402q3 4 5 8t4 9.5t4 9.5q-35 29 -81 29q-71 0 -124.5 -54t-53.5 -124q0 -51 29 -86q6 -8 28 -22.5t40 -27t18 -18.5q0 -10 -17.5 -25.5t-28.5 -15.5q-25 0 -51 20q-6 -6 -7 -12q8 -11 49 -43q-52 10 -62 21 l-10 -19q14 -17 63 -37q-15 1 -73 20q-5 -5 -6 -9q43 -26 105 -26q58 0 111 45.5t53 96.5q0 33 -20.5 47.5t-84.5 38.5q-41 15 -41 49q0 36 15 51.5t51 15.5q25 0 47 -10q5 12 5 14q0 12 -35 37q12 0 46 -23q5 12 11 18q-1 6 -38 32h5q26 0 44 -10zM271 130q0 -34 -34 -59 q19 31 19 60q0 35 -22 55q37 -17 37 -56zM234 142q0 -23 -10.5 -42t-29.5 -23q27 25 27 53q0 21 -20 41q18 0 25.5 -7t7.5 -22zM153 348q-9 -32 -13 -102q-10 17 -10 43q0 47 23 59zM125 353q-18 -35 -20 -109q-7 20 -7 41q0 59 27 68z" />
<glyph unicode="t" horiz-adv-x="346" d="M330 459l13 -156l-109 -9v-328h-127v316l-89 -12l7 151zM43 296l274 25q0 15 -3 22.5t-6 9.5t-14.5 4t-17.5 4v3l40 7v14q-8 0 -33 2t-39 2v5l71 15q0 4 -0.5 14.5t-0.5 14.5q-46 -5 -136 -17t-136 -17v-47l74 15l1 -3l-71 -32l46 -5l1 -3l-52 -14q0 -4 1 -9.5t1 -9.5z M193 -11h22l-5 291q-5 0 -15 0.5t-16 0.5q-3 -13 -5 -40h-4l-7 39q-1 -1 -5 -1l-5 -55h-3l-7 52q-3 0 -9.5 1t-8.5 1v-291q17 0 23 74h4l11 -74q2 0 5 -0.5t5 -0.5l8 74h3zM168 381l9 -9l-9 -9l-9 9z" />
<glyph unicode="u" horiz-adv-x="478" d="M477 449l-2 -7q-10 -98 -10 -139v-63q-32 -286 -228 -286q-111 0 -161.5 63t-50.5 212l2 39q2 39 2 80v95q0 10 -1 11l157 15q3 -45 3 -53q0 -15 -3 -83t-3 -83q0 -116 55 -116q40 0 58 78t18 247v17l158 15q6 -40 6 -42zM448 417q0 21 -2 51h-12l-19 -77q-1 -12 -3 -15 h-4l1 87q-1 -1 -8 -1q-5 0 -5 1q-10 -17 -20 -68h-3q-5 24 -5 58v10q-20 -2 -30 -5q3 -33 3 -69q0 -285 -104 -285q-82 0 -82 159q0 13 3 77t3 78v20q0 11 -10 11q-4 0 -34 -6l-4 -93h-3l-18 86q-3 0 -7.5 -0.5t-7.5 -0.5q1 -46 7 -89h-4l-18 88l-3 -4l-1 -22q-2 -26 -2 -44 v-11q0 -10 -1 -23.5t-1 -18.5v-35q0 -153 38.5 -221.5t117.5 -68.5q101 0 146.5 38t66.5 132q25 141 25 261zM291 56l2 -4q-24 -16 -57 -16q-31 0 -43 21q23 -9 48 -9q31 0 50 8zM281 82l1 -3q-18 -15 -50 -15q-29 0 -41 16q11 -4 32 -4q2 0 58 6z" />
<glyph unicode="v" horiz-adv-x="452" d="M323 502l129 -51q-26 -60 -163 -335l32 -99l-137 -61l-9 42l-68 19l19 67l-126 374l125 65q44 -102 99 -252zM299 33q-121 289 -187 461l-12 -7l7 -73l-35 57q7 -27 8 -75l-37 69l-18 -5l85 -238q21 -58 96 -233l11 5l-23 57l34 -51l25 11q-18 21 -23 47q22 -24 47 -34 q10 0 22 9zM285 141l127 285l-7 10l-29 -28l3 31l-9 10l-35 -37l18 49l-21 15l-93 -236zM134 35l37 -12l-23 48zM343 357q0 -11 -9 -11q-11 6 -11 11q0 12 11 12q9 -4 9 -12zM116 365q0 -10 -8 -10q-8 1 -8 10q0 11 8 11q8 -5 8 -11zM217 94q0 -7 -6 -7q-8 1 -8 7q0 10 8 10 q6 -3 6 -10z" />
<glyph unicode="w" horiz-adv-x="794" d="M208 -46l-197 392l130 89l144 -270q21 41 64 123t64 123l29 -35q4 3 26 18.5t33 23.5l84 -179q2 0 3 -1h2q39 178 45 212l157 -45l-131 -479l-151 71l7 23l-55 108q-15 -23 -44 -67t-39 -59l-17 14l-3 -9zM73 363l-34 -24q59 -120 180 -357l30 10q-15 51 -16 54l4 1 l31 -46q2 0 3 1h1h2q0 1 2 1q3 0 4 2q-4 20 -12 47l3 2l25 -47q5 3 15.5 7.5t15.5 7.5q-20 43 -196 381l-10 -8l27 -61l-5 -3l-39 52q-7 -7 -12 -7q3 -10 7.5 -30.5t7.5 -30.5l-3 -1zM667 424l-134 -415q4 -1 11.5 -3t13.5 -4q27 38 34 47l3 -1l-19 -61q4 -2 11 -3.5 t11 -2.5q3 11 10.5 34.5t9.5 32.5l22 -87q19 67 56.5 196.5t54.5 189.5q2 4 6.5 17t9.5 24q-2 0 -8 0.5t-9 0.5q-5 -12 -37 -76h-4l14 84q-3 1 -8 3t-8 3l-30 -69l-3 1l2 83q0 1 -1.5 2t-3.5 1.5t-4 2.5zM430 342l-25 -15l121 -279q13 32 22 59l-36 87l3 1l41 -42 q2 4 3 10.5t2 10.5l-19 46l2 1l28 -26l11 17q-50 103 -89 176l-15 -12q4 -9 10.5 -28.5t10.5 -29.5l-4 -1l-38 45q-8 -2 -9 -7l14 -54l-3 -2zM385 306l-74 -164q4 -11 10 -31.5t10 -31.5l24 3l-4 -30q10 16 29 41h5l-9 -49l70 117l-15 36q-14 -17 -51 -65l-4 2l48 82z M709 248l-49 -152h-3q4 100 49 154zM659 182l-36 -52h-4l47 138l3 -2zM352 162l-8 9l53 58l3 -2zM601 71v1q3 8 10 8q5 0 12 -9q-7 -10 -12 -10q-7 0 -10 10zM468 258l-9 8l9 8l9 -8zM416 375l-12 -23l18 12q0 2 -2.5 5.5t-3.5 5.5zM264 66l-8 9l8 7l8 -7z" />
<glyph unicode="x" horiz-adv-x="465" d="M359 446l104 -125l-139 -159q12 -23 34.5 -68l30.5 -61l-108 -60l-53 78q-47 -78 -53 -86l-141 90l101 139q-12 20 -33 56t-38.5 65.5t-33.5 55.5l141 78l70 -135q23 24 65 72t53 60zM347 36l10 7l-198 375l-34 -16l32 -76h-3l-53 59q-2 -2 -5.5 -4t-5.5 -3 q5 -11 15.5 -33.5t15.5 -33.5l-4 -2l-46 61q-2 -1 -7.5 -3t-8.5 -4l240 -366q2 1 14 10l-32 59l3 2l46 -49l5 6l-42 84l5 3zM312 186l114 135q-3 4 -9 11.5t-9 11.5q-44 -34 -64 -53l-4 3l52 68l-12 11l-53 -54l-3 2l43 71l-12 13q-35 -41 -105 -112q12 -19 62 -107zM165 -2 l47 75q-11 16 -31.5 48t-31.5 48l-83 -104q3 -3 10.5 -8.5t10.5 -8.5l37 35l1 -2l-17 -40l15 -11q4 4 13 16t14 17l3 -2l-12 -46zM230 202l9 -8l-9 -10l-9 10z" />
<glyph unicode="y" horiz-adv-x="455" d="M303 462l151 -82l-251 -443l-135 83l71 137q-25 28 -75 85.5t-75 85.5l112 132l127 -141q4 7 32.5 60.5t42.5 82.5zM195 -27l233 398q-3 2 -9.5 4t-8.5 3q-7 -11 -25 -32.5t-25 -32.5l-4 2l33 72l-13 7q-52 -61 -55 -64l-4 1l36 81q-6 2 -18 8.5t-20 9.5 q-38 -73 -108.5 -204t-104.5 -194q7 -7 12 -8l57 78l3 -1l-44 -90q4 -4 7 -5q7 8 23.5 25.5t23.5 26.5l4 -1l-34 -64q7 -4 20.5 -10t20.5 -10zM216 297l-112 120q-4 -6 -13 -15q46 -73 47 -75l-4 -1l-59 58l-11 -13l57 -73l-4 -2l-69 56q-16 -22 -18 -25q21 -27 62 -75.5 t58 -68.5q43 75 66 114zM239 199l9 -9l-9 -9l-9 9z" />
<glyph unicode="z" horiz-adv-x="516" d="M348 443l44 40l32 -39q13 0 45.5 0.5t43.5 0.5l-15 -156l-32 -2q-50 -50 -140 -144q30 2 88.5 4t80.5 3q4 -9 4 -32q0 -7 -4.5 -46.5t-4.5 -51.5v-7l-296 -32q-11 -10 -31 -31t-24 -25l-51 47l-75 3l-6 157l87 9l146 145q-29 1 -104.5 3t-116.5 4l15 160zM480 421l-413 6 l-15 -47q15 0 41.5 -0.5t40.5 -0.5v-3l-73 -15q10 -2 31 -6t31 -7v-3l-68 -10q-2 -5 -3.5 -12.5t-2.5 -11.5q36 1 106 1h206q2 0 19 -0.5t29 -0.5q59 0 59 8l2 7q-9 2 -26 3t-26 3v4l56 15q2 16 2 17q-11 1 -34 2t-34 3v4l68 17zM467 92v32h-153q-238 0 -276 -22 q-4 -20 -4 -27q3 0 31 -4.5t42 -5.5v-4l-66 -11q0 -2 -1 -2v-2q78 -10 90 -12v-3l-92 -18q1 -2 1 -5.5t1 -4.5q296 24 425 32q0 3 -1 5.5t-1 3.5l-78 11v3l66 9q-8 3 -23 7t-20 5v3zM291 142l150 149l-167 -3q-29 -27 -80.5 -76t-68.5 -65q8 0 24.5 -0.5t25.5 -0.5 q12 9 39 26t39 25l2 -3l-43 -48h20q9 8 26 24.5t25 23.5h3l-28 -51q6 0 17 -0.5t16 -0.5zM137 -50l25 26q-9 0 -24.5 -0.5t-22.5 -0.5zM158 89q6 0 13 -10q-8 -10 -13 -10q-6 0 -11 10q5 10 11 10zM376 363l9 9l9 -9l-9 -9zM398 445l-9 13q-2 -2 -6 -8t-7 -9q4 0 10.5 1.5 t11.5 2.5z" />
<glyph unicode="{" horiz-adv-x="467" d="M441 541q-10 -3 -34 -7.5t-41.5 -9t-36.5 -13t-29.5 -24.5t-10.5 -38q0 -15 4.5 -51t4.5 -54q0 -28 -15 -49q44 -30 44 -75q0 -21 -11.5 -64t-11.5 -60q0 -14 5 -26.5t16.5 -22t20.5 -16t27.5 -13t25.5 -9t27 -7.5l20 -5l-48 -152q-113 10 -153 26q-87 34 -87 131 q0 17 1 28q1 5 16.5 43t15.5 64q0 68 -103 82l2 14q-3 0 -24 3l-6 124q113 2 113 81q0 23 -10 57t-10 42q0 159 175 159q11 0 38.5 -1t43.5 -1zM261 449q0 31 13.5 53t38.5 34t44.5 17.5t48.5 10.5l-4 21q-16 2 -83 2l78 19l-3 18l-125 4l119 24l-2 16q-12 0 -31 1.5 t-27 1.5q-147 0 -147 -131q0 -16 10.5 -48t10.5 -51q0 -96 -112 -109v-9l48 7l-47 -20l1 -20l64 14l-63 -27l1 -15h8q69 0 118.5 18.5t49.5 63.5q0 13 -4.5 49t-4.5 56zM378 -124l3 12l-53 39l59 -19l8 26l-69 46l76 -22l7 20q-26 7 -45 14t-41 20.5t-34 34.5t-12 49 q0 18 10.5 59.5t10.5 64.5q0 34 -34 53q-40 -32 -118 -37q75 -28 75 -97q0 -33 -17 -79.5t-17 -50.5q0 -68 50.5 -100.5t140.5 -32.5z" />
<glyph unicode="|" horiz-adv-x="332" d="M112 696l136 -15v-810l-159 -18zM212 -97l5 1v52q0 30 -0.5 139.5t-0.5 187.5v381q-2 -1 -9 -1q-6 0 -10.5 -8.5t-9 -25.5t-4.5 -18l-3 2l-7 47q-1 0 -3.5 0.5t-4.5 0.5l-9 -54h-3l-14 58h-4q-1 -63 -7 -390.5t-7 -390.5l15 5t20 5q0 12 3 37t4 37h3l16 -68q9 0 12.5 6 t4 18.5t1.5 16.5h4z" />
<glyph unicode="}" horiz-adv-x="467" d="M80 -112l3 -12q90 0 140.5 32.5t50.5 100.5q0 4 -17 50.5t-17 79.5q0 69 75 97q-77 5 -118 37q-34 -19 -34 -53q0 -23 10.5 -64.5t10.5 -59.5q0 -28 -12 -49t-34 -34.5t-41 -20.5t-45 -14l7 -20l76 22l-69 -46l8 -26l59 19zM200 449q0 -20 -4.5 -56t-4.5 -49 q0 -45 49.5 -63.5t118.5 -18.5h8l1 15l-63 27l64 -14l1 20l-47 20l48 -7v9q-111 13 -111 109q0 19 10 51t10 48q0 131 -147 131q-8 0 -27 -1.5t-31 -1.5l-2 -16l119 -24l-125 -4l-3 -18l78 -19q-67 0 -83 -2l-4 -21q29 -5 48.5 -10.5t44.5 -17.5t38.5 -34t13.5 -53zM20 541 l31 156q16 0 43.5 1t38.5 1q176 0 176 -159q0 -8 -10.5 -42t-10.5 -57q0 -79 113 -81l-6 -124q-21 -3 -24 -3l2 -14q-103 -15 -103 -82q0 -26 15.5 -64t16.5 -43q1 -11 1 -28q0 -39 -14.5 -67.5t-33.5 -43.5t-54 -25t-59 -13t-67 -7q-8 -1 -12 -1l-48 152l20 5q20 5 27 7.5 t25.5 9t27.5 13t20.5 16t16.5 22t5 26.5q0 17 -11.5 60t-11.5 64q0 43 44 75q-15 23 -15 49q0 18 4.5 54t4.5 51q0 22 -10.5 38t-29.5 24.5t-36.5 13t-41.5 9t-34 7.5z" />
<glyph unicode="~" horiz-adv-x="658" d="M146 143l-124 100q55 107 87 142.5t87 35.5q44 0 91 -21.5t87.5 -42.5t67.5 -21q48 0 85 73l108 -63q-42 -81 -80 -124t-81 -43q-32 0 -109.5 32t-99.5 32q-23 0 -44 -15.5t-46.5 -48.5t-28.5 -36zM265 272q33 0 107 -32t100 -32q34 0 66 34.5t57 83.5l4 8l-13 6l-53 -42 l42 50l-17 11l-40 -32l28 38l-7 5q-46 -64 -96 -64q-38 0 -118.5 43t-125.5 43q-44 0 -73.5 -31t-67.5 -111l14 -9l76 95l-55 -113l15 -11l53 61q-30 -57 -37 -75l17 -14q67 88 124 88z" />
<glyph unicode="&#xa1;" horiz-adv-x="303" d="M71 -17l-4 409l170 8l39 -384zM96 361h-8v-338l27 -3l14 103l14 -95l19 -2l9 105l23 -98l54 10l-36 327h-43l-8 -100l-21 95l-16 -3l6 -96zM58 511q0 45 25 74.5t67 29.5t67.5 -29.5t25.5 -74.5t-25 -74t-68 -29t-67.5 29t-24.5 74zM89 504q0 -27 23 -44.5t54 -17.5 q29 0 41 14.5t12 53.5q0 19 -16 40q0 -28 -15 -43q-4 6 -4 12q0 5 2.5 15.5t2.5 14.5l-2 13l-31 -53l7 61q-12 12 -24 12q-17 0 -33.5 -26.5t-16.5 -51.5z" />
<glyph unicode="&#xa2;" horiz-adv-x="457" d="M416 114q0 -54 -121 -79v-78l-155 -14l3 106q-55 26 -86 82.5t-31 131.5q0 82 36 146.5t96 89.5l4 111l133 -12v-99q22 -9 55 -25q-19 -55 -19 -124q-28 15 -36 18v-204q20 13 36 47q18 -16 51.5 -53.5t33.5 -43.5zM387 105l-3 1l-2 -2q-2 -1 -7 -3t-10.5 -4.5 t-12.5 -5.5t-13 -6t-12 -5.5t-10 -4.5q15 12 36 50q-11 -4 -24 -9.5t-21 -8.5t-15 -3l-19 1q22 7 39.5 26t17.5 38v2q-31 -37 -62 -37q-40 0 -69.5 48.5t-29.5 104.5q0 51 25 79t73 28q22 0 44 -7q-6 3 -32.5 24t-38.5 26q3 0 6.5 0.5t5.5 0.5l2 1q9 0 34 -9t29 -10 q-28 26 -55 46q2 1 6 1h4q5 0 24 -4.5t23 -4.5t6 1q-52 37 -101 37q-71 0 -119.5 -71t-48.5 -163q0 -97 56.5 -154.5t151.5 -57.5q31 0 68.5 16.5t53.5 38.5zM265 156q0 7 -0.5 72.5t-0.5 147.5h-8q-60 0 -60 -81q0 -45 19.5 -89.5t49.5 -49.5zM186 586l-4 -79q26 4 40 4 q12 0 42 -4v78q-2 -1 -9 -1t-11 -6.5t-7 -18.5t-5 -15h-3l-7 38q-1 0 -3.5 0.5t-4.5 0.5l-9 -43h-3l-13 46h-3zM205 -25q1 16 7 55q-24 3 -39 8q-2 -56 -2 -71q31 8 34 8zM260 -17h5v47q-9 -2 -26 -2q-16 0 -23 2l15 -49h10q2 6 4 17t3 15h4zM171 118l-4 -1q-17 0 -35 24 t-18 45l2 12q21 -55 55 -80zM188 139q-1 -1 -7 -1q-14 0 -26.5 20t-12.5 38q0 10 3 18q14 -38 22.5 -53t20.5 -22zM212 91q0 9 10 9q11 0 11 -9t-11 -9q-10 0 -10 9zM196 439q0 10 9 10t9 -10q0 -3 -3 -6t-6 -3q-9 0 -9 9z" />
<glyph unicode="&#xa3;" horiz-adv-x="605" d="M49 338l77 -1q37 142 107.5 215.5t169.5 73.5q11 0 67.5 -3t71.5 -3q-12 -114 -38 -223q-38 8 -61 8q-78 0 -92 -69h96l-21 -121h-107l-4 -42q172 0 280 7l-15 -175q-99 -13 -261 -20l3 -23h-220v20q-58 2 -88 2l5 200q36 -3 83 -5l3 36h-18zM554 23l-123 24h122l4 99 q-213 -3 -220 -3q-163 0 -290 7l-3 -89l78 -14l-84 -11l72 -8l-71 -20h18q23 0 76 -1.5t57 -1.5q142 0 364 18zM175 413q-14 -35 -25 -76l172 -1q22 93 120 93q10 0 42 -4q1 7 2.5 17t1.5 12q0 16 -53 16h-24q36 15 64 15q2 0 8 -0.5t9 -0.5q0 10 7 41q-42 18 -99 18 q15 7 106 9q0 20 6 37q-74 6 -128 6q-139 0 -209 -182zM412 296l4 22q-274 0 -339 -3l8 -21h137q-49 -11 -133 -11l4 -14l76 -6l-72 -5l3 -23h305l1 20l-84 14l87 2l-3 11l-110 9zM281 173q2 29 5 42h-157q0 -4 -2 -17t-2 -20q52 -3 156 -5zM253 430q0 24 31.5 54.5 t55.5 30.5q-66 -54 -84 -95q-3 6 -3 10zM301 395q0 19 26 40.5t45 21.5h5q-44 -36 -54.5 -46.5t-17.5 -26.5q-4 4 -4 11zM186 84q0 7 5.5 12t12.5 5t12.5 -5t5.5 -12q0 -16 -18 -16t-18 16zM244 274q0 14 10 14t10 -14q0 -12 -10 -12t-10 12z" />
<glyph unicode="&#xa4;" horiz-adv-x="627" d="M36 381l137 146l80 -50q25 7 57 7q50 0 96 -22l97 74l89 -152l-80 -74q0 -3 1 -7.5t1.5 -8.5t0.5 -8l82 -62l-127 -181l-48 46q-45 -38 -87 -38q-69 0 -127 34l-65 -46l-111 166l75 48v18q0 31 5 52zM485 295q0 78 -40.5 120.5t-115.5 42.5q-87 0 -138 -45t-51 -125 q0 -87 59.5 -151t139.5 -64q58 0 102 71t44 151zM400 263q0 -38 -31 -68t-71 -30q-35 0 -55.5 23.5t-20.5 65.5q0 41 27 66t69 25q38 0 60 -22.5t22 -59.5zM375 255q0 30 -19.5 52t-46.5 22q-22 0 -42 -27t-20 -52q0 -9 1 -13l51 -46q34 2 55 19t21 45zM494 476l-53 -37 q37 -26 57 -72l50 34zM74 192l49 -72l31 13q-31 38 -41 86zM535 170l26 43l-51 31q-4 -25 -18 -57zM165 494l-34 -33l38 -31q20 20 45 32zM116 443l-19 -22l38 -35q14 24 23 34zM204 163l-2 -2q-39 29 -39 87q0 8 2 26h4q10 -72 35 -111zM441 343q-10 24 -25 36.5t-71 44.5 q37 0 66.5 -24.5t29.5 -56.5zM400 164h2q-4 -16 -23.5 -27.5t-39.5 -11.5t-20 16l10 -1q37 0 71 24zM220 175q-14 10 -23 28t-11 29t-2 16q0 15 8 34q7 -70 28 -107zM404 331q-38 36 -54 47h6q20 0 34 -12.5t14 -31.5v-3zM561 384l-59 -28l6 -17zM402 133l2 -1 q-1 -13 -15.5 -19.5t-32.5 -6.5q-2 0 -8 0.5t-8 0.5v2q39 9 62 24zM121 353l7 17l-56 25zM296 278q0 11 9 11t9 -11q0 -12 -9 -12t-9 12zM189 99l-11 9l-28 -35zM466 87l-12 37q-2 -3 -6 -8.5t-6 -7.5zM498 143l-15 24q-2 -3 -5 -9t-4 -7zM170 116l-7 7l-31 -29z" />
<glyph unicode="&#xa5;" horiz-adv-x="452" d="M435 344l2 -124l-94 -8l3 -10l-28 -13v-20h117v-106h-117v-74l-169 -22v85l-98 5v105h102l2 33l-22 7l6 23h-83v123l78 -4l-109 297l126 66l98 -252l99 230l118 -65l-128 -276h97zM326 216q-31 73 -188 463l-13 -7l8 -73l-35 57l7 -75l-36 68l-19 -5l85 -238 q30 -83 96 -233l13 6q-3 4 -25 56l34 -51l25 12q-19 20 -23 47q21 -25 48 -36q9 0 23 9zM310 326l128 284l-12 6l-48 -74l26 81l-9 9l-34 -37l18 49l-22 16l-93 -235zM282 22l11 2v152l-84 -37l-9 42l-17 5v-187l39 12l8 91l18 -85l18 2l7 49zM321 83l100 5v65h-100v-70z M346 238l68 3l3 41l-69 12l69 9l-3 23h-79l-14 -37zM139 244l26 38l-26 41l-65 3v-85zM66 72l82 -1l5 71h-82v-14l69 -5l-72 -16zM159 220l37 -13l-23 47z" />
<glyph unicode="&#xa6;" horiz-adv-x="332" d="M123 689l123 -10v-367l-145 -14zM213 336l6 1q0 57 -1 164t-1 164h-8q-9 0 -21 -39l-4 1l-5 36q-2 0 -4.5 0.5t-3.5 0.5l-8 -41h-4l-12 43h-2q-13 -324 -14 -344q3 1 14 3.5t18 3.5q0 8 3 27t3 29h3l15 -51q8 0 10.5 4.5t3.5 13.5t2 12h3zM123 243l123 -11v-366l-145 -14 zM213 -110l6 1q0 56 -1 163.5t-1 164.5h-8q-10 0 -21 -39l-4 1l-5 35q-2 0 -4.5 0.5t-3.5 0.5l-8 -41h-4l-12 44h-2q-13 -324 -14 -344q3 1 14 3.5t18 3.5q0 7 3 26.5t3 29.5h3l15 -52q7 0 10 5t4 14t2 12h3z" />
<glyph unicode="&#xa7;" horiz-adv-x="369" d="M252 -42q-32 -16 -57 -16q-21 0 -38 9q2 42 2 64q0 7 -0.5 23.5t-0.5 25.5q8 5 27.5 12t29 14t9.5 20q0 6 -5 15.5t-11 12.5q-2 0 -12.5 -1.5t-15.5 -1.5q-13 0 -35 4q-3 0 -16 -2.5t-22 -2.5q-40 0 -60 36.5t-20 75.5q0 61 57 107q-8 18 -8 49q0 64 51.5 118t118.5 54 q38 0 66 -25q-19 -43 -39 -105q-11 -2 -38 -4.5t-35.5 -9t-8.5 -25.5q0 -17 16 -23t91 -22q46 -17 46 -82q0 -50 -29 -84l3 -3q20 -34 20 -77q0 -46 -23 -89t-63 -67zM215 557q-50 -11 -86.5 -56.5t-36.5 -96.5q0 -53 43 -93q8 -7 29.5 -15.5t38 -15t16.5 -10.5 q0 -15 -15 -26.5t-25 -11.5q-14 0 -36 11l-8 -16q21 -15 45 -24q-29 0 -50 8l-7 -23q13 -10 47 -16q-35 0 -49 6l-6 -15l11 -2q19 -4 56 -4q54 0 100 38t46 91q0 14 -1.5 24t-7 17t-8.5 11t-15.5 7.5t-18.5 5t-25.5 4.5t-29.5 5q-24 4 -33 15.5t-9 35.5q0 22 17 37t48 15 q16 0 17 -10q6 18 6 19q0 9 -31 21q4 0 36 -13l8 21q-3 12 -35 20q1 0 3 1t4 1q6 0 34 -6l11 27q-32 15 -60 15q-15 0 -23 -2zM266 153q12 -23 12 -37q0 -7 -4 -12q0 15 -14 49q-8 -4 -35 -12q1 0 1 -0.5t1 -0.5q11 -16 11 -34q0 -16 -18 -35t-38 -19q-8 0 -11 6v-20 q7 -11 37 -11q-2 -1 -17 -1q-13 0 -21 1l-1 -21q4 -7 40 -9q-12 -7 -39 -7l-1 -31q5 -1 18 -1q58 0 96.5 46t38.5 108q0 33 -18 69q-6 -6 -17 -14q15 -24 15 -39q0 -2 -0.5 -4t-1 -3.5t-1.5 -3.5t-1 -3q0 25 -13 51q-15 -8 -21 -10zM97 205q-8 16 -8 27q0 12 4 20 q1 -5 2 -14.5t2.5 -16.5t4.5 -13l8 -9l12 32q-2 6 -2 18q0 9 2 19v-14q0 -9 1 -15l7 23q2 -6 20 -13q0 21 14 37q-5 2 -16.5 7t-14.5 6t-10 5t-9 5.5t-6 5t-6.5 7.5t-5.5 9q-49 -42 -49 -102q0 -34 17 -58t43 -24l-8 3q1 13 10 44q-8 5 -12 11zM204 264q-3 2 -26 15l-8 -5 q-8 -3 -8 -14t32 -13q10 6 10 17zM282 288q1 -5 1 -14q0 -16 -11 -29q5 27 5 33q0 25 -25 44q25 -11 30 -34zM252 293q0 -41 -15 -54q10 13 10 31q0 27 -22 39l2 1q19 0 25 -17z" />
<glyph unicode="&#xa8;" horiz-adv-x="362" d="M19 700q0 38 23 64t57 26q26 0 47 -15.5t32 -40.5q7 29 28 47t50 18q34 0 58.5 -25t24.5 -61q0 -37 -24 -62t-59 -25q-27 0 -48 14.5t-28 40.5q-7 -28 -29.5 -46t-51.5 -18q-34 0 -57 23.5t-23 59.5zM196 712q0 -26 17.5 -43t42.5 -17t43.5 18t18.5 44t-18.5 43t-43.5 17 t-42.5 -18t-17.5 -44zM40 701q0 -24 17.5 -41t41.5 -17q27 0 45 17t18 44t-18 44t-45 17q-24 0 -41.5 -18.5t-17.5 -45.5z" />
<glyph unicode="&#xa9;" horiz-adv-x="630" d="M602 321q0 -72 -37 -148.5t-97 -127t-120 -50.5q-133 0 -225 89t-92 218q0 128 79 212t204 84q123 0 205.5 -78t82.5 -199zM572 336q0 111 -60.5 173.5t-169.5 62.5q-125 0 -200.5 -65t-75.5 -180q0 -122 86 -215.5t205 -93.5q57 0 107.5 48t79 121.5t28.5 148.5z M453 437q46 -49 46 -134t-52 -151.5t-153 -66.5q-58 0 -107 57t-49 141q0 105 78 167q41 56 98 56q44 0 94 -32v-2q20 -8 45 -35zM394 132q21 11 32 27l-22 -11q-4 -4 -11 -7.5t-12 -5t-6 -1.5l-2 3q14 6 30 38q-21 -14 -44 -14q-1 0 -4 1h-3l-1 2q14 7 26.5 22t13.5 28 q-19 -27 -43 -27q-29 0 -50.5 40.5t-21.5 89.5q0 91 71 91q16 0 26 -5q-37 33 -49 40h6q10 0 28 -6.5t20 -6.5q-30 31 -39 37h7q7 0 16.5 -1.5t15.5 -3.5l7 -2q-38 30 -68 30q-50 0 -84 -60t-34 -135q0 -80 39 -128.5t107 -48.5q21 0 49 14zM477 287q0 94 -79 152 q-4 -28 -4 -74q-37 23 -56 23q-41 0 -41 -66q0 -35 17 -75t34 -40q24 0 41 47q27 -27 54 -65q34 40 34 98zM162 274q0 -80 63 -143l12 -1q-29 23 -46 68t-17 98q0 28 6 59q-18 -36 -18 -81zM280 173l-4 -2q-12 0 -26.5 21t-14.5 38l3 13l2 1q20 -55 40 -71zM290 194v-4 q-1 -1 -5 -1q-10 0 -19.5 16.5t-9.5 33.5q0 11 6 18q12 -39 15.5 -47.5t12.5 -15.5z" />
<glyph unicode="&#xaa;" horiz-adv-x="424" d="M411 175l-14 -9q-2 0 -7 1.5t-6 1.5q-14 -1 -39.5 -13.5t-35.5 -21.5l-10 -9q0 27 -22 66q-59 -10 -101 -10l-4 -10q-5 -14 -23 -58q-8 2 -32.5 11.5t-31.5 9.5q-9 0 -22 -5q0 10 -11 26l-11 16q-13 29 -13 90q0 19 4.5 24t22.5 6.5t32 7.5q7 5 31.5 82t24.5 87 q0 3 -7 24t-7 34q21 0 41 11.5t20 27.5q0 4 -9 12q57 -7 106 -56l22 5q-21 -58 -21 -59l-7 -23q24 -33 70 -141q37 0 43 3q4 -15 9 -69t8 -62zM258 465l13 33q0 7 -5 14q-19 -10 -35 -27l-4 3q2 12 16 38q-3 1 -14 6q-4 -6 -13 -18.5t-13 -19.5l-7 4l3 5q2 4 6.5 16t8.5 21 h-1q-6 -12 -11.5 -24t-10 -22.5t-11 -26.5t-11 -26.5t-13 -32.5t-13 -34.5t-15.5 -41.5t-17 -45.5l-20 -55l-22 -60.5q2 0 4.5 -1t3.5 -1l29 54l7 -2v-8q0 -19 -4 -38l22 32h4l-5 -58q3 -3 4 -3q5 11 19.5 49.5t43.5 114t61 155.5zM369 191l3 3l-100 223q-32 -52 -32 -73 q0 -25 33 -92.5t53 -73.5l-22 38l38 -21v26q16 -21 27 -30zM266 214v5l-61 11q23 9 38 10l4 1l-24 7v8q16 3 16 10q0 3 -25 3h-1q-21 -39 -27 -63q46 0 80 8zM372 246l3 34h-12zM63 232l9 30h-14q2 -12 3.5 -19t1.5 -11zM164 490l11 21l-18 -5q1 -3 7 -16zM216 293l15 -4 l-8 23zM323 250q0 -12 -12 -12q-10 3 -10 12q0 13 12 13q10 -4 10 -13zM143 244q0 -13 -12 -13q-9 6 -9 13q0 12 11 12q10 -4 10 -12zM223 460q0 -11 -11 -11q-8 5 -8 11q0 11 10 11q9 -4 9 -11z" />
<glyph unicode="&#xab;" horiz-adv-x="510" d="M264 430q30 -37 34 -71v-2l31 28q-14 29 -17 51l60 50q49 -14 85.5 -54t36.5 -88v-10q0 -8 -1 -11l-67 -46q-9 4 -16.5 10t-17 15.5t-13.5 12.5l-61 -46l-1 -7l99 -79l46 -87h-90l-151 129q-9 17 -9 33t9 31l2 2q-7 5 -18.5 14t-18.5 14l-56 -53v-8l105 -67l55 -83 l-87 -9l-165 113q-13 20 -13 38q0 17 5 27l99 107q-13 16 -22 47l55 57q64 -14 102 -58zM301 278l29 23l4 27l9 -13l24 13q-15 12 -27 40l-100 -81q-5 -18 -5 -25q0 -9 5 -27l138 -120l61 -5l-41 56l-103 95l3 8l-28 9h31zM112 273l27 25v28l10 -11l22 15q-20 18 -29 37 l-91 -91q-3 -9 -3 -22q0 -16 9 -31l149 -102h60l-45 51l-114 83l2 9l-28 6zM270 381l-9 21q-14 19 -39 37.5t-51 25.5q-8 -8 -8 -20q0 -21 26 -53.5t63 -52.5l16 5q6 9 6 18q0 12 -4 19zM462 389q-31 55 -83 73q-9 -8 -9 -23q0 -21 22.5 -54t54.5 -55l16 1q8 8 8 22 q0 9 -9 36zM353 439l-17 -11q15 -75 86 -124l23 14q-3 2 -14 12t-15 14l-13.5 13.5t-14 15t-11.5 15t-11 16.5t-7.5 16.5t-5.5 18.5zM146 439l-15 -13q11 -36 38 -65.5t61 -48.5l22 16q-29 20 -45 32t-34.5 34t-26.5 45z" />
<glyph unicode="&#xac;" horiz-adv-x="603" d="M422 543l137 -15v-37l44 3l-16 -175l-28 -4v-278l-160 -18l12 284q-112 -7 -244 -7q-47 0 -145 2l5 201q178 -12 341 -12h51zM198 319q91 0 214 7l6 129l-363 10l-3 -89l78 -15l-84 -10l72 -8l-71 -21h18q23 0 76 -1.5t57 -1.5zM472 404q0 11 11 11t11 -11q0 -12 -11 -12 t-11 12zM561 451h-2v-90h2v90zM562 337h-3v-1h1zM522 69l6 1q0 76 -0.5 220.5t-0.5 220.5q-2 -1 -9 -1q-4 0 -7.5 -3.5t-6 -10.5t-4 -12.5t-3.5 -14.5t-3 -11l-4 2l-6 47q-2 0 -4.5 1t-3.5 1l-10 -55h-3l-14 58h-3l-15 -462q5 1 16.5 5t18.5 5q1 7 3.5 33.5t3.5 40.5h4 l16 -68q8 0 11 6t4.5 18t2.5 17h3z" />
<glyph unicode="&#xae;" horiz-adv-x="614" d="M614 321q0 -73 -37.5 -149.5t-97 -126.5t-118.5 -50q-134 0 -226 89t-92 218t78 212.5t205 83.5q135 0 211.5 -69.5t76.5 -207.5zM511 303q0 -76 -39 -128q32 -36 48 -57q64 110 64 218q0 111 -60.5 173.5t-170.5 62.5q-125 0 -199.5 -65t-74.5 -180q0 -123 85.5 -216 t205.5 -93q87 0 149 98l-80 -60l-46 49q-46 -20 -88 -20q-59 0 -102 40h-16l12 105l-24 72q-2 -22 -2 -28l16 -129q-40 54 -40 138q0 56 22 97h-5v102q46 6 58 9l5 22h106v-17q75 -4 125.5 -55.5t50.5 -137.5zM289 145l24 351h-14l-11 -72v70l-16 4l-11 -63l-8 64l-10 1 l-39 -361l18 2l11 63v-61h19l9 49l3 -43zM439 372q0 48 -27 77t-75 29l-7 -1l-3 -65q58 0 58 -42q0 -32 -64 -50l-2 -13q53 6 62 19q2 -2 2 -4q0 -16 -64 -28v-11q46 3 69 15q-4 -17 -71 -25q2 -2 2 -5l-2 -7l15 -1q50 0 78.5 31.5t28.5 80.5zM485 112l11 9q-71 95 -107 132 l-9 -1q-30 -8 -67 -8v-30l131 -134l14 9l-19 29l28 -22l9 6l-21 22zM490 287q0 61 -36 107q4 -12 4 -27q0 -77 -56 -103q7 -10 56 -70q32 35 32 93zM222 478l-42 -3l-2 -30l31 -8l-31 -7l1 -11h29l-29 -14v-11l40 2q3 33 3 82zM291 122q42 0 72 12l-54 60l-4 -63h-50 q27 -9 36 -9zM364 369q0 25 -37 25l-8 -54q45 3 45 29zM180 324l29 7l8 54l-11 -1q-18 -33 -26 -60zM203 257l4 63l-23 -6zM264 307l8 -8l-4 -4l-7 7zM276 433l4 -5l-4 -6l-4 6z" />
<glyph unicode="&#xaf;" horiz-adv-x="483" d="M475 667q0 -49 -42 -91l-81 4q-10 20 -13 61h-268l-58 40l75 36l257 8q1 24 20 50l77 4q33 -43 33 -112zM416 601q19 5 28 27t9 47q0 48 -22 81q-37 -4 -37 -89q0 -39 22 -66zM48 679l37 -23h209l18 20v-16l25 -4q2 33 7 48l-251 -3zM397 755h-18q-23 -39 -23 -88 q0 -37 9 -66l29 -1q-13 39 -13 87q0 36 16 68z" />
<glyph unicode="&#xb0;" horiz-adv-x="362" d="M331 442q0 -59 -42.5 -115.5t-90.5 -56.5q-72 0 -119.5 46t-47.5 115q0 68 40.5 112t108.5 44q63 0 107 -41t44 -104zM307 449q0 56 -29 86t-84 30q-64 0 -100.5 -32t-36.5 -89q0 -63 43.5 -109t102.5 -46q40 0 72 52t32 108zM249 425q0 -29 -23.5 -51t-54.5 -22 q-27 0 -42.5 17.5t-15.5 49.5q0 31 20.5 51t52.5 20q29 0 46 -17.5t17 -47.5zM225 420q0 21 -13.5 36t-32.5 15q-16 0 -29 -18t-13 -36q0 -40 32 -40q26 0 41 11.5t15 31.5zM282 483q-12 18 -42.5 38t-34.5 24q29 0 53 -18.5t24 -43.5zM106 352q-38 17 -38 64q0 13 11 21 q6 -55 27 -85zM248 357l4 -5q-3 -12 -18.5 -21t-30.5 -9q-19 0 -19 18q39 0 64 17zM110 360q-22 38 -22 54q0 15 8 28q2 -29 14 -82zM254 466q-34 31 -47 46q19 0 32.5 -12t14.5 -34zM256 335q-4 -28 -41 -28q-7 0 -17 8q44 10 58 20z" />
<glyph unicode="&#xb1;" horiz-adv-x="497" d="M307 360l150 4l-12 -135l-97 -13l29 -89l-162 -57l-26 142h-181l4 156l117 -7l-34 115l151 31zM425 243l-95 17h95v71l-391 10l-3 -68l60 -12l-64 -8l55 -6l-55 -16h14q18 0 58.5 -1t44.5 -1q109 0 281 14zM150 362l129 -6l-53 134l-36 -6l25 -90l-42 85l-23 -5l18 -80 l-45 75zM313 120l36 15l-33 81l-102 -6l18 -112l20 57l26 -35l1 48zM230 304l8 -11l-8 -8l-9 8zM439 63l-12 -108q-136 -14 -298 -14q-18 0 -52 0.5t-51 0.5l3 124q119 -7 243 -7q94 0 167 4zM409 -34l-87 15h87v55l-360 9l-2 -55l55 -9l-59 -6l51 -5l-51 -13h13 q17 0 54.5 -1t40.5 -1q80 0 258 11zM225 4q0 7 7 7q8 0 8 -7t-8 -7q-7 0 -7 7z" />
<glyph unicode="&#xb2;" horiz-adv-x="364" d="M364 562q0 -49 -17 -82t-56 -61q-64 -47 -67 -50h28q49 0 74 1l6 -125h-310l-17 123q10 -2 29 -2h7q8 13 34.5 37t65 55t40.5 32q44 38 44 72q-5 23 -33 23q-29 0 -69 -64l-88 70q17 49 66 81.5t110 32.5q67 0 110 -39.5t43 -103.5zM340 553q0 59 -37 96t-97 37 q-42 0 -77.5 -20t-55.5 -55q13 12 42 27l1 -3l-41 -45l5 -5l41 27l2 -4q-25 -22 -25 -36t19 -27q12 29 35 46t51 17q22 0 36.5 -13.5t14.5 -35.5q0 -16 -5.5 -29.5t-10 -22t-23 -23t-26 -20t-38.5 -25.5l-45 -30q-50 -58 -48 -106l1 -22q4 0 7 2t5 6.5t3.5 9t4 13.5t5.5 16 l7 19l5 -3q-5 -16 -12 -61l18 -4q6 25 20 65l4 -1l-10 -66l38 -3q-3 15 -3 21q0 39 20.5 61.5t84.5 66.5l37 25v-1q47 41 47 106zM309 279l-3 20q-14 0 -42 -0.5t-43 -0.5v4l74 20q-9 1 -29.5 3.5t-29.5 3.5v5l59 13q-30 1 -105 1q-15 -24 -15 -54v-17q38 0 126 2h8z M307 588l-4 -1q-19 42 -92 70l1 5q33 0 63.5 -22.5t31.5 -51.5zM39 342l-13 2l5 -57q2 5 8 55zM274 573l-26 25q-20 18 -31 24q25 0 41 -14t16 -35zM104 335l8 -8l-8 -8l-8 8z" />
<glyph unicode="&#xb3;" horiz-adv-x="338" d="M338 425q0 -66 -51.5 -123t-115.5 -57q-37 0 -58 9.5t-98 59.5l9 10h-1q4 5 27.5 33.5t42.5 52.5q46 -28 63 -28q24 0 30 27q-38 10 -129 43l64 99l-111 5l20 153l271 -19l-4 -133l-21 -3q-11 -16 -12 -20q74 -33 74 -109zM318 424q0 65 -64 91q-3 -6 -7.5 -13t-7.5 -13 q40 -19 46 -64q-35 45 -55 49q-3 -6 -13 -16q29 -31 29 -48q0 -10 -9 -27q-3 22 -12 40l-20 21l-7 -10q11 -6 11 -16q0 -56 -53 -56q-34 0 -59 21q-3 -8 -8 -9q6 -9 26 -22t24 -13l-1 -5q-50 11 -59 19q-3 2 -5 6l-5 -6q5 -5 23 -19l34 -32q-15 1 -37 13t-29 22l-13 -13 q20 -20 60.5 -39t65.5 -19q56 0 100.5 48.5t44.5 109.5zM280 643l5 31l-243 7l-6 -33l65 -9v-4l-59 -12l55 -16l-66 -15l4 -19h238l-3 18l-59 14l66 11l2 12l-48 7v4zM173 440l77 113h-102l-56 -82q2 -1 9 -1l53 46l1 -2l-23 -56q1 0 2 -1.5t3 -2.5l41 39l3 -2l-31 -43z M195 629l10 -8l-10 -10l-11 10zM174 520l9 -12l-8 -12l-9 12z" />
<glyph unicode="&#xb4;" horiz-adv-x="338" d="M296 761q25 -40 25 -78q0 -4 -2 -20l-65 -47q-21 13 -25 18l-22 21l-120 -97l-71 -5l36 75l106 98q-13 35 -15 53l59 50q55 -14 94 -68zM289 731q-11 22 -33 43t-49 30q-9 -11 -9 -22q0 -20 23.5 -55.5t54.5 -57.5l14 3q8 7 8 21q0 13 -9 38zM46 573l43 7l72 60l2 27 l9 -12l23 12q-21 32 -24 42l-104 -90zM181 782l-15 -11q11 -77 84 -127l23 14q-26 23 -40 36t-31 38t-21 50z" />
<glyph unicode="&#xb5;" horiz-adv-x="499" d="M492 491q2 -14 2 -41q0 -23 -4 -71.5t-4 -75.5v-63q-32 -286 -228 -286q-32 0 -55 4v-111l-175 -21l21 628l157 15q3 -45 3 -53q0 -11 -3 -74.5t-3 -91.5q0 -116 55 -116q40 0 58 78t18 247v17zM302 82l1 -3q-18 -15 -50 -15q-29 0 -41 16q11 -4 32 -4q2 0 58 6zM312 56 l2 -4q-24 -16 -57 -16q-31 0 -43 21q22 -9 48 -9q31 0 50 8zM163 -122l9 1v119q26 -12 59 -12q101 0 146.5 38t66.5 132q25 141 25 261q0 21 -2 51h-12l-19 -77q-2 -12 -3 -15h-4l1 87q-1 -1 -8 -1q-5 0 -5 1q-10 -17 -20 -68h-3q-5 24 -5 58v10q-20 -2 -30 -5q3 -33 3 -69 q0 -285 -104 -285q-82 0 -82 159q0 13 3 77t3 78v20q0 11 -10 11q-4 0 -34 -6l-4 -93h-3l-18 86q-3 0 -7.5 -0.5t-7.5 -0.5q2 -55 6 -88l-3 -1l-18 88l-4 -4v-16q0 -5 -1 -17t-1 -19l-18 -521l44 11l8 84l18 -78l17 1l8 46z" />
<glyph unicode="&#xb6;" horiz-adv-x="517" d="M361 274q0 5 6 9q6 0 6 -7q0 -6 -6 -10q-6 0 -6 8zM439 285l12 41h-12v-41zM132 425q0 24 12 45.5t29 28.5q-13 -18 -17 -28t-21 -71q-3 8 -3 25zM94 421q0 45 34 70q-18 -55 -27 -108q-7 24 -7 38zM436 426l29 4l13 113l-42 6v-123zM192 406q13 -39 50 -39q18 0 35 8 l1 46q-13 13 -31 13q-31 0 -55 -28zM56 412q0 -74 48.5 -117t126.5 -43q25 0 42 4l-1 83q-14 -7 -30 -7q-27 0 -44 19.5t-17 52.5q0 48 59 46l35 -1l2 28l-44 16l45 6v12l-45 29l45 -7q-2 12 -2 15l2 10q-26 2 -42 2q-80 0 -130 -39t-50 -109zM286 -19l29 -10l17 92l6 -100 l17 -3l10 112l18 -120l34 -6v646l-25 1l-10 -113l-7 114l-68 -4zM28 404q0 79 57 132.5t137 53.5q29 0 66 -8l3 29h143v-41l60 -12l-19 -155l-40 -3l2 -47l33 -18q-17 -42 -28 -141.5t-11 -197.5q0 -26 2 -70l-167 26l4 268q-108 0 -175 49.5t-67 134.5z" />
<glyph unicode="&#xb7;" horiz-adv-x="295" d="M244 269q0 -42 -23 -68t-64 -26q-47 0 -77 32.5t-30 81.5q0 42 22.5 68.5t62.5 26.5q47 0 78 -34t31 -81zM224 276q0 32 -25.5 52t-59.5 20q-28 0 -46 -13t-18 -37q0 -41 24 -68v5q0 15 7 22l15 -50q13 -13 30 -13q29 0 51 26t22 56z" />
<glyph unicode="&#xb8;" horiz-adv-x="258" d="M130 -100l62 34q14 -8 37 -33l41 22l1 6l-27 39l-35 80l81 -14l67 -81q5 -6 5 -16v-16q-1 -12 -10 -26l-86 -62q5 -14 5 -41l-57 -40q-86 50 -86 124q0 8 2 24zM285 -85l-12 -5l-5 -22l-6 11l-19 -9q2 -5 8.5 -16.5t8.5 -19.5l72 48q7 14 7 24q0 6 -2 20l-55 71l-41 7 l16 -44l32 -51l-2 -6l23 -11zM170 -108h-13q-9 -9 -9 -22q0 -22 17.5 -51.5t47.5 -43.5q9 4 9 22t-15 46t-37 49zM237 -209l15 7q-5 62 -60 113l-20 -9q5 -6 16.5 -20.5t17 -22t13.5 -19.5t12 -24t6 -25z" />
<glyph unicode="&#xb9;" horiz-adv-x="163" d="M39 703l119 -13v-428l-138 -16zM128 292l3 1v381l-17 -4l-12 -41l-10 41l-5 1l-8 -48l-18 51l-14 -399l30 9l7 64l18 -60l8 2l5 34z" />
<glyph unicode="&#xba;" horiz-adv-x="441" d="M405 403q0 -74 -53.5 -144t-113.5 -70q-89 0 -148.5 58t-59.5 144q0 84 50.5 139t135.5 55q79 0 134 -51.5t55 -130.5zM376 412q0 69 -37 107t-106 38q-79 0 -124.5 -40t-45.5 -111q0 -78 54 -135.5t127 -57.5q51 0 91.5 64.5t40.5 134.5zM303 383q0 -36 -29.5 -64.5 t-68.5 -28.5q-33 0 -53 22.5t-20 62.5q0 39 26 63t65 24q37 0 58.5 -21.5t21.5 -57.5zM273 377q0 25 -17 43.5t-41 18.5q-19 0 -36 -22.5t-17 -44.5q0 -18 9.5 -34t30.5 -16q32 0 51.5 15t19.5 40zM344 454q-15 23 -53 48t-44 31q36 0 66.5 -24t30.5 -55zM123 290 q-47 22 -47 80q0 18 13 27q10 -69 34 -107zM301 298l4 -7q-3 -15 -22.5 -26t-38.5 -11q-23 0 -23 23q50 0 80 21zM130 301q-2 3 -9 14.5t-9 15.5l-6 12t-5 14t-1 12q0 19 10 34q6 -58 20 -102zM309 433q-36 32 -59 58q56 0 59 -58zM311 270q-7 -34 -51 -34q-14 0 -21 10 q52 8 72 24z" />
<glyph unicode="&#xbb;" horiz-adv-x="510" d="M257 153q-28 33 -34 71v1l-31 -27q15 -35 16 -51l-60 -50q-46 12 -84 53.5t-38 88.5q0 5 2 21l66 46q13 -6 29 -21t19 -17l61 46l1 7l-98 79l-47 87h89l153 -130q8 -16 8 -33t-8 -30l-3 -3l37 -27l57 53v7l-106 68l-56 83l89 9l165 -113q11 -16 11 -39q0 -15 -4 -26 l-98 -107q16 -24 21 -48l-54 -57q-62 13 -103 59zM221 305l-31 -23l-2 -27l-9 13l-24 -13q14 -14 25 -40l100 81q7 13 7 25q0 14 -7 27l-137 120l-61 4l41 -55l102 -95l-2 -8l29 -9h-31zM410 310l-27 -25v-28l-12 11l-21 -15q20 -18 29 -37l63 61l28 30q4 12 4 22 q0 13 -9 31l-150 102h-61l47 -51l112 -83l-1 -9l27 -6zM252 202l9 -21q35 -49 90 -63q6 9 6 20q0 20 -26 53t-61 53l-17 -5q-6 -9 -6 -18q0 -13 5 -19zM59 194q30 -54 83 -73q9 7 9 22q0 21 -22.5 54t-54.5 56l-17 -1q-8 -8 -8 -22q0 -8 4.5 -21t5.5 -15zM376 143l13 14 q-9 35 -36.5 65t-62.5 49l-20 -16l20 -15t22 -17t18.5 -16t19 -19.5t14 -20.5t12.5 -24zM169 143l15 12q-7 37 -30.5 70t-55.5 54l-23 -14q27 -23 40.5 -36.5t30 -37.5t23.5 -48z" />
<glyph unicode="&#xbc;" horiz-adv-x="783" d="M80 703l119 -13v-428l-138 -16zM169 292l3 1v381l-17 -4l-12 -41l-10 41l-5 1l-8 -48l-18 51l-14 -399l30 9l7 64l18 -60l8 2l5 34zM555 640l98 -97l-505 -634l-135 85zM140 -43l5 -3q22 28 99.5 126.5t135.5 171.5l237 297q-1 0 -17 9q-7 -4 -21.5 -15.5t-19.5 -14.5 l-2 4l24 42l-2 2l-4 4l-41 -38l-2 2l25 55l-2 1q-46 -53 -257.5 -309.5t-240.5 -291.5q5 -2 16 -6t17 -8q5 6 24.5 24.5t28.5 29.5l2 -3l-31 -63q2 -2 5.5 -3.5t4.5 -2.5q6 4 15.5 13.5t14.5 12.5l3 -2zM762 182l22 -118l-74 -5v-160l-129 -7l-6 139l-160 -29l-5 99l-28 31 l201 224l48 -39q17 3 48.5 10t41.5 9l-6 -155q7 0 23 0.5t24 0.5zM476 73l183 190l-14 11l-46 -22l27 36q-2 1 -4.5 3.5t-5.5 3.5q-22 -16 -58 -33l49 47l-22 20l-175 -197q1 -2 8 -8.5t10 -11.5l34 23l-12 -34q37 23 59 29l-48 -42q9 -11 15 -15zM436 28l311 60l-42 8 l58 11q-2 10 -11.5 13t-25 2.5t-21.5 1.5l48 22l-4 11l-174 -14l-99 -96l-45 37q0 -9 2 -27.5t3 -28.5zM689 -75v131l-98 -23l7 -108l10 -2l9 47l11 -47q6 0 9 1l8 66l10 -65h34zM694 178l5 132l-50 -8l40 -37l-91 -98zM662 129l10 -19l-8 -6l-5 2l-11 19l7 6zM583 241l7 -6 q0 -5 -1.5 -6.5t-6.5 -1.5l-9 1l-7 8q0 8 8 8z" />
<glyph unicode="&#xbd;" horiz-adv-x="781" d="M104 703l119 -13v-428l-138 -16zM193 292l3 1v381l-17 -4l-12 -41l-10 41l-5 1l-8 -48l-18 51l-14 -399l30 9l7 64l18 -60l8 2l5 34zM555 640l98 -97l-505 -634l-135 85zM140 -43l5 -3q22 28 99.5 126.5t135.5 171.5l237 297q-1 0 -17 9q-7 -4 -21.5 -15.5t-19.5 -14.5 l-2 4l24 42l-2 2l-4 4l-41 -38l-2 2l25 55l-2 1q-46 -53 -257.5 -309.5t-240.5 -291.5q5 -2 16 -6t17 -8q5 6 24.5 24.5t28.5 29.5l2 -3l-31 -63q2 -2 5.5 -3.5t4.5 -2.5q6 4 15.5 13.5t14.5 12.5l3 -2zM781 220q0 -49 -17 -82t-56 -61q-64 -47 -67 -50h28q49 0 74 1l6 -125 h-310l-17 123q10 -2 29 -2h7q8 13 34.5 37t65 55t40.5 32q44 39 44 72q-5 23 -33 23q-29 0 -69 -64l-88 70q17 49 66 81.5t110 32.5q67 0 110 -39.5t43 -103.5zM757 211q0 59 -37 96t-97 37q-42 0 -77.5 -20t-55.5 -55q14 12 42 27l1 -3l-41 -45l5 -5l41 27l2 -4 q-25 -22 -25 -36t19 -27q12 29 35 46t51 17q22 0 36.5 -13.5t14.5 -35.5q0 -16 -5.5 -29.5t-10 -22t-23 -23t-26 -20t-38.5 -25.5l-45 -30q-50 -58 -48 -106l1 -22q4 0 7 2t5 6.5t3.5 9t4 13.5t5.5 16l7 19l5 -3q-5 -16 -12 -61l18 -4q6 25 20 65l4 -1l-10 -66l38 -3 q-3 15 -3 21q0 39 20.5 61.5t84.5 66.5l37 25v-1q47 41 47 106zM726 -63l-3 20q-14 0 -42 -0.5t-43 -0.5v4l74 20q-9 2 -29 3.5t-30 3.5v5l59 13q-30 1 -105 1q-15 -24 -15 -54v-17q38 0 126 2h8zM724 246l-4 -1q-19 42 -92 70l1 5q33 0 63.5 -22.5t31.5 -51.5zM456 0l-13 2 l5 -57q2 5 8 55zM691 231l-26 25q-20 18 -31 24q25 0 41 -14t16 -35zM521 -7l8 -8l-8 -8l-8 8z" />
<glyph unicode="&#xbe;" horiz-adv-x="856" d="M340 425q0 -66 -51.5 -123t-115.5 -57q-37 0 -58 9.5t-98 59.5l9 10h-1q4 5 27.5 33.5t42.5 52.5q46 -28 63 -28q24 0 30 27q-38 10 -129 43l64 99l-111 5l20 153l271 -19l-4 -133l-21 -3q-11 -16 -12 -20q74 -33 74 -109zM320 424q0 65 -64 91q-3 -6 -7.5 -13t-7.5 -13 q40 -19 46 -64q-35 45 -55 49q-3 -6 -13 -16q29 -31 29 -48q0 -10 -9 -27q-3 22 -12 40l-20 21l-7 -10q11 -6 11 -16q0 -56 -53 -56q-34 0 -59 21q-3 -8 -8 -9q6 -9 26 -22t24 -13l-1 -5q-50 11 -59 19q-3 2 -5 6l-5 -6q5 -5 23 -19l34 -32q-15 1 -37 13t-29 22l-13 -13 q20 -20 60.5 -39t65.5 -19q56 0 100.5 48.5t44.5 109.5zM282 643l5 31l-243 7l-6 -33l65 -9v-4l-59 -12l55 -16l-66 -15l4 -19h238l-3 18l-59 14l66 11l2 12l-48 7v4zM175 440l77 113h-102l-56 -82q2 -1 9 -1l53 46l1 -2l-23 -56q1 0 2 -1.5t3 -2.5l41 39l3 -2l-31 -43z M197 629l10 -8l-10 -10l-11 10zM176 520l9 -12l-8 -12l-9 12zM619 640l98 -97l-505 -634l-135 85zM204 -43l5 -3q22 28 99.5 126.5t135.5 171.5l237 297q-1 0 -17 9q-7 -4 -21.5 -15.5t-19.5 -14.5l-2 4l24 42l-6 6l-41 -38l-2 2l25 55l-2 1q-46 -53 -257.5 -309.5 t-240.5 -291.5q5 -2 16 -6t17 -8q5 6 24.5 24.5t28.5 29.5l2 -3l-31 -63q2 -2 5.5 -3.5t4.5 -2.5q6 4 15.5 13.5t14.5 12.5l3 -2zM835 182l22 -118l-74 -5v-160l-129 -7l-6 139l-160 -29l-5 99l-28 31l201 224l48 -39q17 3 48.5 10t41.5 9l-6 -155q8 0 24 0.5t23 0.5z M549 73l183 190l-14 11l-46 -22l27 36q-2 1 -4.5 3.5t-5.5 3.5q-22 -16 -58 -33l49 47l-22 20l-175 -197l8.5 -8.5t9.5 -11.5l34 23l-12 -34q37 23 59 29l-48 -42q9 -11 15 -15zM509 28l311 60l-42 8l58 11q-2 10 -11.5 13t-25 2.5t-21.5 1.5l48 22l-4 11l-174 -14l-99 -96 l-45 37q0 -9 2 -27.5t3 -28.5zM762 -75v131l-98 -23l7 -108l10 -2l9 47l11 -47q6 0 9 1l8 66l10 -65h34zM767 178l5 132l-50 -8l40 -37l-91 -98zM735 129l10 -19l-8 -6l-5 2l-11 19l7 6zM656 241l7 -6q0 -5 -1.5 -6.5t-6.5 -1.5l-9 1l-7 8q0 8 8 8z" />
<glyph unicode="&#xbf;" horiz-adv-x="461" d="M162 526q0 41 21 65t61 24q44 0 72 -31t28 -77q0 -35 -18 -61q3 0 8.5 -0.5t7.5 -0.5q-1 -143 -60 -183q-24 -16 -52.5 -53.5t-31.5 -76.5q23 -18 41 -18q38 0 88 77l106 -85q-21 -62 -80.5 -101t-136.5 -39q-83 0 -135.5 48t-52.5 129q0 65 20.5 109t73.5 69 q16 10 23.5 18t14 27t6.5 48v39h24q-28 32 -28 73zM56 155q0 -74 46.5 -121.5t120.5 -47.5q55 0 100 26.5t71 74.5q-20 -17 -59 -39l52 59q-1 1 -3 4t-4 5l-50 -36l-3 3q20 23 35 54l-27 28q-19 -37 -47 -59t-60 -22q-29 0 -46 16.5t-17 44.5q0 64 78 118q69 49 69 141v21 q-7 0 -11.5 -3.5t-7.5 -11t-5.5 -16t-7 -23.5t-9.5 -28h-3q2 9 6 36.5t6 42.5l-24 4v-1q-9 -41 -24 -81h-3q4 21 12 85l-49 5q0 -2 1 -8t1 -9q0 -55 -15 -77t-63 -54q-60 -40 -60 -131zM183 519q0 -29 23 -47t55 -18q25 0 41 12t16 33q0 38 -19 60q0 -16 -9 -25l-14 49h1 q-11 11 -28 11q-26 0 -46 -24.5t-20 -50.5zM98 110l3 2q29 -67 115 -90l-1 -4q-41 0 -79 28t-38 64zM140 124l3 1q23 -44 66 -54v-4l-9 -1q-25 0 -42.5 16.5t-17.5 41.5zM255 356l-7 11l8 9l9 -9z" />
<glyph unicode="&#xc0;" d="M594 220l-5 -138l14 -52l-137 -57l-49 84q-104 -17 -161 -17q-40 -97 -44 -105l-151 55l-28 204l91 13l100 268l-30 83l85 33l22 49l148 -87l-37 -107l116 -226h66zM412 527q0 21 -10 32q-28 -12 -59 -43q5 26 28 58l-31 15l-44 -64q5 12 31 70l-15 8q-74 -160 -118 -292 l-109 -297l25 -6l44 85v-30q0 -33 -9 -64l45 72l-10 -91l16 -10q9 26 216 557zM562 43l10 14l-171 362q-47 -91 -47 -131q0 -48 57.5 -158t90.5 -110l-28 55l55 -32q-5 20 -5 23l1 13q17 -26 37 -36zM405 80v18q-54 10 -78 15l61 12q-15 12 -51 21q25 6 25 20q0 3 -16 6.5 t-29 3.5h-5q-29 -59 -44 -110q58 0 137 14zM76 81l31 90l-38 -5zM572 102l4 92h-33zM240 501l29 59l-47 -16zM314 204l41 -10l-20 55zM484 142q0 -13 -13 -13q-11 3 -11 13q0 14 11 14q13 -3 13 -14zM202 132q0 -14 -11 -14q-11 4 -11 14q0 13 11 13q11 -6 11 -13zM327 470 q0 -11 -9 -11q-9 3 -9 11q0 10 9 10q9 -4 9 -10zM242 912l66 -49q-3 -13 -21 -56l128 -86l27 -66l-79 11l-127 70q-21 -21 -43 -32l-65 40q0 57 30.5 108.5t83.5 59.5zM191 861q-43 -45 -43 -104q6 -3 14 -3q22 0 50 36t39 77l-6 14l-8 3h-5q-8 0 -14.5 -3t-16.5 -11z M415 675l-19 41l-80 50l-26 -7l10 17l-21 14q-7 -19 -30 -37l116 -71zM177 740l17 -11q63 36 89 123l-21 17q-32 -96 -85 -129z" />
<glyph unicode="&#xc1;" d="M594 220l-5 -138l14 -52l-137 -57l-49 84q-104 -17 -161 -17q-40 -97 -44 -105l-151 55l-28 204l91 13l100 268l-30 83l85 33l22 49l148 -87l-37 -107l116 -226h66zM412 527q0 21 -10 32q-28 -12 -59 -43q5 26 28 58l-31 15l-44 -64q5 12 31 70l-15 8q-74 -160 -118 -292 l-109 -297l25 -6l44 85v-30q0 -33 -9 -64l45 72l-10 -91l16 -10q9 26 216 557zM562 43l10 14l-171 362q-47 -91 -47 -131q0 -48 57.5 -158t90.5 -110l-28 55l55 -32q-5 20 -5 23l1 13q17 -26 37 -36zM405 80v18q-54 10 -78 15l61 12q-15 12 -51 21q25 6 25 20q0 3 -16 6.5 t-29 3.5h-5q-29 -59 -44 -110q58 0 137 14zM76 81l31 90l-38 -5zM572 102l4 92h-33zM240 501l29 59l-47 -16zM314 204l41 -10l-20 55zM484 142q0 -13 -13 -13q-11 3 -11 13q0 14 11 14q13 -3 13 -14zM202 132q0 -14 -11 -14q-11 4 -11 14q0 13 11 13q11 -6 11 -13zM327 470 q0 -11 -9 -11q-9 3 -9 11q0 10 9 10q9 -4 9 -10zM461 848q25 -40 25 -78q0 -4 -2 -20l-65 -47q-21 13 -25 18l-22 21l-120 -97l-71 -5l36 75l106 98q-13 35 -15 53l59 50q55 -14 94 -68zM454 818q-11 22 -33 43t-49 30q-9 -11 -9 -22q0 -20 23.5 -55.5t54.5 -57.5l14 3 q8 7 8 21q0 13 -9 38zM211 660l43 7l72 60l2 27l9 -12l23 12q-21 32 -24 42l-104 -90zM346 869l-15 -11q11 -77 84 -127l23 14q-26 23 -40 36t-31 38t-21 50z" />
<glyph unicode="&#xc2;" d="M594 220l-5 -138l14 -52l-137 -57l-49 84q-104 -17 -161 -17q-40 -97 -44 -105l-151 55l-28 204l91 13l100 268l-30 83l85 33l22 49l148 -87l-37 -107l116 -226h66zM412 527q0 21 -10 32q-28 -12 -59 -43q5 26 28 58l-31 15l-44 -64q5 12 31 70l-15 8q-74 -160 -118 -292 l-109 -297l25 -6l44 85v-30q0 -33 -9 -64l45 72l-10 -91l16 -10q9 26 216 557zM562 43l10 14l-171 362q-47 -91 -47 -131q0 -48 57.5 -158t90.5 -110l-28 55l55 -32q-5 20 -5 23l1 13q17 -26 37 -36zM405 80v18q-54 10 -78 15l61 12q-15 12 -51 21q25 6 25 20q0 3 -16 6.5 t-29 3.5h-5q-29 -59 -44 -110q58 0 137 14zM76 81l31 90l-38 -5zM572 102l4 92h-33zM240 501l29 59l-47 -16zM314 204l41 -10l-20 55zM484 142q0 -13 -13 -13q-11 3 -11 13q0 14 11 14q13 -3 13 -14zM202 132q0 -14 -11 -14q-11 4 -11 14q0 13 11 13q11 -6 11 -13zM327 470 q0 -11 -9 -11q-9 3 -9 11q0 10 9 10q9 -4 9 -10zM500 649q-43 -25 -76 -25q-3 0 -19 2l-47 66q6 13 21 29t17 19l-46 60l-8 1l-79 -98l-86 -46v89l129 152q13 8 34 8q17 0 30 -8l96 -108q26 11 51 16l50 -60q-16 -57 -67 -97zM359 817l23 -29l27 -3l-13 -9l13 -24 q17 18 40 25l-53 69l-28 32q-15 6 -26 6q-14 0 -27 -6l-120 -138l-4 -61l55 41l95 103l9 -2l9 28v-32zM471 657q51 26 71 83q-8 9 -21 9q-23 0 -54.5 -22.5t-56.5 -54.5l3 -18q8 -8 20 -8q7 0 38 11zM521 766l-12 16q-77 -13 -124 -87l14 -22q22 25 36.5 40t38 30.5 t47.5 22.5z" />
<glyph unicode="&#xc3;" d="M594 220l-5 -138l14 -52l-137 -57l-49 84q-104 -17 -161 -17q-40 -97 -44 -105l-151 55l-28 204l91 13l100 268l-30 83l85 33l22 49l148 -87l-37 -107l116 -226h66zM412 527q0 21 -10 32q-28 -12 -59 -43q5 26 28 58l-31 15l-44 -64q5 12 31 70l-15 8q-74 -160 -118 -292 l-109 -297l25 -6l44 85v-30q0 -33 -9 -64l45 72l-10 -91l16 -10q9 26 216 557zM562 43l10 14l-171 362q-47 -91 -47 -131q0 -48 57.5 -158t90.5 -110l-28 55l55 -32q-5 20 -5 23l1 13q17 -26 37 -36zM405 80v18q-54 10 -78 15l61 12q-15 12 -51 21q25 6 25 20q0 3 -16 6.5 t-29 3.5h-5q-29 -59 -44 -110q58 0 137 14zM76 81l31 90l-38 -5zM572 102l4 92h-33zM240 501l29 59l-47 -16zM314 204l41 -10l-20 55zM484 142q0 -13 -13 -13q-11 3 -11 13q0 14 11 14q13 -3 13 -14zM202 132q0 -14 -11 -14q-11 4 -11 14q0 13 11 13q11 -6 11 -13zM327 470 q0 -11 -9 -11q-9 3 -9 11q0 10 9 10q9 -4 9 -10zM556 858l-8 -76l-86 -76q-29 -9 -43 -9q-18 0 -26 8l-50 68l-59 -36q9 -31 9 -41q0 -2 -0.5 -7t-0.5 -8l-72 -33q-37 18 -59.5 57t-22.5 83q0 22 4 30l58 28q11 0 22 -7t14.5 -11t15.5 -19l74 52q26 6 27 6q16 0 31 -12 l45 -70l64 56zM541 836l-39 -8l-60 -58l-10 -31l-11 33l-45 67q-14 11 -26 11q-9 0 -21 -6l-65 -42l13 -17l7 -32l52 36l16 38l6 -41l35 -59q12 -11 32 -11q11 0 28 5l79 67zM162 749q7 -22 26.5 -46t44.5 -37q13 11 13 28q0 22 -19 56t-44 59h-18q-9 -7 -9 -25q0 -6 3 -18 t3 -17zM261 686l18 11q-1 75 -68 134l-25 -11q69 -71 75 -134z" />
<glyph unicode="&#xc4;" d="M594 220l-5 -138l14 -52l-137 -57l-49 84q-104 -17 -161 -17q-40 -97 -44 -105l-151 55l-28 204l91 13l100 268l-30 83l85 33l22 49l148 -87l-37 -107l116 -226h66zM412 527q0 21 -10 32q-28 -12 -59 -43q5 26 28 58l-31 15l-44 -64q5 12 31 70l-15 8q-74 -160 -118 -292 l-109 -297l25 -6l44 85v-30q0 -33 -9 -64l45 72l-10 -91l16 -10q9 26 216 557zM562 43l10 14l-171 362q-47 -91 -47 -131q0 -48 57.5 -158t90.5 -110l-28 55l55 -32q-5 20 -5 23l1 13q17 -26 37 -36zM405 80v18q-54 10 -78 15l61 12q-15 12 -51 21q25 6 25 20q0 3 -16 6.5 t-29 3.5h-5q-29 -59 -44 -110q58 0 137 14zM76 81l31 90l-38 -5zM572 102l4 92h-33zM240 501l29 59l-47 -16zM314 204l41 -10l-20 55zM484 142q0 -13 -13 -13q-11 3 -11 13q0 14 11 14q13 -3 13 -14zM202 132q0 -14 -11 -14q-11 4 -11 14q0 13 11 13q11 -6 11 -13zM327 470 q0 -11 -9 -11q-9 3 -9 11q0 10 9 10q9 -4 9 -10zM149 789q0 38 23 64t57 26q26 0 47 -15.5t32 -40.5q7 29 28 47t50 18q34 0 58.5 -25t24.5 -61q0 -37 -24 -62t-59 -25q-27 0 -48 14.5t-28 40.5q-7 -28 -29.5 -46t-51.5 -18q-34 0 -57 23.5t-23 59.5zM326 801 q0 -26 17.5 -43t42.5 -17t43.5 18t18.5 44t-18.5 43t-43.5 17t-42.5 -18t-17.5 -44zM170 790q0 -24 17.5 -41t41.5 -17q27 0 45 17t18 44t-18 44t-45 17q-24 0 -41.5 -18.5t-17.5 -45.5z" />
<glyph unicode="&#xc5;" d="M594 220l-5 -138l14 -52l-137 -57l-49 84q-104 -17 -161 -17q-40 -97 -44 -105l-151 55l-28 204l91 13l100 268l-30 83l85 33l22 49l148 -87l-37 -107l116 -226h66zM412 527q0 21 -10 32q-28 -12 -59 -43q5 26 28 58l-31 15l-44 -64q5 12 31 70l-15 8q-74 -160 -118 -292 l-109 -297l25 -6l44 85v-30q0 -33 -9 -64l45 72l-10 -91l16 -10q9 26 216 557zM562 43l10 14l-171 362q-47 -91 -47 -131q0 -48 57.5 -158t90.5 -110l-28 55l55 -32q-5 20 -5 23l1 13q17 -26 37 -36zM405 80v18q-54 10 -78 15l61 12q-15 12 -51 21q25 6 25 20q0 3 -16 6.5 t-29 3.5h-5q-29 -59 -44 -110q58 0 137 14zM76 81l31 90l-38 -5zM572 102l4 92h-33zM240 501l29 59l-47 -16zM314 204l41 -10l-20 55zM484 142q0 -13 -13 -13q-11 3 -11 13q0 14 11 14q13 -3 13 -14zM202 132q0 -14 -11 -14q-11 4 -11 14q0 13 11 13q11 -6 11 -13zM327 470 q0 -11 -9 -11q-9 3 -9 11q0 10 9 10q9 -4 9 -10zM445 821q0 -47 -38.5 -92t-81.5 -45q-65 0 -108 36.5t-43 91.5q0 54 36.5 89t97.5 35q57 0 97 -33t40 -82zM423 826q0 92 -102 92q-58 0 -90.5 -25t-32.5 -71q0 -50 39 -86.5t92 -36.5q36 0 65 41.5t29 85.5zM371 807 q0 -23 -21.5 -40.5t-49.5 -17.5q-24 0 -38 14.5t-14 39.5t18.5 40.5t47.5 15.5q26 0 41.5 -14.5t15.5 -37.5zM349 803q0 16 -12 28.5t-30 12.5q-14 0 -26 -14.5t-12 -28.5q0 -32 29 -32q51 0 51 34zM400 853q-10 14 -36.5 29.5t-32.5 20.5q26 0 47.5 -15t21.5 -35zM241 749 q-33 15 -33 50q0 12 9 18q4 -37 24 -68zM370 754l3 -5q-2 -9 -16.5 -16.5t-27.5 -7.5q-16 0 -16 15q35 0 57 14zM245 755q-20 31 -20 43q0 13 7 23q3 -27 13 -66zM375 839q-26 20 -42 38q17 0 29 -10t13 -28zM376 736q-3 -22 -36 -22q-9 0 -15 7q37 5 51 15z" />
<glyph unicode="&#xc6;" horiz-adv-x="779" d="M723 -34l-413 3q9 31 13 74q-10 0 -33 -1.5t-34 -1.5q-40 -97 -44 -105q-3 0 -42.5 16t-52.5 16q-12 0 -30 -6q-1 7 -16 31l-10 15q-24 36 -28 187q67 2 88 20q19 16 57 128q35 101 35 141q0 9 -11.5 44t-12.5 40q39 1 67.5 20t29.5 48q0 8 -1 9q29 -5 72.5 -30t71.5 -53 l28 6l-3 -8q-1 -1 -1 -5v-3h273q-5 -18 -9.5 -57.5t-8 -77.5t-4.5 -43h-245l19 -38l182 9l-5 -158h-107l21 -44q1 1 8 1h100q7 0 8 -1zM412 527q0 21 -10 32q-28 -12 -59 -43q5 26 28 58l-31 15l-44 -64q5 12 31 70l-15 8q-45 -94 -118 -292l-109 -297l25 -6l44 85v-38 q0 -37 -9 -56l45 72l-10 -91l16 -10q9 26 216 557zM562 43l10 14l-162 355q-56 -83 -56 -124q0 -29 25.5 -93t61.5 -119.5t61 -55.5l-28 55l55 -32q-5 20 -5 23l1 13q17 -26 37 -36zM677 513l7 18h-223q-6 -1 -8.5 -2t-7 -6.5t-9.5 -16.5l-5 -12h62l-65 -9l-10 -32 q1 -1 6 -1h6q6 0 7 -1q-1 0 -6.5 -1t-9.5 -1.5t-4 -1.5v-3l24 -39h46q114 0 195 5l-6 31l-79 18l79 4v17l-104 12zM626 311l4 15l-145 -8q2 -4 50 -107h95l-4 36l-69 13l69 6v16h-95zM405 80v18q-54 10 -78 15l61 12q-15 12 -51 21q25 6 25 20q0 3 -15.5 6.5t-26.5 3.5h-8 q-29 -59 -44 -110q58 0 137 14zM640 34q36 4 43 4l-6 21l-74 8q8 2 71 8l-7 34q-51 3 -52 3h-31l19 -45q12 -30 14 -34q1 1 9 1h14zM602 -10q54 2 89 7l-6 25h-72l-8 -5q-11 3 -21 3q-30 0 -65 -22l-18 -11q20 0 53.5 1.5t47.5 1.5zM359 5l-6 -18h102q-1 4 -3.5 9.5 t-5.5 12.5t-5 11zM76 85l31 84l-38 -5q7 -59 7 -75v-4zM240 501l29 59l-47 -16zM360 48l1 -10l74 -8q-13 18 -18 27q-26 -7 -57 -9zM314 204l41 -10l-20 55zM484 142q0 -13 -13 -13q-11 3 -11 13q0 14 11 14q13 -3 13 -14zM202 132q0 -14 -11 -14q-11 4 -11 14q0 13 11 13 q11 -6 11 -13zM327 470q0 -11 -9 -11q-9 3 -9 11q0 10 9 10q9 -4 9 -10z" />
<glyph unicode="&#xc7;" horiz-adv-x="451" d="M175 -100l63 34q16 -9 36 -33l41 22l2 6l-28 39l-20 48h-4q-102 0 -162 80t-60 210q0 129 57.5 218.5t147.5 89.5q63 0 133 -47q-19 -68 -19 -154q-45 32 -79 32q-62 0 -62 -100q0 -57 23 -114.5t55 -57.5q34 0 63 68q17 -16 53 -65t36 -55q0 -60 -111 -93l63 -75 q5 -8 5 -16v-16q-3 -15 -11 -26l-85 -62q5 -18 5 -41l-57 -40q-87 49 -87 124q0 8 2 24zM420 110l-3 2q1 -1 -15 -9.5t-34 -17t-27 -12.5q22 16 44 62q-51 -28 -67 -27l-15 1q22 9 40.5 33t18.5 47v3q-33 -45 -65 -45q-42 0 -72.5 60t-30.5 129q0 63 26 97.5t76 34.5 q29 0 52 -8q-7 3 -36.5 29.5t-42.5 31.5q12 3 13 3q10 0 36.5 -11.5t29.5 -12.5q-29 35 -58 57q3 1 7 1h5q5 0 24 -6t25 -6q2 0 5 3q-51 45 -104 45q-74 0 -125.5 -87.5t-51.5 -201.5q0 -119 59.5 -191t159.5 -72q32 0 71 20.5t55 47.5zM330 -85l-11 -5l-6 -22l-6 11l-19 -9 q1 -2 8 -15t9 -21l73 48q7 14 7 24q0 6 -2 20l-55 71l-22 3q-15 -3 -17 -3l14 -37l32 -51l-3 -6l23 -11zM215 -108h-12q-9 -9 -9 -22q0 -22 17.5 -51.5t46.5 -43.5q10 4 10 22t-15 46t-38 49zM282 -209l15 7q-4 60 -59 113l-21 -9q3 -4 16.5 -20t18 -22.5t13 -19.5 t12.5 -24.5t5 -24.5zM338 71q1 1 3 2q-2 -2 -3 -2z" />
<glyph unicode="&#xc8;" horiz-adv-x="562" d="M528 545l37 -145l-245 -24v-47q20 -1 70 -3t77 -4q0 -16 -8 -168l-142 10v-25l177 -42q-3 -14 -11.5 -65.5t-14.5 -79.5q-129 25 -263 25q-28 0 -80 -2v27q-18 3 -53.5 7t-51.5 6l28 159l83 -5l7 193q-16 -1 -83 -8q3 38 9.5 103.5t8.5 82.5l70 -4v38q31 -2 88.5 -4 t79.5 -3l17 -18q37 0 108 -2t92 -2zM287 33l3 504l-3 2q-2 -6 -9 -25t-10 -29l-20 64h-24q-19 -23 -21 -26l-37 34v-541h8l18 82l10 -88l23 1l19 78l10 -78zM322 403l214 18l-10 31q-8 0 -26.5 2.5t-27.5 3.5l49 14l-2 22q-23 0 -57 4l55 26l-1 3h-194v-124zM476 75l-159 30 l-21 -106l156 -25l1 2q-27 19 -31 31q2 0 11 -2.5t14 -2.5l15 1q-7 14 -41 28q23 1 33.5 9.5t21.5 34.5zM391 207l62 18q-10 3 -28.5 10t-23.5 9l44 11v55h-122v-116l110 -5l1 3zM125 11l6 142h-65l-24 -113zM79 385h58l-12 132h-35zM241 461l2 -3q-3 -14 -22 -23v26h20z M235 270l-11 -9l-15 27l6 6zM251 853l66 -49q-3 -13 -21 -56l128 -86l27 -66l-79 11l-127 70q-21 -21 -43 -32l-65 40q0 57 30.5 108.5t83.5 59.5zM200 802q-43 -45 -43 -104q6 -3 14 -3q22 0 50 36t39 77l-6 14l-8 3h-5q-8 0 -14.5 -3t-16.5 -12zM424 616l-19 41l-80 50 l-26 -7l10 17l-21 14q-7 -19 -30 -37l116 -71zM186 681l17 -11q63 36 89 123l-21 17q-32 -96 -85 -129z" />
<glyph unicode="&#xc9;" horiz-adv-x="562" d="M528 545l37 -145l-245 -24v-47q20 -1 70 -3t77 -4q0 -16 -8 -168l-142 10v-25l177 -42q-3 -14 -11.5 -65.5t-14.5 -79.5q-129 25 -263 25q-28 0 -80 -2v27q-18 3 -53.5 7t-51.5 6l28 159l83 -5l7 193q-16 -1 -83 -8q3 38 9.5 103.5t8.5 82.5l70 -4v38q31 -2 88.5 -4 t79.5 -3l17 -18q37 0 108 -2t92 -2zM287 33l3 504l-3 2q-2 -6 -9 -25t-10 -29l-20 64h-24q-19 -23 -21 -26l-37 34v-541h8l18 82l10 -88l23 1l19 78l10 -78zM322 403l214 18l-10 31q-8 0 -26.5 2.5t-27.5 3.5l49 14l-2 22q-23 0 -57 4l55 26l-1 3h-194v-124zM476 75l-159 30 l-21 -106l156 -25l1 2q-27 19 -31 31q2 0 11 -2.5t14 -2.5l15 1q-7 14 -41 28q23 1 33.5 9.5t21.5 34.5zM391 207l62 18q-10 3 -28.5 10t-23.5 9l44 11v55h-122v-116l110 -5l1 3zM125 11l6 142h-65l-24 -113zM79 385h58l-12 132h-35zM241 461l2 -3q-3 -14 -22 -23v26h20z M235 270l-11 -9l-15 27l6 6zM419 850q25 -40 25 -78q0 -4 -2 -20l-65 -47q-21 13 -25 18l-22 21l-120 -97l-71 -5l36 75l106 98q-13 35 -15 53l59 50q55 -14 94 -68zM412 820q-11 22 -33 43t-49 30q-9 -11 -9 -22q0 -20 23.5 -55.5t54.5 -57.5l14 3q8 7 8 21q0 13 -9 38z M169 662l43 7l72 60l2 27l9 -12l23 12q-21 32 -24 42l-104 -90zM304 871l-15 -11q11 -77 84 -127l23 14q-26 23 -40 36t-31 38t-21 50z" />
<glyph unicode="&#xca;" horiz-adv-x="562" d="M528 545l37 -145l-245 -24v-47q20 -1 70 -3t77 -4q0 -16 -8 -168l-142 10v-25l177 -42q-3 -14 -11.5 -65.5t-14.5 -79.5q-129 25 -263 25q-28 0 -80 -2v27q-18 3 -53.5 7t-51.5 6l28 159l83 -5l7 193q-16 -1 -83 -8q3 38 9.5 103.5t8.5 82.5l70 -4v38q31 -2 88.5 -4 t79.5 -3l17 -18q37 0 108 -2t92 -2zM287 33l3 504l-3 2q-2 -6 -9 -25t-10 -29l-20 64h-24q-19 -23 -21 -26l-37 34v-541h8l18 82l10 -88l23 1l19 78l10 -78zM322 403l214 18l-10 31q-8 0 -26.5 2.5t-27.5 3.5l49 14l-2 22q-23 0 -57 4l55 26l-1 3h-194v-124zM476 75l-159 30 l-21 -106l156 -25l1 2q-27 19 -31 31q2 0 11 -2.5t14 -2.5l15 1q-7 14 -41 28q23 1 33.5 9.5t21.5 34.5zM391 207l62 18q-10 3 -28.5 10t-23.5 9l44 11v55h-122v-116l110 -5l1 3zM125 11l6 142h-65l-24 -113zM79 385h58l-12 132h-35zM241 461l2 -3q-3 -14 -22 -23v26h20z M235 270l-11 -9l-15 27l6 6zM440 628q-43 -25 -76 -25q-3 0 -19 2l-47 66q6 13 21 29t17 19l-46 60l-8 1l-79 -98l-86 -46v89l129 152q13 8 34 8q17 0 30 -8l96 -108q26 11 51 16l50 -60q-16 -57 -67 -97zM299 796l23 -29l27 -3l-13 -9l13 -24q17 17 40 25l-53 69l-28 32 q-15 6 -26 6q-14 0 -27 -6l-120 -138l-4 -61l55 41l95 103l9 -2l9 28v-32zM411 636q51 26 71 83q-8 9 -21 9q-23 0 -54.5 -22.5t-56.5 -54.5l3 -18q8 -8 20 -8q7 0 38 11zM461 745l-12 16q-77 -13 -124 -87l14 -22q22 25 36.5 40t38 30.5t47.5 22.5z" />
<glyph unicode="&#xcb;" horiz-adv-x="562" d="M528 545l37 -145l-245 -24v-47q20 -1 70 -3t77 -4q0 -16 -8 -168l-142 10v-25l177 -42q-3 -14 -11.5 -65.5t-14.5 -79.5q-129 25 -263 25q-28 0 -80 -2v27q-18 3 -53.5 7t-51.5 6l28 159l83 -5l7 193q-16 -1 -83 -8q3 38 9.5 103.5t8.5 82.5l70 -4v38q31 -2 88.5 -4 t79.5 -3l17 -18q37 0 108 -2t92 -2zM287 33l3 504l-3 2q-2 -6 -9 -25t-10 -29l-20 64h-24q-19 -23 -21 -26l-37 34v-541h8l18 82l10 -88l23 1l19 78l10 -78zM322 403l214 18l-10 31q-8 0 -26.5 2.5t-27.5 3.5l49 14l-2 22q-23 0 -57 4l55 26l-1 3h-194v-124zM476 75l-159 30 l-21 -106l156 -25l1 2q-27 19 -31 31q2 0 11 -2.5t14 -2.5l15 1q-7 14 -41 28q23 1 33.5 9.5t21.5 34.5zM391 207l62 18q-10 3 -28.5 10t-23.5 9l44 11v55h-122v-116l110 -5l1 3zM125 11l6 142h-65l-24 -113zM79 385h58l-12 132h-35zM241 461l2 -3q-3 -14 -22 -23v26h20z M235 270l-11 -9l-15 27l6 6zM141 702q0 38 23 64t57 26q26 0 47 -15.5t32 -40.5q7 29 28 47t50 18q34 0 58.5 -25t24.5 -61q0 -37 -24 -62t-59 -25q-27 0 -48 14.5t-28 40.5q-7 -28 -29.5 -46t-51.5 -18q-34 0 -57 23.5t-23 59.5zM318 714q0 -26 17.5 -43t42.5 -17t43.5 18 t18.5 44t-18.5 43t-43.5 17t-42.5 -18t-17.5 -44zM162 703q0 -24 17.5 -41t41.5 -17q27 0 45 17t18 44t-18 44t-45 17q-24 0 -41.5 -18.5t-17.5 -45.5z" />
<glyph unicode="&#xcc;" horiz-adv-x="278" d="M84 611l166 -17v-610l-193 -23zM206 19l10 1v557l-28 -5l-17 -62l-9 62l-14 1l-14 -70l-17 73l-7 1l-19 -582l49 13l9 94l20 -87l19 1l8 51zM121 889l66 -49q-3 -13 -21 -56l128 -86l27 -66l-79 11l-127 70q-21 -21 -43 -32l-65 40q0 57 30.5 108.5t83.5 59.5zM70 838 q-43 -45 -43 -104q6 -3 14 -3q22 0 50 36t39 77l-6 14l-8 3h-5q-8 0 -14.5 -3t-16.5 -12zM294 652l-19 41l-80 50l-26 -7l10 17l-21 14q-7 -19 -30 -37l116 -71zM56 717l17 -11q63 36 89 123l-21 17q-32 -96 -85 -129z" />
<glyph unicode="&#xcd;" horiz-adv-x="278" d="M84 611l166 -17v-610l-193 -23zM206 19l10 1v557l-28 -5l-17 -62l-9 62l-14 1l-14 -70l-17 73l-7 1l-19 -582l49 13l9 94l20 -87l19 1l8 51zM283 842q25 -40 25 -78q0 -4 -2 -20l-65 -47q-21 13 -25 18l-22 21l-120 -97l-71 -5l36 75l106 98q-13 35 -15 53l59 50 q55 -14 94 -68zM276 812q-11 22 -33 43t-49 30q-9 -11 -9 -22q0 -20 23.5 -55.5t54.5 -57.5l14 3q8 7 8 21q0 13 -9 38zM33 654l43 7l72 60l2 27l9 -12l23 12q-21 32 -24 42l-104 -90zM168 863l-15 -11q11 -77 84 -127l23 14q-26 23 -40 36t-31 38t-21 50z" />
<glyph unicode="&#xce;" horiz-adv-x="278" d="M84 611l166 -17v-610l-193 -23zM206 19l10 1v557l-28 -5l-17 -62l-9 62l-14 1l-14 -70l-17 73l-7 1l-19 -582l49 13l9 94l20 -87l19 1l8 51zM317 647q-43 -25 -76 -25q-3 0 -19 2l-47 66q6 13 21 29t17 19l-46 60l-8 1l-79 -98l-86 -46v89l129 152q13 8 34 8q17 0 30 -8 l96 -108q26 11 51 16l50 -60q-16 -57 -67 -97zM176 815l23 -29l27 -3l-13 -9l13 -24q18 18 40 25l-53 69l-28 32q-15 6 -26 6q-13 0 -27 -6l-120 -138l-4 -61l55 41l95 103l9 -2l9 28v-32zM288 655q51 26 71 83q-7 9 -21 9q-23 0 -54.5 -22.5t-56.5 -54.5l3 -18q8 -8 20 -8 q7 0 38 11zM338 764l-12 16q-77 -13 -124 -87l14 -22q22 25 36.5 40t38 30.5t47.5 22.5z" />
<glyph unicode="&#xcf;" horiz-adv-x="278" d="M84 611l166 -17v-610l-193 -23zM206 19l10 1v557l-28 -5l-17 -62l-9 62l-14 1l-14 -70l-17 73l-7 1l-19 -582l49 13l9 94l20 -87l19 1l8 51zM4 749q0 38 23 64t57 26q26 0 47 -15.5t32 -40.5q7 29 28 47t50 18q34 0 58.5 -25t24.5 -61q0 -37 -24 -62t-59 -25 q-27 0 -48 14.5t-28 40.5q-7 -28 -29.5 -46t-51.5 -18q-34 0 -57 23.5t-23 59.5zM181 761q0 -26 17.5 -43t42.5 -17t43.5 18t18.5 44t-18.5 43t-43.5 17t-42.5 -18t-17.5 -44zM25 750q0 -24 17.5 -41t41.5 -17q27 0 45 17t18 44t-18 44t-45 17q-24 0 -41.5 -18.5 t-17.5 -45.5z" />
<glyph unicode="&#xd0;" horiz-adv-x="570" d="M96 318l78 -1v13q-72 -2 -113 -10q-7 14 -7 57q0 61 13 129l103 12l3 46l188 13l9 -28q1 0 9 -5t25 -14.5t35 -19.5q131 -70 131 -234q0 -108 -66.5 -195t-156.5 -87q-5 0 -5 -7v-7h-175v7q-10 -2 -39 -6t-44 -7l-11 206l102 4v14h-59zM329 516q0 44 -26 44 q-6 0 -9.5 -17.5t-7 -41.5t-9.5 -34v9q0 7 -7 35t-7 33l-14 1l-6 -69l-13 68q-18 -2 -28 -9q-4 -27 -4 -101q0 -25 2.5 -137t2.5 -136q0 -84 -9 -158h10l18 65v-63l38 2l21 102v-101l36 3q-4 58 -4 95t8 204t8 206zM536 250q0 95 -47.5 171.5t-121.5 96.5q-12 -79 -12 -117 q0 -18 2 -44q72 -38 72 -100q0 -36 -22.5 -63.5t-58.5 -40.5v-137q91 18 139.5 79.5t48.5 154.5zM171 356v80l-15 -1q-14 0 -19 8q30 30 32 33q-4 0 -4 9q0 1 0.5 3t0.5 3l-78 -11l-5 -68q10 -1 45 -15q-17 -4 -46 -20q6 -2 6 -12q0 -12 -4 -19q40 11 73 11q14 0 14 -1z M172 11l2 49q-10 -2 -12 -2q-18 0 -38 18q3 1 7 2q22 5 27 12l3 3q3 4 5 7l7 25q-13 -4 -22 -4q-6 0 -23 5q24 10 39 36h-65l8 -151h62zM395 258q0 27 -12 46t-30 22l-5 -138q47 15 47 70zM175 219v55l-36 -5h-22l4 -16l43 -5l-42 -5l3 -24h50zM480 364q-2 3 -15.5 18.5 t-18.5 20.5t-16.5 14.5t-23 13.5t-25.5 5q11 8 23 8q24 0 50 -28t26 -52zM116 279h58v23h-62zM449 335l-30 28q-6 6 -35 22q5 7 14 7q18 0 34.5 -19.5t16.5 -37.5zM266 431l5 -5q0 -8 -7 -8q-6 0 -15 9l8 8zM257 114l9 -7v-7l-17 7z" />
<glyph unicode="&#xd1;" horiz-adv-x="720" d="M671 174l49 -53l-48 -40l2 -111q-30 0 -189 19l-5 38l-182 179l7 -214q-17 -5 -36 -5q-10 0 -59.5 6t-63.5 6h-8l-40 368l-71 68l60 65l3 90l193 9l11 -108l186 -187l7 279l197 -19zM649 7l8 519l-65 20v-104l-20 101l-19 -86l-13 86l-34 7v-528l25 -2l6 64l20 -69l25 -4 l7 87l24 -87zM235 24l42 -2v72q0 18 -0.5 59t-0.5 61v89q-6 214 -27 262l-38 3l-13 -92l-14 84l-9 1l-13 -112l-25 117l-15 -6l40 -535l16 2l12 101l14 -94l16 64zM295 245l190 -191v212l-184 192v-69l61 -99l-63 60v-30l62 -66l-65 35zM55 439l37 -36v68zM675 107l19 14 l-26 24zM228 411q0 -6 -9 -11q-11 5 -11 11q0 5 11 10q9 -4 9 -10zM575 138l9 -9l-9 -8l-9 8zM589 875l-8 -76l-86 -76q-29 -9 -43 -9q-18 0 -26 8l-50 68l-59 -36q9 -31 9 -41q0 -3 -0.5 -8t-0.5 -7l-72 -33q-37 18 -59.5 57t-22.5 83q0 22 4 30l58 28q11 0 22 -7t14.5 -11 t15.5 -19l74 52q26 6 27 6q16 0 31 -12l45 -70l64 56zM574 853l-39 -8l-60 -58l-10 -31l-11 33l-45 67q-14 11 -26 11q-9 0 -21 -6l-65 -42l13 -17l7 -32l52 36l16 38l6 -41l35 -59q12 -11 32 -11q11 0 28 5l79 67zM195 766q7 -22 26.5 -46t44.5 -37q13 11 13 28 q0 22 -19 56t-44 59h-18q-9 -8 -9 -25q0 -6 3 -18t3 -17zM294 703l18 11q-1 75 -68 134l-25 -11q69 -71 75 -134z" />
<glyph unicode="&#xd2;" horiz-adv-x="614" d="M614 321q0 -73 -37.5 -149.5t-97 -126.5t-118.5 -50q-134 0 -226 89t-92 218t78.5 212.5t204.5 83.5q124 0 206 -78.5t82 -198.5zM584 336q0 111 -60.5 173.5t-170.5 62.5q-125 0 -199.5 -65t-74.5 -180q0 -123 85.5 -216t205.5 -93q56 0 106 48t79 121.5t29 148.5z M454 290q0 -56 -42.5 -95t-100.5 -39q-50 0 -79 33.5t-29 89.5q0 54 40 90.5t96 36.5q52 0 83.5 -32t31.5 -84zM424 280q0 42 -29.5 74t-68.5 32q-35 0 -63 -37t-28 -76q0 -35 16.5 -60.5t53.5 -25.5q54 0 86.5 25.5t32.5 67.5zM519 405q-14 31 -37.5 51t-94.5 61 q43 0 86.5 -34.5t45.5 -77.5zM192 169h-3q-13 0 -27.5 36t-14.5 66q0 25 9 40q9 -102 36 -142zM459 149q-3 -19 -32.5 -35t-56.5 -16t-27 18l11 -1q2 0 5 -0.5t4 -0.5q45 0 96 35zM171 147q-55 46 -55 124q0 23 4 35q17 -105 51 -159zM465 389q-41 39 -51 47.5t-28 16.5h10 q28 0 48.5 -18.5t20.5 -45.5zM462 105q0 -16 -20 -26.5t-45 -10.5q-9 0 -10 1l-16 2q60 14 91 34zM288 878l66 -49q-3 -13 -21 -56l128 -86l27 -66l-79 11l-127 70q-21 -21 -43 -32l-65 40q0 57 30.5 108.5t83.5 59.5zM237 827q-43 -45 -43 -104q6 -3 14 -3q22 0 50 36 t39 77l-6 14l-8 3h-5q-8 0 -14.5 -3t-16.5 -11zM461 641l-19 41l-80 50l-26 -7l10 17l-21 14q-7 -19 -30 -37l116 -71zM223 706l17 -11q63 36 89 123l-21 17q-32 -96 -85 -129z" />
<glyph unicode="&#xd3;" horiz-adv-x="614" d="M614 321q0 -73 -37.5 -149.5t-97 -126.5t-118.5 -50q-134 0 -226 89t-92 218t78.5 212.5t204.5 83.5q124 0 206 -78.5t82 -198.5zM584 336q0 111 -60.5 173.5t-170.5 62.5q-125 0 -199.5 -65t-74.5 -180q0 -123 85.5 -216t205.5 -93q56 0 106 48t79 121.5t29 148.5z M454 290q0 -56 -42.5 -95t-100.5 -39q-50 0 -79 33.5t-29 89.5q0 54 40 90.5t96 36.5q52 0 83.5 -32t31.5 -84zM424 280q0 42 -29.5 74t-68.5 32q-35 0 -63 -37t-28 -76q0 -35 16.5 -60.5t53.5 -25.5q54 0 86.5 25.5t32.5 67.5zM519 405q-14 31 -37.5 51t-94.5 61 q43 0 86.5 -34.5t45.5 -77.5zM192 169h-3q-13 0 -27.5 36t-14.5 66q0 25 9 40q9 -102 36 -142zM459 149q-3 -19 -32.5 -35t-56.5 -16t-27 18l11 -1q2 0 5 -0.5t4 -0.5q45 0 96 35zM171 147q-55 46 -55 124q0 23 4 35q17 -105 51 -159zM465 389q-41 39 -51 47.5t-28 16.5h10 q28 0 48.5 -18.5t20.5 -45.5zM462 105q0 -16 -20 -26.5t-45 -10.5q-9 0 -10 1l-16 2q60 14 91 34zM471 830q25 -40 25 -78q0 -4 -2 -20l-65 -47q-21 13 -25 18l-22 21l-120 -97l-71 -5l36 75l106 98q-13 35 -15 53l59 50q55 -14 94 -68zM464 800q-11 22 -33 43t-49 30 q-9 -11 -9 -22q0 -20 23.5 -55.5t54.5 -57.5l14 3q8 7 8 21q0 13 -9 38zM221 642l43 7l72 60l2 27l9 -12l23 12q-21 32 -24 42l-104 -90zM356 851l-15 -11q11 -77 84 -127l23 14q-26 23 -40 36t-31 38t-21 50z" />
<glyph unicode="&#xd4;" horiz-adv-x="614" d="M614 321q0 -73 -37.5 -149.5t-97 -126.5t-118.5 -50q-134 0 -226 89t-92 218t78.5 212.5t204.5 83.5q124 0 206 -78.5t82 -198.5zM584 336q0 111 -60.5 173.5t-170.5 62.5q-125 0 -199.5 -65t-74.5 -180q0 -123 85.5 -216t205.5 -93q56 0 106 48t79 121.5t29 148.5z M454 290q0 -56 -42.5 -95t-100.5 -39q-50 0 -79 33.5t-29 89.5q0 54 40 90.5t96 36.5q52 0 83.5 -32t31.5 -84zM424 280q0 42 -29.5 74t-68.5 32q-35 0 -63 -37t-28 -76q0 -35 16.5 -60.5t53.5 -25.5q54 0 86.5 25.5t32.5 67.5zM519 405q-14 31 -37.5 51t-94.5 61 q43 0 86.5 -34.5t45.5 -77.5zM192 169h-3q-13 0 -27.5 36t-14.5 66q0 25 9 40q9 -102 36 -142zM459 149q-3 -19 -32.5 -35t-56.5 -16t-27 18l11 -1q2 0 5 -0.5t4 -0.5q45 0 96 35zM171 147q-55 46 -55 124q0 23 4 35q17 -105 51 -159zM465 389q-41 39 -51 47.5t-28 16.5h10 q28 0 48.5 -18.5t20.5 -45.5zM462 105q0 -16 -20 -26.5t-45 -10.5q-9 0 -10 1l-16 2q60 14 91 34zM494 645q-43 -25 -76 -25q-3 0 -19 2l-47 66q6 13 21 29t17 19l-46 60l-8 1l-79 -98l-86 -46v89l129 152q13 8 34 8q17 0 30 -8l96 -108q26 11 51 16l50 -60q-16 -57 -67 -97 zM353 813l23 -29l27 -3l-13 -9l13 -24q17 18 40 25l-53 69l-28 32q-15 6 -26 6q-14 0 -27 -6l-120 -138l-4 -61l55 41l95 103l9 -2l9 28v-32zM465 653q51 26 71 83q-8 9 -21 9q-23 0 -54.5 -22.5t-56.5 -54.5l3 -18q8 -8 20 -8q7 0 38 11zM515 762l-12 16q-77 -13 -124 -87 l14 -22q22 25 36.5 40t38 30.5t47.5 22.5z" />
<glyph unicode="&#xd5;" horiz-adv-x="614" d="M614 321q0 -73 -37.5 -149.5t-97 -126.5t-118.5 -50q-134 0 -226 89t-92 218t78.5 212.5t204.5 83.5q124 0 206 -78.5t82 -198.5zM584 336q0 111 -60.5 173.5t-170.5 62.5q-125 0 -199.5 -65t-74.5 -180q0 -123 85.5 -216t205.5 -93q56 0 106 48t79 121.5t29 148.5z M454 290q0 -56 -42.5 -95t-100.5 -39q-50 0 -79 33.5t-29 89.5q0 54 40 90.5t96 36.5q52 0 83.5 -32t31.5 -84zM424 280q0 42 -29.5 74t-68.5 32q-35 0 -63 -37t-28 -76q0 -35 16.5 -60.5t53.5 -25.5q54 0 86.5 25.5t32.5 67.5zM519 405q-14 31 -37.5 51t-94.5 61 q43 0 86.5 -34.5t45.5 -77.5zM192 169h-3q-13 0 -27.5 36t-14.5 66q0 25 9 40q9 -102 36 -142zM459 149q-3 -19 -32.5 -35t-56.5 -16t-27 18l11 -1q2 0 5 -0.5t4 -0.5q45 0 96 35zM171 147q-55 46 -55 124q0 23 4 35q17 -105 51 -159zM465 389q-41 39 -51 47.5t-28 16.5h10 q28 0 48.5 -18.5t20.5 -45.5zM462 105q0 -16 -20 -26.5t-45 -10.5q-9 0 -10 1l-16 2q60 14 91 34zM531 840l-8 -76l-86 -76q-29 -9 -43 -9q-18 0 -26 8l-50 68l-59 -36q9 -31 9 -41q0 -2 -0.5 -7t-0.5 -8l-72 -33q-37 18 -59.5 57t-22.5 83q0 22 4 30l58 28q11 0 22 -7 t14.5 -11t15.5 -19l74 52q26 6 27 6q16 0 31 -12l45 -70l64 56zM516 818l-39 -8l-60 -58l-10 -31l-11 33l-45 67q-14 11 -26 11q-9 0 -21 -6l-65 -42l13 -17l7 -32l52 36l16 38l6 -41l35 -59q12 -11 32 -11q11 0 28 5l79 67zM137 731q7 -22 26.5 -46t44.5 -37q13 11 13 28 q0 22 -19 56t-44 59h-18q-9 -7 -9 -25q0 -6 3 -18t3 -17zM236 668l18 11q-1 75 -68 134l-25 -11q69 -71 75 -134z" />
<glyph unicode="&#xd6;" horiz-adv-x="614" d="M614 321q0 -73 -37.5 -149.5t-97 -126.5t-118.5 -50q-134 0 -226 89t-92 218t78.5 212.5t204.5 83.5q124 0 206 -78.5t82 -198.5zM584 336q0 111 -60.5 173.5t-170.5 62.5q-125 0 -199.5 -65t-74.5 -180q0 -123 85.5 -216t205.5 -93q56 0 106 48t79 121.5t29 148.5z M454 290q0 -56 -42.5 -95t-100.5 -39q-50 0 -79 33.5t-29 89.5q0 54 40 90.5t96 36.5q52 0 83.5 -32t31.5 -84zM424 280q0 42 -29.5 74t-68.5 32q-35 0 -63 -37t-28 -76q0 -35 16.5 -60.5t53.5 -25.5q54 0 86.5 25.5t32.5 67.5zM519 405q-14 31 -37.5 51t-94.5 61 q43 0 86.5 -34.5t45.5 -77.5zM192 169h-3q-13 0 -27.5 36t-14.5 66q0 25 9 40q9 -102 36 -142zM459 149q-3 -19 -32.5 -35t-56.5 -16t-27 18l11 -1q2 0 5 -0.5t4 -0.5q45 0 96 35zM171 147q-55 46 -55 124q0 23 4 35q17 -105 51 -159zM465 389q-41 39 -51 47.5t-28 16.5h10 q28 0 48.5 -18.5t20.5 -45.5zM462 105q0 -16 -20 -26.5t-45 -10.5q-9 0 -10 1l-16 2q60 14 91 34zM161 734q0 38 23 64t57 26q26 0 47 -15.5t32 -40.5q7 29 28 47t50 18q34 0 58.5 -25t24.5 -61q0 -37 -24 -62t-59 -25q-27 0 -48 14.5t-28 40.5q-7 -28 -29.5 -46t-51.5 -18 q-34 0 -57 23.5t-23 59.5zM338 746q0 -26 17.5 -43t42.5 -17t43.5 18t18.5 44t-18.5 43t-43.5 17t-42.5 -18t-17.5 -44zM182 735q0 -24 17.5 -41t41.5 -17q27 0 45 17t18 44t-18 44t-45 17q-24 0 -41.5 -18.5t-17.5 -45.5z" />
<glyph unicode="&#xd7;" horiz-adv-x="627" d="M348 418l155 118l89 -152l-92 -87l97 -73l-127 -181l-136 131l-191 -135l-111 166l129 81l-125 95l137 146zM561 384l-114 -52l101 69l-54 75l-420 -284l49 -72l72 33l-63 -59l64 37l-46 -58l15 10q112 76 183 130t213 171zM181 303l141 91l-157 100l-34 -33l94 -76 l-109 58l-19 -22l78 -71l-103 45zM535 170l26 43l-95 59l-104 -82l104 -103l-22 74l54 -18l-32 54zM309 301l15 -5l-2 -15l-15 4z" />
<glyph unicode="&#xd8;" horiz-adv-x="614" d="M398 590l36 61l140 -91l-29 -53q69 -73 69 -186q0 -73 -37.5 -149.5t-97 -126.5t-118.5 -50q-42 0 -80 8l-33 -61l-164 84l39 68q-80 83 -80 208q0 130 79 213t210 83q28 0 66 -8zM241 -10l294 571l-27 7l-64 -83l34 92l-24 17l-50 -62l40 69l-10 12l-313 -570l32 -4 l72 100l6 -11l-39 -101l4 -5l68 75l7 -4l-58 -84zM203 279q0 88 90 119l93 167q-23 7 -33 7q-125 0 -199.5 -65t-74.5 -180q0 -111 64 -194l62 110q-2 24 -2 36zM584 336q0 94 -47 155l-87 -165q4 -16 4 -36q0 -86 -87 -125l-73 -138q43 -9 76 -9q83 0 148.5 101t65.5 217z M370 381l-6 -11q-5 -12 -15 -32.5t-19 -38.5l-29 -56l-16 -28q11 36 40 103t40 67q5 0 5 -4zM459 149q-3 -19 -32.5 -35t-56.5 -16t-27 18l11 -1q2 0 6 -1h3q45 0 96 35zM421 422q0 -10 -19 -62.5t-25 -52.5q-8 0 -8 7q12 34 52 108zM238 299l33 62q-31 -24 -33 -62z M424 274l-33 -62q30 22 33 62zM285 214v-1v1z" />
<glyph unicode="&#xd9;" d="M619 561l-1 -9q-11 -102 -11 -213v-28q0 -8 -1 -10q-39 -356 -283 -356q-139 0 -201.5 79.5t-62.5 261.5q0 20 3.5 111.5t3.5 110.5q0 23 -2 59l191 17q5 -30 5 -65q-3 -12 -3 -43l-2 -60q-5 -80 -5 -104q0 -146 74 -146q49 0 72 97t23 310v19l194 19q6 -25 6 -50z M590 521q0 41 -4 66h-19q-18 -69 -28 -119l1 117q-5 -4 -13 -4q-6 0 -6 3q-12 -21 -27 -89q-6 32 -6 74v13l-42 -7q3 -78 3 -88q0 -177 -33 -266t-93 -89q-100 0 -100 198q0 16 3.5 96t3.5 97v17q0 22 -14 22q-18 0 -46 -6l-4 -119l-23 112l-23 -3l10 -113l-25 112l-9 -5 v-25q0 -29 -1 -69.5t-2 -70t-1 -31.5q0 -187 48.5 -275t148.5 -88q127 0 186.5 47t81.5 167q33 183 33 326zM377 100q-23 -18 -62 -18q-33 0 -44 16q10 -5 33 -5q15 0 73 7zM392 67q-27 -19 -71 -19q-36 0 -48 18q25 -9 54 -9q34 0 65 10zM254 883l66 -49q-3 -13 -21 -56 l128 -86l27 -66l-79 11l-127 70q-21 -21 -43 -32l-65 40q0 57 30.5 108.5t83.5 59.5zM203 832q-43 -45 -43 -104q6 -3 14 -3q22 0 50 36t39 77l-6 14l-8 3h-5q-8 0 -14.5 -3t-16.5 -12zM427 646l-19 41l-80 50l-26 -7l10 17l-21 14q-7 -19 -30 -37l116 -71zM189 711l17 -11 q63 36 89 123l-21 17q-32 -96 -85 -129z" />
<glyph unicode="&#xda;" d="M619 561l-1 -9q-11 -102 -11 -213v-28q0 -8 -1 -10q-39 -356 -283 -356q-139 0 -201.5 79.5t-62.5 261.5q0 20 3.5 111.5t3.5 110.5q0 23 -2 59l191 17q5 -30 5 -65q-3 -12 -3 -43l-2 -60q-5 -80 -5 -104q0 -146 74 -146q49 0 72 97t23 310v19l194 19q6 -25 6 -50z M590 521q0 41 -4 66h-19q-18 -69 -28 -119l1 117q-5 -4 -13 -4q-6 0 -6 3q-12 -21 -27 -89q-6 32 -6 74v13l-42 -7q3 -78 3 -88q0 -177 -33 -266t-93 -89q-100 0 -100 198q0 16 3.5 96t3.5 97v17q0 22 -14 22q-18 0 -46 -6l-4 -119l-23 112l-23 -3l10 -113l-25 112l-9 -5 v-25q0 -29 -1 -69.5t-2 -70t-1 -31.5q0 -187 48.5 -275t148.5 -88q127 0 186.5 47t81.5 167q33 183 33 326zM377 100q-23 -18 -62 -18q-33 0 -44 16q10 -5 33 -5q15 0 73 7zM392 67q-27 -19 -71 -19q-36 0 -48 18q25 -9 54 -9q34 0 65 10zM472 825q25 -40 25 -78 q0 -4 -2 -20l-65 -47q-21 13 -25 18l-22 21l-120 -97l-71 -5l36 75l106 98q-13 35 -15 53l59 50q55 -14 94 -68zM465 795q-11 22 -33 43t-49 30q-9 -11 -9 -22q0 -20 23.5 -55.5t54.5 -57.5l14 3q8 7 8 21q0 13 -9 38zM222 637l43 7l72 60l2 27l9 -12l23 12q-21 32 -24 42 l-104 -90zM357 846l-15 -11q11 -77 84 -127l23 14q-26 23 -40 36t-31 38t-21 50z" />
<glyph unicode="&#xdb;" d="M619 561l-1 -9q-11 -102 -11 -213v-28q0 -8 -1 -10q-39 -356 -283 -356q-139 0 -201.5 79.5t-62.5 261.5q0 20 3.5 111.5t3.5 110.5q0 23 -2 59l191 17q5 -30 5 -65q-3 -12 -3 -43l-2 -60q-5 -80 -5 -104q0 -146 74 -146q49 0 72 97t23 310v19l194 19q6 -25 6 -50z M590 521q0 41 -4 66h-19q-18 -69 -28 -119l1 117q-5 -4 -13 -4q-6 0 -6 3q-12 -21 -27 -89q-6 32 -6 74v13l-42 -7q3 -78 3 -88q0 -177 -33 -266t-93 -89q-100 0 -100 198q0 16 3.5 96t3.5 97v17q0 22 -14 22q-18 0 -46 -6l-4 -119l-23 112l-23 -3l10 -113l-25 112l-9 -5 v-25q0 -29 -1 -69.5t-2 -70t-1 -31.5q0 -187 48.5 -275t148.5 -88q127 0 186.5 47t81.5 167q33 183 33 326zM377 100q-23 -18 -62 -18q-33 0 -44 16q10 -5 33 -5q15 0 73 7zM392 67q-27 -19 -71 -19q-36 0 -48 18q25 -9 54 -9q34 0 65 10zM497 634q-43 -25 -76 -25 q-3 0 -19 2l-47 66q6 13 21 29t17 19l-46 60l-8 1l-79 -98l-86 -46v89l129 152q13 8 34 8q17 0 30 -8l96 -108q26 11 51 16l50 -60q-16 -57 -67 -97zM356 802l23 -29l27 -3l-13 -9l13 -24q18 17 40 25l-53 69l-28 32q-15 6 -26 6q-13 0 -27 -6l-120 -138l-4 -61l55 41 l95 103l9 -2l9 28v-32zM468 642q51 26 71 83q-7 9 -21 9q-23 0 -54.5 -22.5t-56.5 -54.5l3 -18q8 -8 20 -8q7 0 38 11zM518 751l-12 16q-77 -13 -124 -87l14 -22q22 25 36.5 40t38 30.5t47.5 22.5z" />
<glyph unicode="&#xdc;" d="M619 561l-1 -9q-11 -102 -11 -213v-28q0 -8 -1 -10q-39 -356 -283 -356q-139 0 -201.5 79.5t-62.5 261.5q0 20 3.5 111.5t3.5 110.5q0 23 -2 59l191 17q5 -30 5 -65q-3 -12 -3 -43l-2 -60q-5 -80 -5 -104q0 -146 74 -146q49 0 72 97t23 310v19l194 19q6 -25 6 -50z M590 521q0 41 -4 66h-19q-18 -69 -28 -119l1 117q-5 -4 -13 -4q-6 0 -6 3q-12 -21 -27 -89q-6 32 -6 74v13l-42 -7q3 -78 3 -88q0 -177 -33 -266t-93 -89q-100 0 -100 198q0 16 3.5 96t3.5 97v17q0 22 -14 22q-18 0 -46 -6l-4 -119l-23 112l-23 -3l10 -113l-25 112l-9 -5 v-25q0 -29 -1 -69.5t-2 -70t-1 -31.5q0 -187 48.5 -275t148.5 -88q127 0 186.5 47t81.5 167q33 183 33 326zM377 100q-23 -18 -62 -18q-33 0 -44 16q10 -5 33 -5q15 0 73 7zM392 67q-27 -19 -71 -19q-36 0 -48 18q25 -9 54 -9q34 0 65 10zM166 736q0 38 23 64t57 26 q26 0 47 -15.5t32 -40.5q7 29 28 47t50 18q34 0 58.5 -25t24.5 -61q0 -37 -24 -62t-59 -25q-27 0 -48 14.5t-28 40.5q-7 -28 -29.5 -46t-51.5 -18q-34 0 -57 23.5t-23 59.5zM343 748q0 -26 17.5 -43t42.5 -17t43.5 18t18.5 44t-18.5 43t-43.5 17t-42.5 -18t-17.5 -44z M187 737q0 -24 17.5 -41t41.5 -17q27 0 45 17t18 44t-18 44t-45 17q-24 0 -41.5 -18.5t-17.5 -45.5z" />
<glyph unicode="&#xdd;" horiz-adv-x="565" d="M379 574l186 -98l-312 -551l-164 100l87 171l-187 212l137 164l159 -177zM245 -39l295 505l-28 10l-65 -83l44 92l-20 11l-73 -82l46 103l-50 24l-269 -502l17 -14l74 103l-57 -115l12 -8l62 66l-44 -81zM273 371l-143 153l-20 -22l60 -94l-76 72l-17 -18l71 -91l-89 73 l-26 -35l156 -186q4 9 84 148zM298 247l9 -9l-9 -9l-9 9zM410 850q25 -40 25 -78q0 -4 -2 -20l-65 -47q-21 13 -25 18l-22 21l-120 -97l-71 -5l36 75l106 98q-13 35 -15 53l59 50q55 -14 94 -68zM403 820q-11 22 -33 43t-49 30q-9 -11 -9 -22q0 -20 23.5 -55.5t54.5 -57.5 l14 3q8 7 8 21q0 13 -9 38zM160 662l43 7l72 60l2 27l9 -12l23 12q-21 32 -24 42l-104 -90zM295 871l-15 -11q11 -77 84 -127l23 14q-26 23 -40 36t-31 38t-21 50z" />
<glyph unicode="&#xde;" horiz-adv-x="640" d="M641 302q0 -86 -87.5 -136t-229.5 -50v-99l-219 -26q2 44 2 75q0 83 -46 166l43 18l3 47l-52 4l-25 153l78 13v144h186l8 -132q37 8 85 8q105 0 179.5 -52.5t74.5 -132.5zM260 36l38 10l-24 544l-90 4v-216l-22 215h-33v-582l42 6l23 120l13 -112l23 3l7 100zM605 310 q0 68 -65 108t-172 40q-32 0 -55 -4q4 -2 4 -10q0 -3 -1.5 -7.5t-1.5 -6.5l58 6l-58 -28v-12l58 -7l-57 -14l2 -30l45 2q80 0 80 -45q0 -33 -23 -52.5t-58 -19.5q-19 0 -40 6l-1 -83q43 -5 56 -5q104 0 166.5 43.5t62.5 118.5zM426 303q-30 27 -73 27q-26 0 -40 -11l2 -48 q28 -7 46 -7q47 0 65 39zM68 328l38 -6v124l-55 -7zM556 318q0 -14 -11 -38q-8 57 -35 108q46 -25 46 -70zM507 321q0 -14 -5 -24q-12 59 -51 98q24 -6 40 -27.5t16 -46.5zM87 223l15 -42v42h-15zM203 171q0 -7 -7 -7q-7 1 -7 9q0 7 7 7q7 -2 7 -9z" />
<glyph unicode="&#xdf;" horiz-adv-x="627" d="M599 457v-3q-30 -45 -57 -123q-1 -1 -14 -1q-10 0 -27.5 2t-23.5 2q-33 -4 -33 -33q0 -23 21.5 -35t79.5 -29q9 -3 13 -4q44 -21 44 -82q0 -79 -48.5 -126t-136.5 -47q-69 0 -124 29l5 18q-53 -56 -136 -56q-76 0 -146 42q5 13 21 44t29.5 56t13.5 28q22 -2 65 -29 q4 2 6.5 4t5.5 4.5t5 3.5q-5 10 -43 36t-44 34q-27 32 -27 88q0 79 66 139.5t148 60.5q65 0 100 -47q64 66 146 66q55 0 91 -42zM322 402q2 4 6 13t7 14q-35 29 -82 29q-70 0 -124 -54t-54 -124q0 -50 30 -86q6 -7 28 -22t40 -28t18 -18q0 -10 -17 -25.5t-31 -15.5 q-24 0 -50 20q-5 -7 -6 -12q8 -13 48 -38l-1 -5q-50 10 -60 21l-10 -19q16 -20 62 -34l-1 -3q-13 1 -73 20l-1 -1l-2 -4t-1 -4q98 -26 105 -26q58 0 111 45.5t53 96.5q0 33 -23 48.5t-86 34.5q-20 8 -28.5 19.5t-8.5 32.5q0 71 72 71q35 0 39 -10l3 1q1 3 2.5 5.5t1.5 3.5 q0 12 -36 37q13 0 45 -23l13 18q-1 6 -38 32q4 5 5 5h2q14 0 42 -15zM560 426q3 3 9 27q-31 22 -70 22q-70 0 -121.5 -55t-51.5 -124q0 -63 37 -99q9 -10 33 -22t42.5 -21.5t18.5 -16.5q0 -16 -19.5 -30.5t-31.5 -14.5q-22 0 -45 15l-6 -11q11 -16 53 -35v-4q-49 5 -63 14 l-8 -19q15 -16 66 -27v-5q-21 0 -75 14l-5 -9q91 -17 107 -17q56 7 103 53t47 96q0 12 -1.5 21t-7.5 16t-10.5 11.5t-17.5 9.5t-20 7t-27 8t-31 9q-45 9 -45 59q0 67 81 67q21 0 25 -8l2 3q4 5 4 8q-1 11 -39 34q16 0 48 -18l10 19q-2 6 -41 27q4 6 7 6q16 0 43 -10z M294 306q-39 13 -64 13q-36 0 -36 -34q0 -21 21.5 -34.5t75.5 -34.5q7 -3 10 -4q38 -22 38 -64q0 -9 -2 -27l8 18q26 0 67 -22l16 14q-13 13 -47 30.5t-55.5 43t-26.5 72.5q-4 27 -5 29zM533 149v-6q0 -31 -30 -55q14 51 14 59q0 23 -29 51l2 4q40 -23 43 -53zM268 130 q0 -35 -35 -59q20 57 20 60q0 23 -24 52l1 3q38 -24 38 -56zM231 142q0 -23 -10.5 -42t-29.5 -23q25 25 25 53q0 23 -18 41h8q25 0 25 -29zM150 348l3 -3q-12 -18 -16 -99q-12 18 -12 43q0 47 25 59zM494 157v-5l1 -4q0 -47 -33 -59q20 26 20 50q0 27 -23 44l11 1 q22 0 24 -27zM122 353l3 -5q-23 -32 -23 -76q0 -5 1.5 -15.5t1.5 -12.5h-4q-8 19 -8 41q0 59 29 68zM394 354l3 -1q-8 -16 -8 -64v-27q0 -7 1 -9q-15 23 -15 54q0 37 19 47zM367 356l3 -3q-17 -26 -17 -62q0 -27 6 -44l-4 -1q-11 21 -11 58q0 40 23 52z" />
<glyph unicode="&#xe0;" horiz-adv-x="495" d="M495 20l-11 -6q-16 2 -17 2q-9 0 -22.5 -5t-26.5 -12t-24.5 -13.5t-19.5 -11.5l-7 -5q0 25 -33 77q-76 -14 -129 -14q-2 -6 -8 -20.5t-12.5 -31t-14.5 -32.5q-5 2 -22 9t-32 12t-23 5q-14 0 -24 -5q0 8 -13 27l-13 18q-17 46 -17 141q44 0 72 17q11 7 42 103t31 111 q0 4 -9 31.5t-9 35.5q27 0 51.5 16t24.5 38q0 8 -1 9q56 -9 116 -67l21 4q-4 -10 -9 -24.5t-12 -37t-12 -37.5q33 -39 90 -179h43q9 0 11 1q5 -17 11 -83.5t8 -72.5zM330 421q0 14 -9 26q-26 -12 -47 -35q5 21 22 47l-24 12l-35 -51q20 47 25 56l-12 6q-21 -47 -40 -94.5 t-32.5 -82.5t-47.5 -128t-62 -166l20 -4l35 68v-8q0 -29 -7 -68l37 58l-8 -73l12 -8q34 92 173 445zM450 34l8 10l-130 286q-45 -66 -45 -100q0 -38 45 -125.5t74 -88.5l-23 43l45 -25q-5 9 -5 18v11q16 -21 31 -29zM324 65v14q-19 1 -62 11q12 4 49 10q-17 10 -41 16 q20 6 20 17q0 8 -35 8h-6q-26 -53 -35 -87q56 0 110 11zM458 82l2 73h-26zM61 68l24 66l-29 -3q5 -52 5 -59v-4zM192 401l23 48l-37 -14zM252 163l33 -8l-17 45zM387 114q0 -12 -10 -12q-9 4 -9 12q0 11 9 11q10 -4 10 -11zM162 106q0 -12 -9 -12q-8 4 -8 12q0 10 8 10 q9 -4 9 -10zM262 376q0 -9 -8 -9q-7 3 -7 9q0 9 7 9q8 -3 8 -9zM213 808l66 -49q-3 -13 -21 -56l128 -86l27 -66l-79 11l-127 70q-21 -21 -43 -32l-65 40q0 57 30.5 108.5t83.5 59.5zM162 757q-43 -45 -43 -104q6 -3 14 -3q22 0 50 36t39 77l-6 14l-8 3h-5q-8 0 -14.5 -3 t-16.5 -11zM386 571l-19 41l-80 50l-26 -7l10 17l-21 14q-7 -19 -30 -37l116 -71zM148 636l17 -11q63 36 89 123l-21 17q-32 -96 -85 -129z" />
<glyph unicode="&#xe1;" horiz-adv-x="495" d="M495 20l-11 -6q-16 2 -17 2q-9 0 -22.5 -5t-26.5 -12t-24.5 -13.5t-19.5 -11.5l-7 -5q0 25 -33 77q-76 -14 -129 -14q-2 -6 -8 -20.5t-12.5 -31t-14.5 -32.5q-5 2 -22 9t-32 12t-23 5q-14 0 -24 -5q0 8 -13 27l-13 18q-17 46 -17 141q44 0 72 17q11 7 42 103t31 111 q0 4 -9 31.5t-9 35.5q27 0 51.5 16t24.5 38q0 8 -1 9q56 -9 116 -67l21 4q-4 -10 -9 -24.5t-12 -37t-12 -37.5q33 -39 90 -179h43q9 0 11 1q5 -17 11 -83.5t8 -72.5zM330 421q0 14 -9 26q-26 -12 -47 -35q5 21 22 47l-24 12l-35 -51q20 47 25 56l-12 6q-21 -47 -40 -94.5 t-32.5 -82.5t-47.5 -128t-62 -166l20 -4l35 68v-8q0 -29 -7 -68l37 58l-8 -73l12 -8q34 92 173 445zM450 34l8 10l-130 286q-45 -66 -45 -100q0 -38 45 -125.5t74 -88.5l-23 43l45 -25q-5 9 -5 18v11q16 -21 31 -29zM324 65v14q-19 1 -62 11q12 4 49 10q-17 10 -41 16 q20 6 20 17q0 8 -35 8h-6q-26 -53 -35 -87q56 0 110 11zM458 82l2 73h-26zM61 68l24 66l-29 -3q5 -52 5 -59v-4zM192 401l23 48l-37 -14zM252 163l33 -8l-17 45zM387 114q0 -12 -10 -12q-9 4 -9 12q0 11 9 11q10 -4 10 -11zM162 106q0 -12 -9 -12q-8 4 -8 12q0 10 8 10 q9 -4 9 -10zM262 376q0 -9 -8 -9q-7 3 -7 9q0 9 7 9q8 -3 8 -9zM392 738q25 -40 25 -78q0 -4 -2 -20l-65 -47q-21 13 -25 18l-22 21l-120 -97l-71 -5l36 75l106 98q-13 35 -15 53l59 50q55 -14 94 -68zM385 708q-11 22 -33 43t-49 30q-9 -11 -9 -22q0 -20 23.5 -55.5 t54.5 -57.5l14 3q8 7 8 21q0 13 -9 38zM142 550l43 7l72 60l2 27l9 -12l23 12q-21 32 -24 42l-104 -90zM277 759l-15 -11q11 -77 84 -127l23 14q-26 23 -40 36t-31 38t-21 50z" />
<glyph unicode="&#xe2;" horiz-adv-x="495" d="M495 20l-11 -6q-16 2 -17 2q-9 0 -22.5 -5t-26.5 -12t-24.5 -13.5t-19.5 -11.5l-7 -5q0 25 -33 77q-76 -14 -129 -14q-2 -6 -8 -20.5t-12.5 -31t-14.5 -32.5q-5 2 -22 9t-32 12t-23 5q-14 0 -24 -5q0 8 -13 27l-13 18q-17 46 -17 141q44 0 72 17q11 7 42 103t31 111 q0 4 -9 31.5t-9 35.5q27 0 51.5 16t24.5 38q0 8 -1 9q56 -9 116 -67l21 4q-4 -10 -9 -24.5t-12 -37t-12 -37.5q33 -39 90 -179h43q9 0 11 1q5 -17 11 -83.5t8 -72.5zM330 421q0 14 -9 26q-26 -12 -47 -35q5 21 22 47l-24 12l-35 -51q20 47 25 56l-12 6q-21 -47 -40 -94.5 t-32.5 -82.5t-47.5 -128t-62 -166l20 -4l35 68v-8q0 -29 -7 -68l37 58l-8 -73l12 -8q34 92 173 445zM450 34l8 10l-130 286q-45 -66 -45 -100q0 -38 45 -125.5t74 -88.5l-23 43l45 -25q-5 9 -5 18v11q16 -21 31 -29zM324 65v14q-19 1 -62 11q12 4 49 10q-17 10 -41 16 q20 6 20 17q0 8 -35 8h-6q-26 -53 -35 -87q56 0 110 11zM458 82l2 73h-26zM61 68l24 66l-29 -3q5 -52 5 -59v-4zM192 401l23 48l-37 -14zM252 163l33 -8l-17 45zM387 114q0 -12 -10 -12q-9 4 -9 12q0 11 9 11q10 -4 10 -11zM162 106q0 -12 -9 -12q-8 4 -8 12q0 10 8 10 q9 -4 9 -10zM262 376q0 -9 -8 -9q-7 3 -7 9q0 9 7 9q8 -3 8 -9zM414 563q-43 -25 -76 -25q-3 0 -19 2l-47 66q6 13 21 29t17 19l-46 60l-8 1l-79 -98l-86 -46v89l129 152q13 8 34 8q17 0 30 -8l96 -108q26 11 51 16l50 -60q-16 -57 -67 -97zM273 731l23 -29l27 -3l-13 -9 l13 -24q18 18 40 25l-53 69l-28 32q-15 6 -26 6q-14 0 -27 -6l-120 -138l-4 -61l55 41l95 103l9 -2l9 28v-32zM385 571q51 26 71 83q-8 9 -21 9q-23 0 -54.5 -22.5t-56.5 -54.5l3 -18q8 -8 20 -8q7 0 38 11zM435 680l-12 16q-77 -13 -124 -87l14 -22q22 25 36.5 40t38 30.5 t47.5 22.5z" />
<glyph unicode="&#xe3;" horiz-adv-x="495" d="M495 20l-11 -6q-16 2 -17 2q-9 0 -22.5 -5t-26.5 -12t-24.5 -13.5t-19.5 -11.5l-7 -5q0 25 -33 77q-76 -14 -129 -14q-2 -6 -8 -20.5t-12.5 -31t-14.5 -32.5q-5 2 -22 9t-32 12t-23 5q-14 0 -24 -5q0 8 -13 27l-13 18q-17 46 -17 141q44 0 72 17q11 7 42 103t31 111 q0 4 -9 31.5t-9 35.5q27 0 51.5 16t24.5 38q0 8 -1 9q56 -9 116 -67l21 4q-4 -10 -9 -24.5t-12 -37t-12 -37.5q33 -39 90 -179h43q9 0 11 1q5 -17 11 -83.5t8 -72.5zM330 421q0 14 -9 26q-26 -12 -47 -35q5 21 22 47l-24 12l-35 -51q20 47 25 56l-12 6q-21 -47 -40 -94.5 t-32.5 -82.5t-47.5 -128t-62 -166l20 -4l35 68v-8q0 -29 -7 -68l37 58l-8 -73l12 -8q34 92 173 445zM450 34l8 10l-130 286q-45 -66 -45 -100q0 -38 45 -125.5t74 -88.5l-23 43l45 -25q-5 9 -5 18v11q16 -21 31 -29zM324 65v14q-19 1 -62 11q12 4 49 10q-17 10 -41 16 q20 6 20 17q0 8 -35 8h-6q-26 -53 -35 -87q56 0 110 11zM458 82l2 73h-26zM61 68l24 66l-29 -3q5 -52 5 -59v-4zM192 401l23 48l-37 -14zM252 163l33 -8l-17 45zM387 114q0 -12 -10 -12q-9 4 -9 12q0 11 9 11q10 -4 10 -11zM162 106q0 -12 -9 -12q-8 4 -8 12q0 10 8 10 q9 -4 9 -10zM262 376q0 -9 -8 -9q-7 3 -7 9q0 9 7 9q8 -3 8 -9zM482 742l-8 -76l-86 -76q-29 -9 -43 -9q-18 0 -26 8l-50 68l-59 -36q9 -31 9 -41q0 -2 -0.5 -7t-0.5 -8l-72 -33q-37 18 -59.5 57t-22.5 83q0 22 4 30l58 28q11 0 22 -7t14.5 -11t15.5 -19l74 52q26 6 27 6 q16 0 31 -12l45 -70l64 56zM467 720l-39 -8l-60 -58l-10 -31l-11 33l-45 67q-14 11 -26 11q-9 0 -21 -6l-65 -42l13 -17l7 -32l52 36l16 38l6 -41l35 -59q12 -11 32 -11q11 0 28 5l79 67zM88 633q7 -22 26.5 -46t44.5 -37q13 11 13 28q0 22 -19 56t-44 59h-18q-9 -7 -9 -25 q0 -6 3 -18t3 -17zM187 570l18 11q-1 75 -68 134l-25 -11q69 -71 75 -134z" />
<glyph unicode="&#xe4;" horiz-adv-x="495" d="M495 20l-11 -6q-16 2 -17 2q-9 0 -22.5 -5t-26.5 -12t-24.5 -13.5t-19.5 -11.5l-7 -5q0 25 -33 77q-76 -14 -129 -14q-2 -6 -8 -20.5t-12.5 -31t-14.5 -32.5q-5 2 -22 9t-32 12t-23 5q-14 0 -24 -5q0 8 -13 27l-13 18q-17 46 -17 141q44 0 72 17q11 7 42 103t31 111 q0 4 -9 31.5t-9 35.5q27 0 51.5 16t24.5 38q0 8 -1 9q56 -9 116 -67l21 4q-4 -10 -9 -24.5t-12 -37t-12 -37.5q33 -39 90 -179h43q9 0 11 1q5 -17 11 -83.5t8 -72.5zM330 421q0 14 -9 26q-26 -12 -47 -35q5 21 22 47l-24 12l-35 -51q20 47 25 56l-12 6q-21 -47 -40 -94.5 t-32.5 -82.5t-47.5 -128t-62 -166l20 -4l35 68v-8q0 -29 -7 -68l37 58l-8 -73l12 -8q34 92 173 445zM450 34l8 10l-130 286q-45 -66 -45 -100q0 -38 45 -125.5t74 -88.5l-23 43l45 -25q-5 9 -5 18v11q16 -21 31 -29zM324 65v14q-19 1 -62 11q12 4 49 10q-17 10 -41 16 q20 6 20 17q0 8 -35 8h-6q-26 -53 -35 -87q56 0 110 11zM458 82l2 73h-26zM61 68l24 66l-29 -3q5 -52 5 -59v-4zM192 401l23 48l-37 -14zM252 163l33 -8l-17 45zM387 114q0 -12 -10 -12q-9 4 -9 12q0 11 9 11q10 -4 10 -11zM162 106q0 -12 -9 -12q-8 4 -8 12q0 10 8 10 q9 -4 9 -10zM262 376q0 -9 -8 -9q-7 3 -7 9q0 9 7 9q8 -3 8 -9zM102 641q0 38 23 64t57 26q26 0 47 -15.5t32 -40.5q7 29 28 47t50 18q34 0 58.5 -25t24.5 -61q0 -37 -24 -62t-59 -25q-27 0 -48 14.5t-28 40.5q-7 -28 -29.5 -46t-51.5 -18q-34 0 -57 23.5t-23 59.5zM279 653 q0 -26 17.5 -43t42.5 -17t43.5 18t18.5 44t-18.5 43t-43.5 17t-42.5 -18t-17.5 -44zM123 642q0 -24 17.5 -41t41.5 -17q27 0 45 17t18 44t-18 44t-45 17q-24 0 -41.5 -18.5t-17.5 -45.5z" />
<glyph unicode="&#xe5;" horiz-adv-x="495" d="M495 20l-11 -6q-16 2 -17 2q-9 0 -22.5 -5t-26.5 -12t-24.5 -13.5t-19.5 -11.5l-7 -5q0 25 -33 77q-76 -14 -129 -14q-2 -6 -8 -20.5t-12.5 -31t-14.5 -32.5q-5 2 -22 9t-32 12t-23 5q-14 0 -24 -5q0 8 -13 27l-13 18q-17 46 -17 141q44 0 72 17q11 7 42 103t31 111 q0 4 -9 31.5t-9 35.5q27 0 51.5 16t24.5 38q0 8 -1 9q56 -9 116 -67l21 4q-4 -10 -9 -24.5t-12 -37t-12 -37.5q33 -39 90 -179h43q9 0 11 1q5 -17 11 -83.5t8 -72.5zM330 421q0 14 -9 26q-26 -12 -47 -35q5 21 22 47l-24 12l-35 -51q20 47 25 56l-12 6q-21 -47 -40 -94.5 t-32.5 -82.5t-47.5 -128t-62 -166l20 -4l35 68v-8q0 -29 -7 -68l37 58l-8 -73l12 -8q34 92 173 445zM450 34l8 10l-130 286q-45 -66 -45 -100q0 -38 45 -125.5t74 -88.5l-23 43l45 -25q-5 9 -5 18v11q16 -21 31 -29zM324 65v14q-19 1 -62 11q12 4 49 10q-17 10 -41 16 q20 6 20 17q0 8 -35 8h-6q-26 -53 -35 -87q56 0 110 11zM458 82l2 73h-26zM61 68l24 66l-29 -3q5 -52 5 -59v-4zM192 401l23 48l-37 -14zM252 163l33 -8l-17 45zM387 114q0 -12 -10 -12q-9 4 -9 12q0 11 9 11q10 -4 10 -11zM162 106q0 -12 -9 -12q-8 4 -8 12q0 10 8 10 q9 -4 9 -10zM262 376q0 -9 -8 -9q-7 3 -7 9q0 9 7 9q8 -3 8 -9zM406 675q0 -47 -38.5 -92t-81.5 -45q-65 0 -108 36.5t-43 91.5q0 54 36.5 89t97.5 35q57 0 97 -33t40 -82zM384 680q0 92 -102 92q-58 0 -90.5 -25t-32.5 -71q0 -50 39 -86.5t92 -36.5q36 0 65 41.5t29 85.5z M332 661q0 -23 -21.5 -40.5t-49.5 -17.5q-24 0 -38 14.5t-14 39.5t18.5 40.5t47.5 15.5q26 0 41.5 -14.5t15.5 -37.5zM310 657q0 16 -12 28.5t-30 12.5q-14 0 -26 -14.5t-12 -28.5q0 -32 29 -32q51 0 51 34zM361 707q-10 14 -36.5 29.5t-32.5 20.5q26 0 47.5 -15t21.5 -35z M202 603q-33 15 -33 50q0 12 9 18q4 -37 24 -68zM331 608l3 -5q-2 -9 -16.5 -16.5t-27.5 -7.5q-16 0 -16 15q35 0 57 14zM206 609q-20 31 -20 43t7 23q3 -27 13 -66zM336 693q-26 20 -42 38q17 0 29 -10t13 -28zM337 590q-3 -22 -36 -22q-9 0 -15 7q37 5 51 15z" />
<glyph unicode="&#xe6;" horiz-adv-x="622" d="M585 -15h-341q9 38 12 64q-5 0 -23.5 -1.5t-27.5 -1.5l-36 -86q-10 2 -40 14t-40 12q-4 0 -26 -5q0 5 -13 27l-12 19q-18 59 -18 147q10 0 35 4.5t37 12.5q18 16 45 103q29 94 29 114q0 13 -19 70q72 7 84 61l134 -73h225q-8 -25 -14.5 -86t-6.5 -63h-198l7 -14l7 -14 q30 1 150 8l-4 -132h-87l15 -33h95zM328 445q0 13 -7 23q-24 -11 -50 -38q8 28 23 52l-22 10q-28 -39 -34 -50l-3 1q2 7 9.5 25.5t12.5 31.5q-1 1 -2 1t-2 1l-4 1q-51 -112 -96 -237l-86 -238l16 -4l34 68l4 -1q0 -49 -5 -67l16 25q3 4 8.5 13t7.5 13l3 -1l-8 -75l10 -6 q13 40 175 452zM452 54l6 7q-22 50 -66 145.5t-64 140.5q-43 -65 -43 -99q0 -32 43.5 -122t69.5 -93q-2 7 -11 23.5t-11 23.5l45 -24v28zM549 445l-190 -1l-11 -25h48v-3l-52 -12l-7 -19l17 -5l-19 -3l19 -30h38q75 0 157 4l-5 21l-64 15v4l64 4v9q-64 8 -86 9v4l87 18z M503 270l3 9q-96 -8 -108 -8h-4q6 -19 37 -82h75q0 5 -1.5 13t-1.5 12l-57 11v4l57 6v8h-77v3zM322 80v13q-8 0 -62 12v3q6 2 21 4.5t25 4.5q-2 2 -5 3t-6.5 2.5t-5.5 2.5l-21 6l-2 3q22 6 22 15q0 3 -40 8q-22 -45 -33 -86q47 0 107 9zM408 7h41q65 0 108 6l-5 18h-58 l-9 -4q-2 0 -7 1.5t-8 1.5q-18 0 -62 -23zM486 72l24 3q5 0 16 1t16 1q-1 4 -2 9.5t-2 7.5t-2.5 4.5t-5 3.5t-9.5 1.5t-15 0.5q-4 0 -16 -1t-19 -1q5 -6 15 -30zM289 16l-4 -9h78l-11 23q-58 -12 -63 -14zM504 44h13q20 4 32 4q-1 6 -3 9t-4.5 5t-7.5 3t-10 1t-16 0.5 t-20 1.5l6 -11q1 -3 3 -7.5t2 -6.5q0 1 5 1zM58 94l19 56l-25 -3q6 -52 6 -53zM289 52v-4q12 -2 30.5 -4.5t25.5 -3.5q-2 5 -13 19zM190 428l19 41q-2 -1 -13.5 -5.5t-16.5 -5.5q2 -7 6 -16.5t5 -13.5zM253 182l27 -7l-14 39zM380 143q11 -3 11 -13q0 -13 -13 -13 q-10 4 -10 13q0 13 12 13zM161 122q0 -13 -12 -13q-10 1 -10 13t12 12q10 -3 10 -12zM254 408q8 -5 8 -10q0 -11 -9 -11q-9 3 -9 11q0 10 10 10z" />
<glyph unicode="&#xe7;" horiz-adv-x="364" d="M107 -100l63 34q16 -9 36 -33l41 22l1 6l-27 39l-19 43q-78 4 -124 69.5t-46 164.5q0 100 47.5 174t118.5 74q54 0 109 -39q-16 -58 -16 -127q-39 27 -66 27q-47 0 -47 -78q0 -41 19.5 -88.5t41.5 -47.5q27 0 49 56q12 -12 30.5 -36t31 -42.5t12.5 -20.5q0 -24 -24 -44 t-60 -31l57 -69q4 -7 4 -16v-16q-1 -15 -10 -26l-85 -62q4 -15 4 -41l-57 -40q-86 50 -86 124q0 8 2 24zM291 52q27 16 39 32l-25 -13q-10 -3 -20.5 -10t-14.5 -7l-1 3q18 12 34 45q-30 -18 -53 -18h-4l-3 1l-2 4q16 7 31 25.5t17 33.5q-22 -32 -51 -32q-35 0 -60 47 t-25 106q0 107 84 107q18 0 29 -4q-34 34 -57 46q11 3 16 3q8 0 26.5 -9t21.5 -9q-21 24 -45 43l11 3q0 -2 17 -6t24 -4h2q-43 35 -80 35q-58 0 -98.5 -71t-40.5 -159q0 -94 45.5 -151.5t126.5 -57.5q24 0 56 17zM262 -85l-12 -5l-5 -22l-6 11l-19 -9q2 -5 8.5 -16.5 t8.5 -19.5l73 48q7 17 7 24q0 4 -0.5 7t-1.5 7t-1 6l-54 71h-2q-22 -6 -35 -6l12 -31l31 -51l-2 -6l23 -11zM147 -108h-13q-9 -11 -9 -22q0 -22 17.5 -51.5t47.5 -43.5q9 4 9 22q0 19 -14.5 46.5t-37.5 48.5zM214 -209l15 7q-5 61 -59 113l-21 -9l14 -17.5t14.5 -18 t12.5 -16.5t11.5 -18.5t7.5 -18.5t5 -22zM158 100l-5 -2q-16 0 -32 24t-16 45l2 15l5 1q17 -57 46 -83zM171 124v-3q-1 -1 -7 -1q-13 0 -23.5 19t-10.5 40q0 4 5 21q10 -40 16.5 -52.5t19.5 -23.5z" />
<glyph unicode="&#xe8;" horiz-adv-x="451" d="M431 451l31 -121l-204 -18v-42h123l-6 -142l-119 7v-26l147 -35l-23 -117q-109 20 -218 20q-2 0 -68 -3l2 24l-89 17l23 128l69 -5v160h-63l15 147l57 -2v26h141l15 -18h167zM229 26l2 416l-18 -49l-16 58h-17l-19 -23l-29 26v-444l21 80l9 -83l17 1l15 72l10 -70z M262 330l173 17l-8 22l-49 7l46 13l-3 15l-53 4l51 25h-157v-103zM386 59l-124 31l-23 -92l128 -21q-23 14 -27 26h35q-11 9 -43 22h2q25 0 35 6.5t17 27.5zM311 170l50 14l-43 14l42 11v43h-98v-94l89 -3zM94 17l5 105h-51l-20 -89zM58 318h44l-8 106h-26zM192 380l2 -3 q0 -15 -19 -24v27h17zM189 220l-7 -6l-4 2q-6 5 -14 19l7 8l4 -4q2 0 14 -19zM161 796l66 -49q-3 -13 -21 -56l128 -86l27 -66l-79 11l-127 70q-21 -21 -43 -32l-65 40q0 57 30.5 108.5t83.5 59.5zM110 745q-43 -45 -43 -104q6 -3 14 -3q22 0 50 36t39 77l-6 14l-8 3h-5 q-8 0 -14.5 -3t-16.5 -11zM334 559l-19 41l-80 50l-26 -7l10 17l-21 14q-7 -19 -30 -37l116 -71zM96 624l17 -11q63 36 89 123l-21 17q-32 -96 -85 -129z" />
<glyph unicode="&#xe9;" horiz-adv-x="451" d="M431 451l31 -121l-204 -18v-42h123l-6 -142l-119 7v-26l147 -35l-23 -117q-109 20 -218 20q-2 0 -68 -3l2 24l-89 17l23 128l69 -5v160h-63l15 147l57 -2v26h141l15 -18h167zM229 26l2 416l-18 -49l-16 58h-17l-19 -23l-29 26v-444l21 80l9 -83l17 1l15 72l10 -70z M262 330l173 17l-8 22l-49 7l46 13l-3 15l-53 4l51 25h-157v-103zM386 59l-124 31l-23 -92l128 -21q-23 14 -27 26h35q-11 9 -43 22h2q25 0 35 6.5t17 27.5zM311 170l50 14l-43 14l42 11v43h-98v-94l89 -3zM94 17l5 105h-51l-20 -89zM58 318h44l-8 106h-26zM192 380l2 -3 q0 -15 -19 -24v27h17zM189 220l-7 -6l-4 2q-6 5 -14 19l7 8l4 -4q2 0 14 -19zM372 729q25 -40 25 -78q0 -4 -2 -20l-65 -47q-21 13 -25 18l-22 21l-120 -97l-71 -5l36 75l106 98q-13 35 -15 53l59 50q55 -14 94 -68zM365 699q-11 22 -33 43t-49 30q-9 -11 -9 -22 q0 -20 23.5 -55.5t54.5 -57.5l14 3q8 7 8 21q0 13 -9 38zM122 541l43 7l72 60l2 27l9 -12l23 12q-21 32 -24 42l-104 -90zM257 750l-15 -11q11 -77 84 -127l23 14q-26 23 -40 36t-31 38t-21 50z" />
<glyph unicode="&#xea;" horiz-adv-x="451" d="M431 451l31 -121l-204 -18v-42h123l-6 -142l-119 7v-26l147 -35l-23 -117q-109 20 -218 20q-2 0 -68 -3l2 24l-89 17l23 128l69 -5v160h-63l15 147l57 -2v26h141l15 -18h167zM229 26l2 416l-18 -49l-16 58h-17l-19 -23l-29 26v-444l21 80l9 -83l17 1l15 72l10 -70z M262 330l173 17l-8 22l-49 7l46 13l-3 15l-53 4l51 25h-157v-103zM386 59l-124 31l-23 -92l128 -21q-23 14 -27 26h35q-11 9 -43 22h2q25 0 35 6.5t17 27.5zM311 170l50 14l-43 14l42 11v43h-98v-94l89 -3zM94 17l5 105h-51l-20 -89zM58 318h44l-8 106h-26zM192 380l2 -3 q0 -15 -19 -24v27h17zM189 220l-7 -6l-4 2q-6 5 -14 19l7 8l4 -4q2 0 14 -19zM390 541q-43 -25 -76 -25q-3 0 -19 2l-47 66q6 13 21 29t17 19l-46 60l-8 1l-79 -98l-86 -46v89l129 152q13 8 34 8q17 0 30 -8l96 -108q26 11 51 16l50 -60q-16 -57 -67 -97zM249 709l23 -29 l27 -3l-13 -9l13 -24q18 18 40 25l-53 69l-28 32q-15 6 -26 6q-14 0 -27 -6l-120 -138l-4 -61l55 41l95 103l9 -2l9 28v-32zM361 549q51 26 71 83q-8 9 -21 9q-23 0 -54.5 -22.5t-56.5 -54.5l3 -18q8 -8 20 -8q7 0 38 11zM411 658l-12 16q-77 -13 -124 -87l14 -22 q22 25 36.5 40t38 30.5t47.5 22.5z" />
<glyph unicode="&#xeb;" horiz-adv-x="451" d="M431 451l31 -121l-204 -18v-42h123l-6 -142l-119 7v-26l147 -35l-23 -117q-109 20 -218 20q-2 0 -68 -3l2 24l-89 17l23 128l69 -5v160h-63l15 147l57 -2v26h141l15 -18h167zM229 26l2 416l-18 -49l-16 58h-17l-19 -23l-29 26v-444l21 80l9 -83l17 1l15 72l10 -70z M262 330l173 17l-8 22l-49 7l46 13l-3 15l-53 4l51 25h-157v-103zM386 59l-124 31l-23 -92l128 -21q-23 14 -27 26h35q-11 9 -43 22h2q25 0 35 6.5t17 27.5zM311 170l50 14l-43 14l42 11v43h-98v-94l89 -3zM94 17l5 105h-51l-20 -89zM58 318h44l-8 106h-26zM192 380l2 -3 q0 -15 -19 -24v27h17zM189 220l-7 -6l-4 2q-6 5 -14 19l7 8l4 -4q2 0 14 -19zM62 615q0 38 23 64t57 26q26 0 47 -15.5t32 -40.5q7 29 28 47t50 18q34 0 58.5 -25t24.5 -61q0 -37 -24 -62t-59 -25q-27 0 -48 14.5t-28 40.5q-7 -28 -29.5 -46t-51.5 -18q-34 0 -57 23.5 t-23 59.5zM239 627q0 -26 17.5 -43t42.5 -17t43.5 18t18.5 44t-18.5 43t-43.5 17t-42.5 -18t-17.5 -44zM83 616q0 -24 17.5 -41t41.5 -17q27 0 45 17t18 44t-18 44t-45 17q-24 0 -41.5 -18.5t-17.5 -45.5z" />
<glyph unicode="&#xec;" horiz-adv-x="236" d="M66 491l137 -15v-491l-160 -18zM166 17l6 1q0 76 -0.5 220.5t-0.5 220.5q-2 -1 -9 -1q-4 0 -7.5 -3.5t-6 -10.5t-4 -12.5t-3.5 -14.5t-3 -11l-4 2l-6 47q-2 0 -4.5 1t-3.5 1l-10 -55h-3l-14 58h-3l-15 -462q5 1 16.5 5t18.5 5q1 7 3.5 33.5t3.5 40.5h4l16 -68q8 0 11 6 t4.5 18t2.5 17h3zM66 818l66 -49q-3 -13 -21 -56l128 -86l27 -66l-79 11l-127 70q-21 -21 -43 -32l-65 40q0 57 30.5 108.5t83.5 59.5zM15 767q-43 -45 -43 -104q6 -3 14 -3q22 0 50 36t39 77l-6 14l-8 3h-5q-8 0 -14.5 -3t-16.5 -11zM239 581l-19 41l-80 50l-26 -7l10 17 l-21 14q-7 -19 -30 -37l116 -71zM1 646l17 -11q63 36 89 123l-21 17q-32 -96 -85 -129z" />
<glyph unicode="&#xed;" horiz-adv-x="236" d="M66 491l137 -15v-491l-160 -18zM166 17l6 1q0 76 -0.5 220.5t-0.5 220.5q-2 -1 -9 -1q-4 0 -7.5 -3.5t-6 -10.5t-4 -12.5t-3.5 -14.5t-3 -11l-4 2l-6 47q-2 0 -4.5 1t-3.5 1l-10 -55h-3l-14 58h-3l-15 -462q5 1 16.5 5t18.5 5q1 7 3.5 33.5t3.5 40.5h4l16 -68q8 0 11 6 t4.5 18t2.5 17h3zM276 754q25 -40 25 -78q0 -4 -2 -20l-65 -47q-21 13 -25 18l-22 21l-120 -97l-71 -5l36 75l106 98q-13 35 -15 53l59 50q55 -14 94 -68zM269 724q-11 22 -33 43t-49 30q-9 -11 -9 -22q0 -20 23.5 -55.5t54.5 -57.5l14 3q8 7 8 21q0 13 -9 38zM26 566l43 7 l72 60l2 27l9 -12l23 12q-21 32 -24 42l-104 -90zM161 775l-15 -11q11 -77 84 -127l23 14q-26 23 -40 36t-31 38t-21 50z" />
<glyph unicode="&#xee;" horiz-adv-x="236" d="M66 491l137 -15v-491l-160 -18zM166 17l6 1q0 76 -0.5 220.5t-0.5 220.5q-2 -1 -9 -1q-4 0 -7.5 -3.5t-6 -10.5t-4 -12.5t-3.5 -14.5t-3 -11l-4 2l-6 47q-2 0 -4.5 1t-3.5 1l-10 -55h-3l-14 58h-3l-15 -462q5 1 16.5 5t18.5 5q1 7 3.5 33.5t3.5 40.5h4l16 -68q8 0 11 6 t4.5 18t2.5 17h3zM279 558q-43 -25 -76 -25q-3 0 -19 2l-47 66q6 13 21 29t17 19l-46 60l-8 1l-79 -98l-86 -46v89l129 152q13 8 34 8q17 0 30 -8l96 -108q26 11 51 16l50 -60q-16 -57 -67 -97zM138 726l23 -29l27 -3l-13 -9l13 -24q18 17 40 25l-53 69l-28 32q-15 6 -26 6 q-13 0 -27 -6l-120 -138l-4 -61l55 41l95 103l9 -2l9 28v-32zM250 566q51 26 71 83q-8 9 -21 9q-23 0 -54.5 -22.5t-56.5 -54.5l3 -18q8 -8 20 -8q7 0 38 11zM300 675l-12 16q-77 -13 -124 -87l14 -22q22 25 36.5 40t38 30.5t47.5 22.5z" />
<glyph unicode="&#xef;" horiz-adv-x="236" d="M66 491l137 -15v-491l-160 -18zM166 17l6 1q0 76 -0.5 220.5t-0.5 220.5q-2 -1 -9 -1q-4 0 -7.5 -3.5t-6 -10.5t-4 -12.5t-3.5 -14.5t-3 -11l-4 2l-6 47q-2 0 -4.5 1t-3.5 1l-10 -55h-3l-14 58h-3l-15 -462q5 1 16.5 5t18.5 5q1 7 3.5 33.5t3.5 40.5h4l16 -68q8 0 11 6 t4.5 18t2.5 17h3zM-13 643q0 38 23 64t57 26q26 0 47 -15.5t32 -40.5q7 29 28 47t50 18q34 0 58.5 -25t24.5 -61q0 -37 -24 -62t-59 -25q-27 0 -48 14.5t-28 40.5q-7 -28 -29.5 -46t-51.5 -18q-34 0 -57 23.5t-23 59.5zM164 655q0 -26 17.5 -43t42.5 -17t43.5 18t18.5 44 t-18.5 43t-43.5 17t-42.5 -18t-17.5 -44zM8 644q0 -24 17.5 -41t41.5 -17q27 0 45 17t18 44t-18 44t-45 17q-24 0 -41.5 -18.5t-17.5 -45.5z" />
<glyph unicode="&#xf0;" horiz-adv-x="508" d="M89 266h67v10q-49 0 -95 -8q-7 14 -7 49q0 56 12 109l87 10l2 40l159 10l7 -24q2 0 8.5 -4t21 -12t29.5 -16q112 -61 112 -200q0 -91 -56 -164.5t-133 -73.5q-5 0 -5 -7v-7h-148v7q-21 -1 -70 -11l-9 174l86 5v11h-50zM287 435q0 36 -22 36q-5 0 -7.5 -15t-5.5 -34.5 t-8 -27.5v6q0 6 -6.5 30.5t-6.5 28.5l-11 1l-6 -60l-11 58q-29 0 -29 -56q6 -185 6 -270q0 -84 -7 -133h8l16 56v-55l32 2l18 87v-86l30 3q-3 78 -3 81q0 31 6.5 173t6.5 175zM463 209q0 79 -41 145.5t-103 81.5q-9 -66 -9 -99q0 -12 2 -38q60 -30 60 -85q0 -30 -19 -53.5 t-49 -34.5v-116q77 15 118 67.5t41 131.5zM153 298v69h-13q-9 0 -16 5l27 28q-3 2 -3 9v4l-66 -9l-3 -57q32 -11 37 -13l-39 -17q5 -3 5 -10q0 -5 -2 -17q39 9 62 9q11 0 11 -1zM154 6l2 42l-10 -2q-18 0 -33 15q21 4 24 6t12 14l6 21q-13 -3 -18 -3q-13 0 -21 5q21 7 34 30 h-56l8 -128h52zM344 216q0 23 -11 39t-26 17l-4 -116q41 14 41 60zM112 203l2 -21h41v48l-30 -5h-18l3 -13l38 -5zM417 306q-5 5 -18.5 20t-20 20.5t-19.5 12.5t-28 8q9 6 21 6q20 0 41 -23t24 -44zM107 233h49v20h-54zM388 280l-25 25q-15 15 -29 17q3 7 12 7q14 0 28 -16 t14 -33zM235 363l4 -6q0 -5 -7 -5q-6 0 -12 7l5 6zM227 93l8 -5v-7l-15 7z" />
<glyph unicode="&#xf1;" horiz-adv-x="580" d="M539 139l39 -43l-38 -33q0 -15 0.5 -45t0.5 -44l-155 16l-3 32l-144 140q2 -30 4 -89t3 -81q-18 -4 -37 -4q-6 0 -20.5 2t-24.5 3l-32 5h-24l-32 296q-1 1 -56 53l47 53q0 7 2 34t2 41l158 5l8 -87l144 -146q2 41 4 116.5t3 104.5l161 -15zM518 7l6 412l-48 16 q0 -15 -0.5 -41.5t-0.5 -40.5h-4l-13 71l-14 -60h-3l-11 69q-5 2 -12 3t-12 2q2 -36 2 -107v-206q0 -68 1 -105l3 -1q2 0 2 -1l7 -1q2 9 4 27t3 25h3l15 -55q3 0 9.5 -1.5t9.5 -1.5l4 69h3l18 -69zM189 20h31v187q0 196 -22 243q-2 0 -12 1.5t-15 1.5q-9 -53 -10 -73h-4 l-10 66q-2 0 -3 0.5t-3 0.5q-2 -21 -11 -90h-4l-18 93q-1 -1 -4.5 -1t-4.5 -2q3 -44 15 -194.5t17 -229.5q2 0 5 0.5t4 0.5l10 78h4l9 -66l11 44h4zM238 196l149 -149l-3 166q-23 25 -70.5 74.5t-70.5 74.5v-50q8 -11 24.5 -38t25.5 -39l-4 -3l-48 44q0 -11 5 -21.5t11 -17 t17 -18t15 -16.5v-1l-50 26q0 -6 -0.5 -16.5t-0.5 -15.5zM46 351l26 -25q0 9 -0.5 24t-0.5 22q-24 -20 -25 -21zM184 329q0 -6 -9 -12q-10 5 -10 12q0 6 10 11q9 -4 9 -11zM460 112l9 -10l-9 -9l-9 9zM542 89l11 9l-16 14q4 -18 5 -23zM516 736l-8 -76l-86 -76 q-29 -9 -43 -9q-18 0 -26 8l-50 68l-59 -36q9 -31 9 -41q0 -2 -0.5 -7t-0.5 -8l-72 -33q-37 18 -59.5 57t-22.5 83q0 22 4 30l58 28q11 0 22 -7t14.5 -11t15.5 -19l74 52q26 6 27 6q16 0 31 -12l45 -70l64 56zM501 714l-39 -8l-60 -58l-10 -31l-11 33l-45 67q-14 11 -26 11 q-9 0 -21 -6l-65 -42l13 -17l7 -32l52 36l16 38l6 -41l35 -59q12 -11 32 -11q11 0 28 5l79 67zM122 627q7 -22 26.5 -46t44.5 -37q13 11 13 28q0 22 -19 56t-44 59h-18q-9 -7 -9 -25q0 -6 3 -18t3 -17zM221 564l18 11q-1 75 -68 134l-25 -11q69 -71 75 -134z" />
<glyph unicode="&#xf2;" horiz-adv-x="494" d="M493 257q0 -58 -29.5 -119.5t-78 -102.5t-96.5 -41q-110 0 -183 70.5t-73 176.5q0 105 62.5 172t166.5 67q96 0 163.5 -63t67.5 -160zM466 269q0 89 -47 137t-136 48q-101 0 -159.5 -50.5t-58.5 -141.5q0 -100 69 -173t162 -73q67 0 118.5 82t51.5 171zM365 232 q0 -44 -35 -77t-82 -33q-40 0 -63.5 26.5t-23.5 73.5t30.5 76t79.5 29q43 0 68.5 -25.5t25.5 -69.5zM337 224q0 34 -22.5 58.5t-53.5 24.5q-27 0 -49.5 -29.5t-22.5 -58.5q0 -27 13 -47.5t42 -20.5q41 0 67 20t26 53zM417 324l-4 -1q-12 28 -28 42t-82 51q42 0 78 -28 t36 -64zM139 118l-4 -2q-44 36 -44 100q0 10 2 30h5q13 -84 41 -128zM367 121l2 -1q-4 -18 -26.5 -31t-46.5 -13t-24 18l11 -1q43 0 84 28zM157 133l-32 37q-2 10 -4.5 21.5t-3.5 17t-1 7.5q0 12 9 39q9 -88 32 -122zM373 312l-2 -1q-41 40 -64 49l2 3l8 1q23 0 39.5 -15.5 t16.5 -36.5zM369 85l2 -1q-1 -15 -17.5 -22.5t-38.5 -7.5q-2 0 -8.5 0.5t-9.5 0.5v3q47 9 72 27zM194 788l66 -49q-3 -13 -21 -56l128 -86l27 -66l-79 11l-127 70q-21 -21 -43 -32l-65 40q0 57 30.5 108.5t83.5 59.5zM143 737q-43 -45 -43 -104q6 -3 14 -3q22 0 50 36t39 77 l-6 14l-8 3h-5q-8 0 -14.5 -3t-16.5 -11zM367 551l-19 41l-80 50l-26 -7l10 17l-21 14q-7 -19 -30 -37l116 -71zM129 616l17 -11q63 36 89 123l-21 17q-32 -96 -85 -129z" />
<glyph unicode="&#xf3;" horiz-adv-x="494" d="M493 257q0 -58 -29.5 -119.5t-78 -102.5t-96.5 -41q-110 0 -183 70.5t-73 176.5q0 105 62.5 172t166.5 67q96 0 163.5 -63t67.5 -160zM466 269q0 89 -47 137t-136 48q-101 0 -159.5 -50.5t-58.5 -141.5q0 -100 69 -173t162 -73q67 0 118.5 82t51.5 171zM365 232 q0 -44 -35 -77t-82 -33q-40 0 -63.5 26.5t-23.5 73.5t30.5 76t79.5 29q43 0 68.5 -25.5t25.5 -69.5zM337 224q0 34 -22.5 58.5t-53.5 24.5q-27 0 -49.5 -29.5t-22.5 -58.5q0 -27 13 -47.5t42 -20.5q41 0 67 20t26 53zM417 324l-4 -1q-12 28 -28 42t-82 51q42 0 78 -28 t36 -64zM139 118l-4 -2q-44 36 -44 100q0 10 2 30h5q13 -84 41 -128zM367 121l2 -1q-4 -18 -26.5 -31t-46.5 -13t-24 18l11 -1q43 0 84 28zM157 133l-32 37q-2 10 -4.5 21.5t-3.5 17t-1 7.5q0 12 9 39q9 -88 32 -122zM373 312l-2 -1q-41 40 -64 49l2 3l8 1q23 0 39.5 -15.5 t16.5 -36.5zM369 85l2 -1q-1 -15 -17.5 -22.5t-38.5 -7.5q-2 0 -8.5 0.5t-9.5 0.5v3q47 9 72 27zM412 734q25 -40 25 -78q0 -4 -2 -20l-65 -47q-21 13 -25 18l-22 21l-120 -97l-71 -5l36 75l106 98q-13 35 -15 53l59 50q55 -14 94 -68zM405 704q-11 22 -33 43t-49 30 q-9 -11 -9 -22q0 -20 23.5 -55.5t54.5 -57.5l14 3q8 7 8 21q0 13 -9 38zM162 546l43 7l72 60l2 27l9 -12l23 12q-21 32 -24 42l-104 -90zM297 755l-15 -11q11 -77 84 -127l23 14q-26 23 -40 36t-31 38t-21 50z" />
<glyph unicode="&#xf4;" horiz-adv-x="494" d="M493 257q0 -58 -29.5 -119.5t-78 -102.5t-96.5 -41q-110 0 -183 70.5t-73 176.5q0 105 62.5 172t166.5 67q96 0 163.5 -63t67.5 -160zM466 269q0 89 -47 137t-136 48q-101 0 -159.5 -50.5t-58.5 -141.5q0 -100 69 -173t162 -73q67 0 118.5 82t51.5 171zM365 232 q0 -44 -35 -77t-82 -33q-40 0 -63.5 26.5t-23.5 73.5t30.5 76t79.5 29q43 0 68.5 -25.5t25.5 -69.5zM337 224q0 34 -22.5 58.5t-53.5 24.5q-27 0 -49.5 -29.5t-22.5 -58.5q0 -27 13 -47.5t42 -20.5q41 0 67 20t26 53zM417 324l-4 -1q-12 28 -28 42t-82 51q42 0 78 -28 t36 -64zM139 118l-4 -2q-44 36 -44 100q0 10 2 30h5q13 -84 41 -128zM367 121l2 -1q-4 -18 -26.5 -31t-46.5 -13t-24 18l11 -1q43 0 84 28zM157 133l-32 37q-2 10 -4.5 21.5t-3.5 17t-1 7.5q0 12 9 39q9 -88 32 -122zM373 312l-2 -1q-41 40 -64 49l2 3l8 1q23 0 39.5 -15.5 t16.5 -36.5zM369 85l2 -1q-1 -15 -17.5 -22.5t-38.5 -7.5q-2 0 -8.5 0.5t-9.5 0.5v3q47 9 72 27zM420 548q-43 -25 -76 -25q-3 0 -19 2l-47 66q6 13 21 29t17 19l-46 60l-8 1l-79 -98l-86 -46v89l129 152q13 8 34 8q17 0 30 -8l96 -108q26 11 51 16l50 -60q-16 -57 -67 -97z M279 716l23 -29l27 -3l-13 -9l13 -24q18 17 40 25l-53 69l-28 32q-15 6 -26 6q-14 0 -27 -6l-120 -138l-4 -61l55 41l95 103l9 -2l9 28v-32zM391 556q51 26 71 83q-8 9 -21 9q-23 0 -54.5 -22.5t-56.5 -54.5l3 -18q8 -8 20 -8q7 0 38 11zM441 665l-12 16q-77 -13 -124 -87 l14 -22q22 25 36.5 40t38 30.5t47.5 22.5z" />
<glyph unicode="&#xf5;" horiz-adv-x="494" d="M493 257q0 -58 -29.5 -119.5t-78 -102.5t-96.5 -41q-110 0 -183 70.5t-73 176.5q0 105 62.5 172t166.5 67q96 0 163.5 -63t67.5 -160zM466 269q0 89 -47 137t-136 48q-101 0 -159.5 -50.5t-58.5 -141.5q0 -100 69 -173t162 -73q67 0 118.5 82t51.5 171zM365 232 q0 -44 -35 -77t-82 -33q-40 0 -63.5 26.5t-23.5 73.5t30.5 76t79.5 29q43 0 68.5 -25.5t25.5 -69.5zM337 224q0 34 -22.5 58.5t-53.5 24.5q-27 0 -49.5 -29.5t-22.5 -58.5q0 -27 13 -47.5t42 -20.5q41 0 67 20t26 53zM417 324l-4 -1q-12 28 -28 42t-82 51q42 0 78 -28 t36 -64zM139 118l-4 -2q-44 36 -44 100q0 10 2 30h5q13 -84 41 -128zM367 121l2 -1q-4 -18 -26.5 -31t-46.5 -13t-24 18l11 -1q43 0 84 28zM157 133l-32 37q-2 10 -4.5 21.5t-3.5 17t-1 7.5q0 12 9 39q9 -88 32 -122zM373 312l-2 -1q-41 40 -64 49l2 3l8 1q23 0 39.5 -15.5 t16.5 -36.5zM369 85l2 -1q-1 -15 -17.5 -22.5t-38.5 -7.5q-2 0 -8.5 0.5t-9.5 0.5v3q47 9 72 27zM489 721l-8 -76l-86 -76q-29 -9 -43 -9q-18 0 -26 8l-50 68l-59 -36q9 -31 9 -41q0 -3 -0.5 -8t-0.5 -7l-72 -33q-37 18 -59.5 57t-22.5 83q0 22 4 30l58 28q11 0 22 -7 t14.5 -11t15.5 -19l74 52q26 6 27 6q16 0 31 -12l45 -70l64 56zM474 699l-39 -8l-60 -58l-10 -31l-11 33l-45 67q-14 11 -26 11q-9 0 -21 -6l-65 -42l13 -17l7 -32l52 36l16 38l6 -41l35 -59q12 -11 32 -11q11 0 28 5l79 67zM95 612q7 -22 26.5 -46t44.5 -37q13 11 13 28 q0 22 -19 56t-44 59h-18q-9 -8 -9 -25q0 -6 3 -18t3 -17zM194 549l18 11q-1 75 -68 134l-25 -11q69 -71 75 -134z" />
<glyph unicode="&#xf6;" horiz-adv-x="494" d="M493 257q0 -58 -29.5 -119.5t-78 -102.5t-96.5 -41q-110 0 -183 70.5t-73 176.5q0 105 62.5 172t166.5 67q96 0 163.5 -63t67.5 -160zM466 269q0 89 -47 137t-136 48q-101 0 -159.5 -50.5t-58.5 -141.5q0 -100 69 -173t162 -73q67 0 118.5 82t51.5 171zM365 232 q0 -44 -35 -77t-82 -33q-40 0 -63.5 26.5t-23.5 73.5t30.5 76t79.5 29q43 0 68.5 -25.5t25.5 -69.5zM337 224q0 34 -22.5 58.5t-53.5 24.5q-27 0 -49.5 -29.5t-22.5 -58.5q0 -27 13 -47.5t42 -20.5q41 0 67 20t26 53zM417 324l-4 -1q-12 28 -28 42t-82 51q42 0 78 -28 t36 -64zM139 118l-4 -2q-44 36 -44 100q0 10 2 30h5q13 -84 41 -128zM367 121l2 -1q-4 -18 -26.5 -31t-46.5 -13t-24 18l11 -1q43 0 84 28zM157 133l-32 37q-2 10 -4.5 21.5t-3.5 17t-1 7.5q0 12 9 39q9 -88 32 -122zM373 312l-2 -1q-41 40 -64 49l2 3l8 1q23 0 39.5 -15.5 t16.5 -36.5zM369 85l2 -1q-1 -15 -17.5 -22.5t-38.5 -7.5q-2 0 -8.5 0.5t-9.5 0.5v3q47 9 72 27zM105 633q0 38 23 64t57 26q26 0 47 -15.5t32 -40.5q7 29 28 47t50 18q34 0 58.5 -25t24.5 -61q0 -37 -24 -62t-59 -25q-27 0 -48 14.5t-28 40.5q-7 -28 -29.5 -46t-51.5 -18 q-34 0 -57 23.5t-23 59.5zM282 645q0 -26 17.5 -43t42.5 -17t43.5 18t18.5 44t-18.5 43t-43.5 17t-42.5 -18t-17.5 -44zM126 634q0 -24 17.5 -41t41.5 -17q27 0 45 17t18 44t-18 44t-45 17q-24 0 -41.5 -18.5t-17.5 -45.5z" />
<glyph unicode="&#xf7;" horiz-adv-x="603" d="M603 396l-16 -175q-185 -23 -420 -23q-47 0 -145 2l5 201q178 -12 341 -12q100 0 235 7zM562 239l-123 24h122v90l-506 14l-3 -89l78 -15l-84 -10l72 -8l-71 -21h18q23 0 76 -1.5t57 -1.5q124 0 364 18zM302 301q0 11 11 11t11 -11q0 -12 -11 -12t-11 12zM398 501 q0 -42 -23 -68t-64 -26q-47 0 -77 32.5t-30 81.5q0 42 23 68.5t63 26.5q46 0 77 -34t31 -81zM378 507q0 33 -25 53t-60 20q-28 0 -46 -13t-18 -37q0 -41 24 -68v4q0 15 7 23l15 -50q14 -14 31 -14q28 0 50 26.5t22 55.5zM398 72q0 -42 -23 -68t-64 -26q-47 0 -77 32.5 t-30 81.5q0 42 23 68.5t63 26.5q46 0 77 -34t31 -81zM378 78q0 33 -25 53t-60 20q-28 0 -46 -13t-18 -37q0 -41 24 -68v4q0 15 7 23l15 -50q14 -14 31 -14q28 0 50 26.5t22 55.5z" />
<glyph unicode="&#xf8;" horiz-adv-x="569" d="M353 511l31 54l125 -81l-26 -49q60 -68 60 -161q0 -62 -33 -129t-85.5 -111.5t-104.5 -44.5q-43 0 -68 6q-11 -18 -29 -54l-146 75l33 61q-69 77 -69 180q0 116 70 188t184 72q31 0 58 -6zM215 -11l255 494q-4 1 -10.5 2t-10.5 3l-54 -72l-3 1l28 81q-3 2 -8.5 6t-8.5 6 l-43 -52l-4 1l35 60q-3 6 -6 7q-226 -409 -270 -492q5 0 12.5 -1.5t10.5 -1.5q29 43 65 87l6 -12l-34 -90q27 31 61 65l8 -5l-50 -73q2 -1 9 -6.5t12 -7.5zM180 238q0 68 78 106q16 27 44 77t37 65q-10 5 -26 5q-108 0 -173 -56.5t-65 -154.5q0 -92 55 -165q33 58 52 94 q-2 20 -2 29zM512 288q0 81 -37 131q-11 -19 -36.5 -67.5t-40.5 -73.5q5 -12 5 -30q0 -70 -76 -111l-22 -41h17q38 0 82 30l4 -1q-6 -19 -30 -32t-50 -13q-22 0 -25 11q-14 -24 -40 -72q26 -6 65 -6q73 0 128.5 86.5t55.5 188.5zM330 327l-6 -10q-6 -15 -22.5 -48.5 t-30.5 -61.5t-15 -29l-3 1q0 17 31.5 85t39.5 68q6 0 6 -5zM371 365l-36 -104q-9 0 -9 8q21 51 45 96z" />
<glyph unicode="&#xf9;" horiz-adv-x="499" d="M498 449l-2 -7q-10 -98 -10 -139v-63q-32 -286 -228 -286q-111 0 -161.5 63t-50.5 212l2 39q2 39 2 80v95q0 10 -1 11l157 15q3 -45 3 -53q0 -15 -3 -83t-3 -83q0 -116 55 -116q40 0 58 78t18 247v17l158 15q6 -40 6 -42zM469 417q0 21 -2 51h-12l-19 -77q-2 -12 -3 -15 h-4l1 87q-1 -1 -8 -1q-5 0 -5 1q-10 -17 -20 -68h-3q-5 24 -5 58v10q-20 -2 -30 -5q3 -33 3 -69q0 -285 -104 -285q-82 0 -82 159q0 13 3 77t3 78v20q0 11 -10 11q-4 0 -34 -6l-4 -93h-3l-18 86q-3 0 -7.5 -0.5t-7.5 -0.5q1 -46 7 -89h-4l-18 88l-3 -4l-1 -22q-2 -26 -2 -44 v-11q0 -10 -1 -23.5t-1 -18.5v-35q0 -153 38.5 -221.5t117.5 -68.5q101 0 146.5 38t66.5 132q25 141 25 261zM312 56l2 -4q-24 -16 -57 -16q-31 0 -43 21q22 -9 48 -9q31 0 50 8zM302 82l1 -3q-18 -15 -50 -15q-29 0 -41 16q11 -4 32 -4q2 0 58 6zM185 788l66 -49 q-3 -13 -21 -56l128 -86l27 -66l-79 11l-127 70q-21 -21 -43 -32l-65 40q0 57 30.5 108.5t83.5 59.5zM134 737q-43 -45 -43 -104q6 -3 14 -3q22 0 50 36t39 77l-6 14l-8 3h-5q-8 0 -14.5 -3t-16.5 -11zM358 551l-19 41l-80 50l-26 -7l10 17l-21 14q-7 -19 -30 -37l116 -71z M120 616l17 -11q63 36 89 123l-21 17q-32 -96 -85 -129z" />
<glyph unicode="&#xfa;" horiz-adv-x="499" d="M498 449l-2 -7q-10 -98 -10 -139v-63q-32 -286 -228 -286q-111 0 -161.5 63t-50.5 212l2 39q2 39 2 80v95q0 10 -1 11l157 15q3 -45 3 -53q0 -15 -3 -83t-3 -83q0 -116 55 -116q40 0 58 78t18 247v17l158 15q6 -40 6 -42zM469 417q0 21 -2 51h-12l-19 -77q-2 -12 -3 -15 h-4l1 87q-1 -1 -8 -1q-5 0 -5 1q-10 -17 -20 -68h-3q-5 24 -5 58v10q-20 -2 -30 -5q3 -33 3 -69q0 -285 -104 -285q-82 0 -82 159q0 13 3 77t3 78v20q0 11 -10 11q-4 0 -34 -6l-4 -93h-3l-18 86q-3 0 -7.5 -0.5t-7.5 -0.5q1 -46 7 -89h-4l-18 88l-3 -4l-1 -22q-2 -26 -2 -44 v-11q0 -10 -1 -23.5t-1 -18.5v-35q0 -153 38.5 -221.5t117.5 -68.5q101 0 146.5 38t66.5 132q25 141 25 261zM312 56l2 -4q-24 -16 -57 -16q-31 0 -43 21q22 -9 48 -9q31 0 50 8zM302 82l1 -3q-18 -15 -50 -15q-29 0 -41 16q11 -4 32 -4q2 0 58 6zM414 746q25 -40 25 -78 q0 -4 -2 -20l-65 -47q-21 13 -25 18l-22 21l-120 -97l-71 -5l36 75l106 98q-13 35 -15 53l59 50q55 -14 94 -68zM407 716q-11 22 -33 43t-49 30q-9 -11 -9 -22q0 -20 23.5 -55.5t54.5 -57.5l14 3q8 7 8 21q0 13 -9 38zM164 558l43 7l72 60l2 27l9 -12l23 12q-21 32 -24 42 l-104 -90zM299 767l-15 -11q11 -77 84 -127l23 14q-26 23 -40 36t-31 38t-21 50z" />
<glyph unicode="&#xfb;" horiz-adv-x="499" d="M498 449l-2 -7q-10 -98 -10 -139v-63q-32 -286 -228 -286q-111 0 -161.5 63t-50.5 212l2 39q2 39 2 80v95q0 10 -1 11l157 15q3 -45 3 -53q0 -15 -3 -83t-3 -83q0 -116 55 -116q40 0 58 78t18 247v17l158 15q6 -40 6 -42zM469 417q0 21 -2 51h-12l-19 -77q-2 -12 -3 -15 h-4l1 87q-1 -1 -8 -1q-5 0 -5 1q-10 -17 -20 -68h-3q-5 24 -5 58v10q-20 -2 -30 -5q3 -33 3 -69q0 -285 -104 -285q-82 0 -82 159q0 13 3 77t3 78v20q0 11 -10 11q-4 0 -34 -6l-4 -93h-3l-18 86q-3 0 -7.5 -0.5t-7.5 -0.5q1 -46 7 -89h-4l-18 88l-3 -4l-1 -22q-2 -26 -2 -44 v-11q0 -10 -1 -23.5t-1 -18.5v-35q0 -153 38.5 -221.5t117.5 -68.5q101 0 146.5 38t66.5 132q25 141 25 261zM312 56l2 -4q-24 -16 -57 -16q-31 0 -43 21q22 -9 48 -9q31 0 50 8zM302 82l1 -3q-18 -15 -50 -15q-29 0 -41 16q11 -4 32 -4q2 0 58 6zM419 548q-43 -25 -76 -25 q-3 0 -19 2l-47 66q6 13 21 29t17 19l-46 60l-8 1l-79 -98l-86 -46v89l129 152q13 8 34 8q17 0 30 -8l96 -108q26 11 51 16l50 -60q-16 -57 -67 -97zM278 716l23 -29l27 -3l-13 -9l13 -24q18 17 40 25l-53 69l-28 32q-15 6 -26 6q-13 0 -27 -6l-120 -138l-4 -61l55 41 l95 103l9 -2l9 28v-32zM390 556q51 26 71 83q-8 9 -21 9q-23 0 -54.5 -22.5t-56.5 -54.5l3 -18q8 -8 20 -8q7 0 38 11zM440 665l-12 16q-77 -13 -124 -87l14 -22q22 25 36.5 40t38 30.5t47.5 22.5z" />
<glyph unicode="&#xfc;" horiz-adv-x="499" d="M498 449l-2 -7q-10 -98 -10 -139v-63q-32 -286 -228 -286q-111 0 -161.5 63t-50.5 212l2 39q2 39 2 80v95q0 10 -1 11l157 15q3 -45 3 -53q0 -15 -3 -83t-3 -83q0 -116 55 -116q40 0 58 78t18 247v17l158 15q6 -40 6 -42zM469 417q0 21 -2 51h-12l-19 -77q-2 -12 -3 -15 h-4l1 87q-1 -1 -8 -1q-5 0 -5 1q-10 -17 -20 -68h-3q-5 24 -5 58v10q-20 -2 -30 -5q3 -33 3 -69q0 -285 -104 -285q-82 0 -82 159q0 13 3 77t3 78v20q0 11 -10 11q-4 0 -34 -6l-4 -93h-3l-18 86q-3 0 -7.5 -0.5t-7.5 -0.5q1 -46 7 -89h-4l-18 88l-3 -4l-1 -22q-2 -26 -2 -44 v-11q0 -10 -1 -23.5t-1 -18.5v-35q0 -153 38.5 -221.5t117.5 -68.5q101 0 146.5 38t66.5 132q25 141 25 261zM312 56l2 -4q-24 -16 -57 -16q-31 0 -43 21q22 -9 48 -9q31 0 50 8zM302 82l1 -3q-18 -15 -50 -15q-29 0 -41 16q11 -4 32 -4q2 0 58 6zM110 631q0 38 23 64t57 26 q26 0 47 -15.5t32 -40.5q7 29 28 47t50 18q34 0 58.5 -25t24.5 -61q0 -37 -24 -62t-59 -25q-27 0 -48 14.5t-28 40.5q-7 -28 -29.5 -46t-51.5 -18q-34 0 -57 23.5t-23 59.5zM287 643q0 -26 17.5 -43t42.5 -17t43.5 18t18.5 44t-18.5 43t-43.5 17t-42.5 -18t-17.5 -44z M131 632q0 -24 17.5 -41t41.5 -17q27 0 45 17t18 44t-18 44t-45 17q-24 0 -41.5 -18.5t-17.5 -45.5z" />
<glyph unicode="&#xfd;" horiz-adv-x="455" d="M303 462l151 -82l-251 -443l-135 83l71 137q-25 28 -75 85.5t-75 85.5l112 132l127 -141q4 7 32.5 60.5t42.5 82.5zM195 -27l233 398q-3 2 -9.5 4t-8.5 3q-7 -11 -25 -32.5t-25 -32.5l-4 2l33 72l-13 7q-52 -61 -55 -64l-4 1l36 81q-6 2 -18 8.5t-20 9.5 q-38 -73 -108.5 -204t-104.5 -194q7 -7 12 -8l57 78l3 -1l-44 -90q4 -4 7 -5q7 8 23.5 25.5t23.5 26.5l4 -1l-34 -64q7 -4 20.5 -10t20.5 -10zM216 297l-112 120q-4 -6 -13 -15q46 -73 47 -75l-4 -1l-59 58l-11 -13l57 -73l-4 -2l-69 56q-16 -22 -18 -25q21 -27 62 -75.5 t58 -68.5q43 75 66 114zM239 199l9 -9l-9 -9l-9 9zM355 761q25 -40 25 -78q0 -4 -2 -20l-65 -47q-21 13 -25 18l-22 21l-120 -97l-71 -5l36 75l106 98q-13 35 -15 53l59 50q55 -14 94 -68zM348 731q-11 22 -33 43t-49 30q-9 -11 -9 -22q0 -20 23.5 -55.5t54.5 -57.5l14 3 q8 7 8 21q0 13 -9 38zM105 573l43 7l72 60l2 27l9 -12l23 12q-21 32 -24 42l-104 -90zM240 782l-15 -11q11 -77 84 -127l23 14q-26 23 -40 36t-31 38t-21 50z" />
<glyph unicode="&#xfe;" horiz-adv-x="526" d="M504 240q0 -69 -71 -108.5t-185 -39.5v-81l-175 -20q2 34 2 60q0 68 -37 133l34 15l2 38l-42 3l-19 124l62 11v115h150l5 -106q42 7 69 7q84 0 144.5 -43t60.5 -108zM197 27l31 7l-20 438l-71 4v-173l-19 173h-27v-469l34 4l18 97l12 -90l19 2l5 81zM475 248 q0 55 -51.5 87t-138.5 32q-3 0 -45 -3q0 -2 1 -3.5t1 -2.5l1 -2q0 -2 -1 -5.5t-1 -6.5l47 4l-47 -21v-10l47 -5l-47 -13l3 -23l36 2q64 0 64 -38q0 -26 -18.5 -41.5t-46.5 -15.5q-22 0 -32 5l-2 -67q8 0 23 -2t22 -2q84 0 134.5 35t50.5 96zM331 243q-21 21 -59 21 q-20 0 -32 -9l1 -39q33 -5 38 -5q37 0 52 32zM43 262l30 -5v100l-43 -4zM435 254q0 -18 -8 -31q-9 47 -29 88q37 -23 37 -57zM395 257q0 -8 -3 -20q-9 46 -41 80q19 -4 31.5 -22t12.5 -38zM57 178l14 -35v35h-14zM151 135q0 -5 -5 -5q-6 2 -6 8q0 5 6 5q5 -2 5 -8z" />
<glyph unicode="&#xff;" horiz-adv-x="455" d="M303 462l151 -82l-251 -443l-135 83l71 137q-25 28 -75 85.5t-75 85.5l112 132l127 -141q4 7 32.5 60.5t42.5 82.5zM195 -27l233 398q-3 2 -9.5 4t-8.5 3q-7 -11 -25 -32.5t-25 -32.5l-4 2l33 72l-13 7q-52 -61 -55 -64l-4 1l36 81q-6 2 -18 8.5t-20 9.5 q-38 -73 -108.5 -204t-104.5 -194q7 -7 12 -8l57 78l3 -1l-44 -90q4 -4 7 -5q7 8 23.5 25.5t23.5 26.5l4 -1l-34 -64q7 -4 20.5 -10t20.5 -10zM216 297l-112 120q-4 -6 -13 -15q46 -73 47 -75l-4 -1l-59 58l-11 -13l57 -73l-4 -2l-69 56q-16 -22 -18 -25q21 -27 62 -75.5 t58 -68.5q43 75 66 114zM239 199l9 -9l-9 -9l-9 9zM73 591q0 38 23 64t57 26q26 0 47 -15.5t32 -40.5q7 29 28 47t50 18q34 0 58.5 -25t24.5 -61q0 -37 -24 -62t-59 -25q-27 0 -48 14.5t-28 40.5q-7 -28 -29.5 -46t-51.5 -18q-34 0 -57 23.5t-23 59.5zM250 603 q0 -26 17.5 -43t42.5 -17t43.5 18t18.5 44t-18.5 43t-43.5 17t-42.5 -18t-17.5 -44zM94 592q0 -24 17.5 -41t41.5 -17q27 0 45 17t18 44t-18 44t-45 17q-24 0 -41.5 -18.5t-17.5 -45.5z" />
<glyph unicode="&#x100;" d="M594 220l-5 -138l14 -52l-137 -57l-49 84q-104 -17 -161 -17q-40 -97 -44 -105l-151 55l-28 204l91 13l100 268l-30 83l85 33l22 49l148 -87l-37 -107l116 -226h66zM412 527q0 21 -10 32q-28 -12 -59 -43q5 26 28 58l-31 15l-44 -64q5 12 31 70l-15 8q-74 -160 -118 -292 l-109 -297l25 -6l44 85v-30q0 -33 -9 -64l45 72l-10 -91l16 -10q9 26 216 557zM562 43l10 14l-171 362q-47 -91 -47 -131q0 -48 57.5 -158t90.5 -110l-28 55l55 -32q-5 20 -5 23l1 13q17 -26 37 -36zM405 80v18q-54 10 -78 15l61 12q-15 12 -51 21q25 6 25 20q0 3 -16 6.5 t-29 3.5h-5q-29 -59 -44 -110q58 0 137 14zM76 81l31 90l-38 -5zM572 102l4 92h-33zM240 501l29 59l-47 -16zM314 204l41 -10l-20 55zM484 142q0 -13 -13 -13q-11 3 -11 13q0 14 11 14q13 -3 13 -14zM202 132q0 -14 -11 -14q-11 4 -11 14q0 13 11 13q11 -6 11 -13zM327 470 q0 -11 -9 -11q-9 3 -9 11q0 10 9 10q9 -4 9 -10zM548 710q0 -49 -42 -91l-81 4q-10 20 -13 61h-268l-58 40l75 36l257 8q1 24 20 50l77 4q33 -43 33 -112zM489 644q19 5 28 27t9 47q0 48 -22 81q-37 -4 -37 -89q0 -38 22 -66zM121 722l37 -23h209l18 20v-16l25 -4q2 33 7 48 l-251 -3zM470 798h-18q-23 -39 -23 -88q0 -38 9 -66l29 -1q-13 39 -13 87q0 36 16 68z" />
<glyph unicode="&#x101;" horiz-adv-x="495" d="M495 20l-11 -6q-16 2 -17 2q-9 0 -22.5 -5t-26.5 -12t-24.5 -13.5t-19.5 -11.5l-7 -5q0 25 -33 77q-76 -14 -129 -14q-2 -6 -8 -20.5t-12.5 -31t-14.5 -32.5q-5 2 -22 9t-32 12t-23 5q-14 0 -24 -5q0 8 -13 27l-13 18q-17 46 -17 141q44 0 72 17q11 7 42 103t31 111 q0 4 -9 31.5t-9 35.5q27 0 51.5 16t24.5 38q0 8 -1 9q56 -9 116 -67l21 4q-4 -10 -9 -24.5t-12 -37t-12 -37.5q33 -39 90 -179h43q9 0 11 1q5 -17 11 -83.5t8 -72.5zM330 421q0 14 -9 26q-26 -12 -47 -35q5 21 22 47l-24 12l-35 -51q20 47 25 56l-12 6q-21 -47 -40 -94.5 t-32.5 -82.5t-47.5 -128t-62 -166l20 -4l35 68v-8q0 -29 -7 -68l37 58l-8 -73l12 -8q34 92 173 445zM450 34l8 10l-130 286q-45 -66 -45 -100q0 -38 45 -125.5t74 -88.5l-23 43l45 -25q-5 9 -5 18v11q16 -21 31 -29zM324 65v14q-19 1 -62 11q12 4 49 10q-17 10 -41 16 q20 6 20 17q0 8 -35 8h-6q-26 -53 -35 -87q56 0 110 11zM458 82l2 73h-26zM61 68l24 66l-29 -3q5 -52 5 -59v-4zM192 401l23 48l-37 -14zM252 163l33 -8l-17 45zM387 114q0 -12 -10 -12q-9 4 -9 12q0 11 9 11q10 -4 10 -11zM162 106q0 -12 -9 -12q-8 4 -8 12q0 10 8 10 q9 -4 9 -10zM262 376q0 -9 -8 -9q-7 3 -7 9q0 9 7 9q8 -3 8 -9zM488 593q0 -49 -42 -91l-81 4q-10 20 -13 61h-268l-58 40l75 36l257 8q1 24 20 50l77 4q33 -43 33 -112zM429 527q19 5 28 27t9 47q0 48 -22 81q-37 -4 -37 -89q0 -39 22 -66zM61 605l37 -23h209l18 20v-16 l25 -4q2 33 7 48l-251 -3zM410 681h-18q-23 -39 -23 -88q0 -37 9 -66l29 -1q-13 39 -13 87q0 36 16 68z" />
<glyph unicode="&#x102;" d="M594 220l-5 -138l14 -52l-137 -57l-49 84q-104 -17 -161 -17q-40 -97 -44 -105l-151 55l-28 204l91 13l100 268l-30 83l85 33l22 49l148 -87l-37 -107l116 -226h66zM412 527q0 21 -10 32q-28 -12 -59 -43q5 26 28 58l-31 15l-44 -64q5 12 31 70l-15 8q-74 -160 -118 -292 l-109 -297l25 -6l44 85v-30q0 -33 -9 -64l45 72l-10 -91l16 -10q9 26 216 557zM562 43l10 14l-171 362q-47 -91 -47 -131q0 -48 57.5 -158t90.5 -110l-28 55l55 -32q-5 20 -5 23l1 13q17 -26 37 -36zM405 80v18q-54 10 -78 15l61 12q-15 12 -51 21q25 6 25 20q0 3 -16 6.5 t-29 3.5h-5q-29 -59 -44 -110q58 0 137 14zM76 81l31 90l-38 -5zM572 102l4 92h-33zM240 501l29 59l-47 -16zM314 204l41 -10l-20 55zM484 142q0 -13 -13 -13q-11 3 -11 13q0 14 11 14q13 -3 13 -14zM202 132q0 -14 -11 -14q-11 4 -11 14q0 13 11 13q11 -6 11 -13zM327 470 q0 -11 -9 -11q-9 3 -9 11q0 10 9 10q9 -4 9 -10zM75 760q10 49 45.5 89.5t85.5 45.5q12 0 20 -1l53 -62q-7 -13 -35 -50q60 -32 101 -32q25 0 48 14t36 29t37 49l97 32l-25 -94q-94 -121 -206 -121q-79 0 -152 66q-27 -16 -49 -20zM234 768q-11 -14 -37 -29q70 -61 137 -61 q88 0 187 111l19 60l-62 -21q-62 -97 -138 -97q-50 0 -106 37zM206 871q-36 0 -66 -32t-40 -71q6 -8 20 -8q24 3 54.5 28.5t49.5 60.5l-3 16q-5 6 -15 6zM124 743l12 -13q73 19 116 97l-16 21q-6 -7 -23.5 -30t-26.5 -33t-26.5 -23.5t-35.5 -18.5z" />
<glyph unicode="&#x103;" horiz-adv-x="495" d="M495 20l-11 -6q-16 2 -17 2q-9 0 -22.5 -5t-26.5 -12t-24.5 -13.5t-19.5 -11.5l-7 -5q0 25 -33 77q-76 -14 -129 -14q-2 -6 -8 -20.5t-12.5 -31t-14.5 -32.5q-5 2 -22 9t-32 12t-23 5q-14 0 -24 -5q0 8 -13 27l-13 18q-17 46 -17 141q44 0 72 17q11 7 42 103t31 111 q0 4 -9 31.5t-9 35.5q27 0 51.5 16t24.5 38q0 8 -1 9q56 -9 116 -67l21 4q-4 -10 -9 -24.5t-12 -37t-12 -37.5q33 -39 90 -179h43q9 0 11 1q5 -17 11 -83.5t8 -72.5zM330 421q0 14 -9 26q-26 -12 -47 -35q5 21 22 47l-24 12l-35 -51q20 47 25 56l-12 6q-21 -47 -40 -94.5 t-32.5 -82.5t-47.5 -128t-62 -166l20 -4l35 68v-8q0 -29 -7 -68l37 58l-8 -73l12 -8q34 92 173 445zM450 34l8 10l-130 286q-45 -66 -45 -100q0 -38 45 -125.5t74 -88.5l-23 43l45 -25q-5 9 -5 18v11q16 -21 31 -29zM324 65v14q-19 1 -62 11q12 4 49 10q-17 10 -41 16 q20 6 20 17q0 8 -35 8h-6q-26 -53 -35 -87q56 0 110 11zM458 82l2 73h-26zM61 68l24 66l-29 -3q5 -52 5 -59v-4zM192 401l23 48l-37 -14zM252 163l33 -8l-17 45zM387 114q0 -12 -10 -12q-9 4 -9 12q0 11 9 11q10 -4 10 -11zM162 106q0 -12 -9 -12q-8 4 -8 12q0 10 8 10 q9 -4 9 -10zM262 376q0 -9 -8 -9q-7 3 -7 9q0 9 7 9q8 -3 8 -9zM9 639q10 49 45.5 89.5t85.5 45.5q12 0 20 -1l53 -62q-7 -13 -35 -50q60 -32 101 -32q25 0 48 14t36 29t37 49l97 32l-25 -94q-94 -121 -206 -121q-79 0 -152 66q-27 -16 -49 -20zM168 647q-11 -14 -37 -29 q70 -61 137 -61q88 0 187 111l19 60l-62 -21q-62 -97 -138 -97q-50 0 -106 37zM140 750q-36 0 -66 -32t-40 -71q6 -8 20 -8q24 3 54.5 28.5t49.5 60.5l-3 16q-5 6 -15 6zM58 622l12 -13q73 19 116 97l-16 21q-6 -7 -23.5 -30t-26.5 -33t-26.5 -23.5t-35.5 -18.5z" />
<glyph unicode="&#x104;" d="M594 220l-5 -138l14 -52l-82 -35q-28 -36 -28 -50q0 -8 7 -15t21 -7q11 0 32 1.5t27 1.5q14 -52 23 -141q-51 -5 -87 -5q-64 0 -105 41t-41 89q0 65 69 107l-22 40q-104 -17 -161 -17q-40 -97 -44 -105l-151 55l-28 204l91 13l100 268l-30 83l85 33l22 49l148 -87 l-37 -107l116 -226h66zM412 527q0 21 -10 32q-28 -12 -59 -43q5 26 28 58l-31 15l-44 -64q5 12 31 70l-15 8q-74 -160 -118 -292l-109 -297l25 -6l44 85v-30q0 -33 -9 -64l45 72l-10 -91l16 -10q9 26 216 557zM562 43l10 14l-171 362q-47 -91 -47 -131q0 -32 42 -127 t76 -127l19 7l-17 34l55 -32q-5 20 -5 23l1 13q17 -26 37 -36zM405 80v18q-54 10 -78 15l61 12q-15 12 -51 21q25 6 25 20q0 3 -16 6.5t-29 3.5h-5q-29 -59 -44 -110q58 0 137 14zM76 81l31 90l-38 -5zM572 102l4 92h-33zM240 501l29 59l-47 -16zM314 204l41 -10l-20 55z M484 142q0 -13 -13 -13q-11 3 -11 13q0 14 11 14q13 -3 13 -14zM202 132q0 -14 -11 -14q-11 4 -11 14q0 13 11 13q11 -6 11 -13zM327 470q0 -11 -9 -11q-9 3 -9 11q0 10 9 10q9 -4 9 -10zM398 -132q11 -29 48 -48t87 -19q21 0 49 5q-4 6 -4 21q-52 0 -66 6l1 2q33 0 61 11 q-2 20 -4 23h-10q-23 0 -41 9q3 1 16 1.5t22.5 2.5t9.5 8q0 1 -0.5 7t-0.5 10h-35q-54 0 -54 27q0 23 49 82l-39 14q-4 -2 -20 -10.5t-26.5 -15.5t-24.5 -19.5t-21 -29.5t-7 -37q0 -18 10 -50zM472 -7q0 8 7 8t7 -8q0 -7 -7 -7t-7 7z" />
<glyph unicode="&#x105;" horiz-adv-x="495" d="M495 20l-11 -6q-16 2 -17 2q-28 0 -55 -23t-27 -48q0 -8 7 -15t21 -7q12 0 32.5 1.5t25.5 1.5q12 -40 24 -141q-51 -5 -87 -5q-64 0 -105 41t-41 89q0 36 23.5 66t60.5 49q-1 3 -3 6.5t-5 8t-4 6.5q-76 -14 -129 -14q-2 -6 -8 -20.5t-12.5 -31t-14.5 -32.5q-5 2 -22 9 t-32 12t-23 5q-14 0 -24 -5q0 8 -13 27l-13 18q-17 46 -17 141q44 0 72 17q11 7 42 103t31 111q0 4 -9 31.5t-9 35.5q27 0 51.5 16t24.5 38q0 8 -1 9q56 -9 116 -67l21 4q-4 -10 -9 -24.5t-12 -37t-12 -37.5q33 -39 90 -179h43q9 0 11 1q5 -17 11 -83.5t8 -72.5zM330 421 q0 14 -9 26q-26 -12 -47 -35q5 21 22 47l-24 12l-35 -51q20 47 25 56l-12 6q-21 -47 -40 -94.5t-32.5 -82.5t-47.5 -128t-62 -166l20 -4l35 68v-8q0 -29 -7 -68l37 58l-8 -73l12 -8q34 92 173 445zM384 41l5 -2l-10 20l45 -25q-5 9 -5 18v11q16 -21 31 -29l8 10l-130 286 q-45 -66 -45 -100q0 -23 29 -94t57 -100zM324 65v14q-19 1 -62 11q12 4 49 10q-17 10 -41 16q20 6 20 17q0 8 -35 8h-6q-26 -53 -35 -87q56 0 110 11zM458 82l2 73h-26zM61 68l24 66l-29 -3q5 -52 5 -59v-4zM192 401l23 48l-37 -14zM252 163l33 -8l-17 45zM387 114 q0 -12 -10 -12q-9 4 -9 12q0 11 9 11q10 -4 10 -11zM162 106q0 -12 -9 -12q-8 4 -8 12q0 10 8 10q9 -4 9 -10zM262 376q0 -9 -8 -9q-7 3 -7 9q0 9 7 9q8 -3 8 -9zM290 -132q11 -29 47.5 -48t87.5 -19q21 0 49 5q-4 6 -4 21q-52 0 -66 6l1 2q31 0 61 11q-2 20 -4 23h-10 q-24 0 -41 9q3 1 16 1.5t22.5 2.5t9.5 8q0 1 -0.5 7t-0.5 10h-36q-53 0 -53 27q0 26 49 82l-39 14q-4 -2 -20 -10.5t-26.5 -15.5t-24.5 -19.5t-21 -29.5t-7 -37q0 -23 10 -50zM364 -7q0 8 7 8t7 -8q0 -7 -7 -7t-7 7z" />
<glyph unicode="&#x106;" horiz-adv-x="451" d="M451 121q0 -43 -64.5 -74t-121.5 -31q-102 0 -162 80t-60 210q0 129 57.5 218.5t147.5 89.5q63 0 133 -47q-19 -68 -19 -154q-45 32 -79 32q-62 0 -62 -100q0 -57 23 -114.5t55 -57.5q34 0 63 68q17 -16 53 -65t36 -55zM420 110l-3 2q1 -1 -15 -9.5t-34 -17t-27 -12.5 q22 16 44 62q-51 -28 -67 -27l-15 1q22 9 40.5 33t18.5 47v3q-33 -45 -65 -45q-42 0 -72.5 60t-30.5 129q0 63 26 97.5t76 34.5q29 0 52 -8q-7 3 -36.5 29.5t-42.5 31.5q12 3 13 3q10 0 36.5 -11.5t29.5 -12.5q-29 35 -58 57q3 1 7 1h5q5 0 24 -6t25 -6q2 0 5 3 q-51 45 -104 45q-74 0 -125.5 -87.5t-51.5 -201.5q0 -119 59.5 -191t159.5 -72q32 0 71 20.5t55 47.5zM195 126l-5 -1q-17 0 -36.5 30t-19.5 54l3 16q21 -65 58 -99zM212 153q-1 -2 -7 -2q-15 0 -28 25t-13 47q0 15 3 22q25 -78 45 -92zM338 71q1 1 3 2q-2 -2 -3 -2z M430 837q25 -40 25 -78q0 -4 -2 -20l-65 -47q-21 13 -25 18l-22 21l-120 -97l-71 -5l36 75l106 98q-13 35 -15 53l59 50q55 -14 94 -68zM423 807q-11 22 -33 43t-49 30q-9 -11 -9 -22q0 -20 23.5 -55.5t54.5 -57.5l14 3q8 7 8 21q0 13 -9 38zM180 649l43 7l72 60l2 27l9 -12 l23 12q-21 32 -24 42l-104 -90zM315 858l-15 -11q11 -77 84 -127l23 14q-26 23 -40 36t-31 38t-21 50z" />
<glyph unicode="&#x107;" horiz-adv-x="364" d="M362 97q0 -35 -50 -60.5t-100 -25.5q-82 0 -131 66t-49 168q0 100 47.5 174t118.5 74q54 0 109 -39q-16 -58 -16 -127q-39 27 -66 27q-47 0 -47 -78q0 -41 19.5 -88.5t41.5 -47.5q27 0 49 56q12 -12 30.5 -36t31 -42.5t12.5 -20.5zM291 52q27 16 39 32l-25 -13 q-10 -3 -20.5 -10t-14.5 -7l-1 3q18 12 34 45q-30 -18 -53 -18h-4l-3 1l-2 4q16 7 31 25.5t17 33.5q-22 -32 -51 -32q-35 0 -60 47t-25 106q0 107 84 107q18 0 29 -4q-34 34 -57 46q11 3 16 3q8 0 26.5 -9t21.5 -9q-21 24 -45 43l11 3q0 -2 17 -6t24 -4h2q-43 35 -80 35 q-58 0 -98.5 -71t-40.5 -159q0 -94 45.5 -151.5t126.5 -57.5q24 0 56 17zM158 100l-5 -2q-16 0 -32 24t-16 45l2 15l5 1q17 -57 46 -83zM171 124v-3q-1 -1 -7 -1q-13 0 -23.5 19t-10.5 40q0 4 5 21q10 -40 16.5 -52.5t19.5 -23.5zM372 725q25 -40 25 -78q0 -4 -2 -20 l-65 -47q-21 13 -25 18l-22 21l-120 -97l-71 -5l36 75l106 98q-13 35 -15 53l59 50q55 -14 94 -68zM365 695q-11 22 -33 43t-49 30q-9 -11 -9 -22q0 -20 23.5 -55.5t54.5 -57.5l14 3q8 7 8 21q0 13 -9 38zM122 537l43 7l72 60l2 27l9 -12l23 12q-21 32 -24 42l-104 -90z M257 746l-15 -11q11 -77 84 -127l23 14q-26 23 -40 36t-31 38t-21 50z" />
<glyph unicode="&#x108;" horiz-adv-x="451" d="M451 121q0 -43 -64.5 -74t-121.5 -31q-102 0 -162 80t-60 210q0 129 57.5 218.5t147.5 89.5q63 0 133 -47q-19 -68 -19 -154q-45 32 -79 32q-62 0 -62 -100q0 -57 23 -114.5t55 -57.5q34 0 63 68q17 -16 53 -65t36 -55zM420 110l-3 2q1 -1 -15 -9.5t-34 -17t-27 -12.5 q22 16 44 62q-51 -28 -67 -27l-15 1q22 9 40.5 33t18.5 47v3q-33 -45 -65 -45q-42 0 -72.5 60t-30.5 129q0 63 26 97.5t76 34.5q29 0 52 -8q-7 3 -36.5 29.5t-42.5 31.5q12 3 13 3q10 0 36.5 -11.5t29.5 -12.5q-29 35 -58 57q3 1 7 1h5q5 0 24 -6t25 -6q2 0 5 3 q-51 45 -104 45q-74 0 -125.5 -87.5t-51.5 -201.5q0 -119 59.5 -191t159.5 -72q32 0 71 20.5t55 47.5zM195 126l-5 -1q-17 0 -36.5 30t-19.5 54l3 16q21 -65 58 -99zM212 153q-1 -2 -7 -2q-15 0 -28 25t-13 47q0 15 3 22q25 -78 45 -92zM338 71q1 1 3 2q-2 -2 -3 -2z M427 651q-43 -25 -76 -25q-3 0 -19 2l-47 66q6 13 21 29t17 19l-46 60l-8 1l-79 -98l-86 -46v89l129 152q13 8 34 8q17 0 30 -8l96 -108q26 11 51 16l50 -60q-16 -57 -67 -97zM286 819l23 -29l27 -3l-13 -9l13 -24q18 18 40 25l-53 69l-28 32q-15 6 -26 6q-13 0 -27 -6 l-120 -138l-4 -61l55 41l95 103l9 -2l9 28v-32zM398 659q51 26 71 83q-7 9 -21 9q-23 0 -54.5 -22.5t-56.5 -54.5l3 -18q8 -8 20 -8q7 0 38 11zM448 768l-12 16q-77 -13 -124 -87l14 -22q22 25 36.5 40t38 30.5t47.5 22.5z" />
<glyph unicode="&#x109;" horiz-adv-x="364" d="M362 97q0 -35 -50 -60.5t-100 -25.5q-82 0 -131 66t-49 168q0 100 47.5 174t118.5 74q54 0 109 -39q-16 -58 -16 -127q-39 27 -66 27q-47 0 -47 -78q0 -41 19.5 -88.5t41.5 -47.5q27 0 49 56q12 -12 30.5 -36t31 -42.5t12.5 -20.5zM291 52q27 16 39 32l-25 -13 q-10 -3 -20.5 -10t-14.5 -7l-1 3q18 12 34 45q-30 -18 -53 -18h-4l-3 1l-2 4q16 7 31 25.5t17 33.5q-22 -32 -51 -32q-35 0 -60 47t-25 106q0 107 84 107q18 0 29 -4q-34 34 -57 46q11 3 16 3q8 0 26.5 -9t21.5 -9q-21 24 -45 43l11 3q0 -2 17 -6t24 -4h2q-43 35 -80 35 q-58 0 -98.5 -71t-40.5 -159q0 -94 45.5 -151.5t126.5 -57.5q24 0 56 17zM158 100l-5 -2q-16 0 -32 24t-16 45l2 15l5 1q17 -57 46 -83zM171 124v-3q-1 -1 -7 -1q-13 0 -23.5 19t-10.5 40q0 4 5 21q10 -40 16.5 -52.5t19.5 -23.5zM366 540q-43 -25 -76 -25q-3 0 -19 2 l-47 66q6 13 21 29t17 19l-46 60l-8 1l-79 -98l-86 -46v89l129 152q13 8 34 8q17 0 30 -8l96 -108q26 11 51 16l50 -60q-16 -57 -67 -97zM225 708l23 -29l27 -3l-13 -9l13 -24q18 17 40 25l-53 69l-28 32q-15 6 -26 6q-14 0 -27 -6l-120 -138l-4 -61l55 41l95 103l9 -2l9 28 v-32zM337 548q51 26 71 83q-8 9 -21 9q-23 0 -54.5 -22.5t-56.5 -54.5l3 -18q8 -8 20 -8q7 0 38 11zM387 657l-12 16q-77 -13 -124 -87l14 -22q22 25 36.5 40t38 30.5t47.5 22.5z" />
<glyph unicode="&#x10a;" horiz-adv-x="451" d="M451 121q0 -43 -64.5 -74t-121.5 -31q-102 0 -162 80t-60 210q0 129 57.5 218.5t147.5 89.5q63 0 133 -47q-19 -68 -19 -154q-45 32 -79 32q-62 0 -62 -100q0 -57 23 -114.5t55 -57.5q34 0 63 68q17 -16 53 -65t36 -55zM420 110l-3 2q1 -1 -15 -9.5t-34 -17t-27 -12.5 q22 16 44 62q-51 -28 -67 -27l-15 1q22 9 40.5 33t18.5 47v3q-33 -45 -65 -45q-42 0 -72.5 60t-30.5 129q0 63 26 97.5t76 34.5q29 0 52 -8q-7 3 -36.5 29.5t-42.5 31.5q12 3 13 3q10 0 36.5 -11.5t29.5 -12.5q-29 35 -58 57q3 1 7 1h5q5 0 24 -6t25 -6q2 0 5 3 q-51 45 -104 45q-74 0 -125.5 -87.5t-51.5 -201.5q0 -119 59.5 -191t159.5 -72q32 0 71 20.5t55 47.5zM195 126l-5 -1q-17 0 -36.5 30t-19.5 54l3 16q21 -65 58 -99zM212 153q-1 -2 -7 -2q-15 0 -28 25t-13 47q0 15 3 22q25 -78 45 -92zM338 71q1 1 3 2q-2 -2 -3 -2z M180 727q0 38 23 64t57 26q35 0 58 -21.5t23 -63.5q0 -41 -23 -64.5t-58 -23.5q-34 0 -57 23.5t-23 59.5zM201 728q0 -24 17.5 -41t41.5 -17q27 0 45 17t18 44t-18 44t-45 17q-24 0 -41.5 -18.5t-17.5 -45.5z" />
<glyph unicode="&#x10b;" horiz-adv-x="364" d="M362 97q0 -35 -50 -60.5t-100 -25.5q-82 0 -131 66t-49 168q0 100 47.5 174t118.5 74q54 0 109 -39q-16 -58 -16 -127q-39 27 -66 27q-47 0 -47 -78q0 -41 19.5 -88.5t41.5 -47.5q27 0 49 56q12 -12 30.5 -36t31 -42.5t12.5 -20.5zM291 52q27 16 39 32l-25 -13 q-10 -3 -20.5 -10t-14.5 -7l-1 3q18 12 34 45q-30 -18 -53 -18h-4l-3 1l-2 4q16 7 31 25.5t17 33.5q-22 -32 -51 -32q-35 0 -60 47t-25 106q0 107 84 107q18 0 29 -4q-34 34 -57 46q11 3 16 3q8 0 26.5 -9t21.5 -9q-21 24 -45 43l11 3q0 -2 17 -6t24 -4h2q-43 35 -80 35 q-58 0 -98.5 -71t-40.5 -159q0 -94 45.5 -151.5t126.5 -57.5q24 0 56 17zM158 100l-5 -2q-16 0 -32 24t-16 45l2 15l5 1q17 -57 46 -83zM171 124v-3q-1 -1 -7 -1q-13 0 -23.5 19t-10.5 40q0 4 5 21q10 -40 16.5 -52.5t19.5 -23.5zM128 626q0 38 23 64t57 26q35 0 58 -21.5 t23 -63.5q0 -41 -23 -64.5t-58 -23.5q-34 0 -57 23.5t-23 59.5zM149 627q0 -24 17.5 -41t41.5 -17q27 0 45 17t18 44t-18 44t-45 17q-24 0 -41.5 -18.5t-17.5 -45.5z" />
<glyph unicode="&#x10c;" horiz-adv-x="451" d="M451 121q0 -43 -64.5 -74t-121.5 -31q-102 0 -162 80t-60 210q0 129 57.5 218.5t147.5 89.5q63 0 133 -47q-19 -68 -19 -154q-45 32 -79 32q-62 0 -62 -100q0 -57 23 -114.5t55 -57.5q34 0 63 68q17 -16 53 -65t36 -55zM420 110l-3 2q1 -1 -15 -9.5t-34 -17t-27 -12.5 q22 16 44 62q-51 -28 -67 -27l-15 1q22 9 40.5 33t18.5 47v3q-33 -45 -65 -45q-42 0 -72.5 60t-30.5 129q0 63 26 97.5t76 34.5q29 0 52 -8q-7 3 -36.5 29.5t-42.5 31.5q12 3 13 3q10 0 36.5 -11.5t29.5 -12.5q-29 35 -58 57q3 1 7 1h5q5 0 24 -6t25 -6q2 0 5 3 q-51 45 -104 45q-74 0 -125.5 -87.5t-51.5 -201.5q0 -119 59.5 -191t159.5 -72q32 0 71 20.5t55 47.5zM195 126l-5 -1q-17 0 -36.5 30t-19.5 54l3 16q21 -65 58 -99zM212 153q-1 -2 -7 -2q-15 0 -28 25t-13 47q0 15 3 22q25 -78 45 -92zM338 71q1 1 3 2q-2 -2 -3 -2zM94 898 q43 25 75 25q4 0 20 -2l47 -66q-6 -10 -12 -17.5t-14 -16t-13 -14.5l47 -60l7 -2l78 98l88 47v-89l-130 -152q-13 -8 -33 -8q-17 0 -32 8l-95 108q-27 -12 -50 -16l-50 60q16 59 67 97zM235 730l-23 29l-27 2l12 9l-12 24q-12 -11 -40 -25l53 -68l28 -32q16 -7 25 -7 q11 0 27 7l120 138l4 60l-56 -41l-94 -102l-8 2l-9 -28v32zM122 890q-53 -31 -72 -83q9 -9 22 -9q23 0 55.5 22.5t54.5 54.5l-1 17q-7 8 -21 8q-10 0 -38 -10zM72 781l13 -16q74 13 124 86l-14 23q-6 -6 -26 -27.5t-30 -30.5t-29 -20.5t-38 -14.5z" />
<glyph unicode="&#x10d;" horiz-adv-x="364" d="M362 97q0 -35 -50 -60.5t-100 -25.5q-82 0 -131 66t-49 168q0 100 47.5 174t118.5 74q54 0 109 -39q-16 -58 -16 -127q-39 27 -66 27q-47 0 -47 -78q0 -41 19.5 -88.5t41.5 -47.5q27 0 49 56q12 -12 30.5 -36t31 -42.5t12.5 -20.5zM291 52q27 16 39 32l-25 -13 q-10 -3 -20.5 -10t-14.5 -7l-1 3q18 12 34 45q-30 -18 -53 -18h-4l-3 1l-2 4q16 7 31 25.5t17 33.5q-22 -32 -51 -32q-35 0 -60 47t-25 106q0 107 84 107q18 0 29 -4q-34 34 -57 46q11 3 16 3q8 0 26.5 -9t21.5 -9q-21 24 -45 43l11 3q0 -2 17 -6t24 -4h2q-43 35 -80 35 q-58 0 -98.5 -71t-40.5 -159q0 -94 45.5 -151.5t126.5 -57.5q24 0 56 17zM158 100l-5 -2q-16 0 -32 24t-16 45l2 15l5 1q17 -57 46 -83zM171 124v-3q-1 -1 -7 -1q-13 0 -23.5 19t-10.5 40q0 4 5 21q10 -40 16.5 -52.5t19.5 -23.5zM58 780q43 25 75 25q4 0 20 -2l47 -66 q-6 -10 -12 -17.5t-14 -16t-13 -14.5l47 -60l7 -2l78 98l88 47v-89l-130 -152q-13 -8 -33 -8q-17 0 -32 8l-95 108q-27 -12 -50 -16l-50 60q16 59 67 97zM199 612l-23 29l-27 2l12 9l-12 24q-12 -11 -40 -25l53 -68l28 -32q16 -7 25 -7q11 0 27 7l120 138l4 60l-56 -41 l-94 -102l-8 2l-9 -28v32zM86 772q-53 -31 -72 -83q9 -9 22 -9q23 0 55.5 22.5t54.5 54.5l-1 17q-7 8 -21 8q-10 0 -38 -10zM36 663l13 -16q74 13 124 86l-14 23q-6 -6 -26 -27.5t-30 -30.5t-29 -20.5t-38 -14.5z" />
<glyph unicode="&#x10e;" horiz-adv-x="570" d="M570 276q0 -107 -66.5 -194.5t-156.5 -87.5q-5 0 -5 -7q0 -6 1 -7l-176 -5v12q-10 -2 -39 -6t-44 -7l-11 206l102 4l-1 146q-72 -2 -113 -10q-7 14 -7 57q0 61 13 129l103 12l3 46l188 13l9 -28q1 0 9 -5t25 -14.5t35 -19.5q131 -70 131 -234zM329 516q0 44 -26 44 q-5 0 -8 -17.5t-7 -41.5t-11 -34v9q0 5 -7 33.5t-7 34.5l-14 1l-6 -69l-13 68q-18 -2 -28 -9q-4 -27 -4 -101q0 -25 2.5 -137t2.5 -136q0 -84 -9 -158h10l18 65v-63l38 2l21 102l4 -101l32 3q-4 58 -4 95t8 204t8 206zM536 250q0 95 -47.5 171.5t-121.5 96.5 q-12 -79 -12 -117q0 -18 2 -44q72 -38 72 -100q0 -36 -22.5 -63.5t-58.5 -40.5v-137q91 18 139.5 79.5t48.5 154.5zM171 356v80l-15 -1q-14 0 -19 8q30 30 32 33q-4 1 -4 9q0 1 0.5 3t0.5 3l-78 -11l-5 -68q10 -1 45 -15q-17 -4 -46 -20q6 -2 6 -12t-4 -19q40 11 73 11 q13 0 14 -1zM172 11l2 49q-3 0 -6 -0.5t-4 -1.5h-2q-18 0 -38 18q5 1 12 3t9.5 2.5t6 2t4.5 2.5t3.5 3t3.5 4.5t3 6.5l7 25q-8 -4 -22 -4q-6 0 -23 5q24 10 39 36l-65 1l8 -152h62zM395 258q0 24 -12 44.5t-30 23.5l-5 -138q47 15 47 70zM480 364q-4 5 -15.5 19t-17.5 20 t-17 15t-23 13t-26 5q11 8 23 8q24 0 50 -28t26 -52zM449 335l-30 28q-6 6 -35 22q5 7 14 7q18 0 34.5 -19.5t16.5 -37.5zM266 431l5 -5q0 -8 -7 -8q-6 0 -15 9l8 8zM257 114l9 -7l-9 -7l-8 7zM157 883q43 25 75 25q4 0 20 -2l47 -66q-6 -10 -12 -17.5t-14 -16t-13 -14.5 l47 -60l7 -2l78 98l88 47v-89l-130 -152q-13 -8 -33 -8q-17 0 -32 8l-95 108q-27 -12 -50 -16l-50 60q16 59 67 97zM298 715l-23 29l-27 2l12 9l-12 24q-12 -11 -40 -25l53 -68l28 -32q16 -7 25 -7q11 0 27 7l120 138l4 60l-56 -41l-94 -102l-8 2l-9 -28v32zM185 875 q-53 -31 -72 -83q9 -9 22 -9q23 0 55.5 22.5t54.5 54.5l-1 17q-7 8 -21 8q-10 0 -38 -10zM135 766l13 -16q74 13 124 86l-14 23q-6 -6 -26 -27.5t-30 -30.5t-29 -20.5t-38 -14.5z" />
<glyph unicode="&#x10f;" horiz-adv-x="460" d="M458 220q0 -90 -54 -158.5t-126 -68.5q-2 0 -2 -4v-9h-143l-1 7q-7 -1 -30 -4t-37 -6l-8 169l82 3q0 20 -0.5 57t-0.5 56q-52 0 -90 -9q-7 14 -7 49q0 53 11 104l82 11q0 18 3 36l152 10l8 -24l4 -2q4 -1 10 -6l35 -19q2 -2 6 -2q106 -61 106 -190zM262 412q0 33 -22 34 q-3 -9 -8 -38.5t-9 -36.5l-3 1l1 8q0 6 -6.5 27t-6.5 28h-6q-2 -10 -3.5 -29t-2.5 -26h-4l-10 54q-22 -3 -22 -46q0 -6 0.5 -20t0.5 -21v-52q0 -15 1.5 -58.5t1.5 -55.5v-52q0 -81 -7 -124h5l13 51h5v-50q4 0 12.5 0.5t13.5 0.5l17 81h4l2 -79q4 0 11.5 1t11.5 1 q-4 29 -4 73q0 31 7 164.5t7 163.5zM427 200q0 74 -36.5 134t-96.5 78q-8 -56 -8 -91q0 -18 3 -33q56 -32 56 -82q0 -27 -18.5 -51t-45.5 -34q0 -19 -0.5 -53.5t-0.5 -52.5q72 14 109.5 62t37.5 123zM135 287v60l-3 -1h-4q-10 0 -21 9q9 7 24 25q-1 1 -1 5v6l-58 -8l-4 -52 q15 -2 39 -13q-32 -13 -38 -16q2 -3 2 -9q0 -11 -2 -13q28 7 60 7h6zM135 10l3 36q-1 -2 -4 -2h-4q-18 0 -33 17q24 6 30.5 12t9.5 25q-12 -2 -16 -2q-13 0 -24 5q23 9 33 27q-8 0 -24 0.5t-23 0.5q1 -21 4 -60t3 -59h45zM314 207q0 19 -8.5 34t-22.5 17q0 -12 -1 -33 t-1.5 -38.5t-0.5 -33.5q34 13 34 54zM386 288l-8 8q-27 30 -40 39.5t-35 11.5q9 10 20 10q22 0 41.5 -22t21.5 -47zM360 263l-25 27v-1q-21 15 -32 18q5 8 16 8q15 0 28 -17t13 -35zM214 347l6 -7q0 -8 -8 -8q-4 0 -14 10l8 6zM206 93l8 -8l-8 -6l-8 6zM110 762q43 25 75 25 q4 0 20 -2l47 -66q-6 -10 -12 -17.5t-14 -16t-13 -14.5l47 -60l7 -2l78 98l88 47v-89l-130 -152q-13 -8 -33 -8q-17 0 -32 8l-95 108q-27 -12 -50 -16l-50 60q16 59 67 97zM251 594l-23 29l-27 2l12 9l-12 24q-12 -11 -40 -25l53 -68l28 -32q16 -7 25 -7q11 0 27 7l120 138 l4 60l-56 -41l-94 -102l-8 2l-9 -28v32zM138 754q-53 -31 -72 -83q9 -9 22 -9q23 0 55.5 22.5t54.5 54.5l-1 17q-7 8 -21 8q-10 0 -38 -10zM88 645l13 -16q74 13 124 86l-14 23q-6 -6 -26 -27.5t-30 -30.5t-29 -20.5t-38 -14.5z" />
<glyph unicode="&#x110;" horiz-adv-x="570" d="M96 318l78 -1v13q-72 -2 -113 -10q-7 14 -7 57q0 61 13 129l103 12l3 46l188 13l9 -28q1 0 9 -5t25 -14.5t35 -19.5q131 -70 131 -234q0 -108 -66.5 -195t-156.5 -87q-5 0 -5 -7v-7h-175v7q-10 -2 -39 -6t-44 -7l-11 206l102 4v14h-59zM329 516q0 44 -26 44 q-6 0 -9.5 -17.5t-7 -41.5t-9.5 -34v9q0 7 -7 35t-7 33l-14 1l-6 -69l-13 68q-18 -2 -28 -9q-4 -27 -4 -101q0 -25 2.5 -137t2.5 -136q0 -84 -9 -158h10l18 65v-63l38 2l21 102v-101l36 3q-4 58 -4 95t8 204t8 206zM536 250q0 95 -47.5 171.5t-121.5 96.5q-12 -79 -12 -117 q0 -18 2 -44q72 -38 72 -100q0 -36 -22.5 -63.5t-58.5 -40.5v-137q91 18 139.5 79.5t48.5 154.5zM171 356v80l-15 -1q-14 0 -19 8q30 30 32 33q-4 0 -4 9q0 1 0.5 3t0.5 3l-78 -11l-5 -68q10 -1 45 -15q-17 -4 -46 -20q6 -2 6 -12q0 -12 -4 -19q40 11 73 11q14 0 14 -1z M172 11l2 49q-10 -2 -12 -2q-18 0 -38 18q3 1 7 2q22 5 27 12l3 3q3 4 5 7l7 25q-13 -4 -22 -4q-6 0 -23 5q24 10 39 36h-65l8 -151h62zM395 258q0 27 -12 46t-30 22l-5 -138q47 15 47 70zM175 219v55l-36 -5h-22l4 -16l43 -5l-42 -5l3 -24h50zM480 364q-2 3 -15.5 18.5 t-18.5 20.5t-16.5 14.5t-23 13.5t-25.5 5q11 8 23 8q24 0 50 -28t26 -52zM116 279h58v23h-62zM449 335l-30 28q-6 6 -35 22q5 7 14 7q18 0 34.5 -19.5t16.5 -37.5zM266 431l5 -5q0 -8 -7 -8q-6 0 -15 9l8 8zM257 114l9 -7v-7l-17 7z" />
<glyph unicode="&#x111;" horiz-adv-x="508" d="M89 266h67v10q-49 0 -95 -8q-7 14 -7 49q0 56 12 109l87 10l2 40l159 10l7 -24q2 0 8.5 -4t21 -12t29.5 -16q112 -61 112 -200q0 -91 -56 -164.5t-133 -73.5q-5 0 -5 -7v-7h-148v7q-21 -1 -70 -11l-9 174l86 5v11h-50zM287 435q0 36 -22 36q-5 0 -7.5 -15t-5.5 -34.5 t-8 -27.5v6q0 6 -6.5 30.5t-6.5 28.5l-11 1l-6 -60l-11 58q-29 0 -29 -56q6 -185 6 -270q0 -84 -7 -133h8l16 56v-55l32 2l18 87v-86l30 3q-3 78 -3 81q0 31 6.5 173t6.5 175zM463 209q0 79 -41 145.5t-103 81.5q-9 -66 -9 -99q0 -12 2 -38q60 -30 60 -85q0 -30 -19 -53.5 t-49 -34.5v-116q77 15 118 67.5t41 131.5zM153 298v69h-13q-9 0 -16 5l27 28q-3 2 -3 9v4l-66 -9l-3 -57q32 -11 37 -13l-39 -17q5 -3 5 -10q0 -5 -2 -17q39 9 62 9q11 0 11 -1zM154 6l2 42l-10 -2q-18 0 -33 15q21 4 24 6t12 14l6 21q-13 -3 -18 -3q-13 0 -21 5q21 7 34 30 h-56l8 -128h52zM344 216q0 23 -11 39t-26 17l-4 -116q41 14 41 60zM112 203l2 -21h41v48l-30 -5h-18l3 -13l38 -5zM417 306q-5 5 -18.5 20t-20 20.5t-19.5 12.5t-28 8q9 6 21 6q20 0 41 -23t24 -44zM107 233h49v20h-54zM388 280l-25 25q-15 15 -29 17q3 7 12 7q14 0 28 -16 t14 -33zM235 363l4 -6q0 -5 -7 -5q-6 0 -12 7l5 6zM227 93l8 -5v-7l-15 7z" />
<glyph unicode="&#x112;" horiz-adv-x="562" d="M528 545l37 -145l-245 -24v-47q20 -1 70 -3t77 -4q0 -16 -8 -168l-142 10v-25l177 -42q-3 -14 -11.5 -65.5t-14.5 -79.5q-129 25 -263 25q-28 0 -80 -2v27q-18 3 -53.5 7t-51.5 6l28 159l83 -5l7 193q-16 -1 -83 -8q3 38 9.5 103.5t8.5 82.5l70 -4v38q31 -2 88.5 -4 t79.5 -3l17 -18q37 0 108 -2t92 -2zM287 33l3 504l-3 2q-2 -6 -9 -25t-10 -29l-20 64h-24q-19 -23 -21 -26l-37 34v-541h8l18 82l10 -88l23 1l19 78l10 -78zM322 403l214 18l-10 31q-8 0 -26.5 2.5t-27.5 3.5l49 14l-2 22q-23 0 -57 4l55 26l-1 3h-194v-124zM476 75l-159 30 l-21 -106l156 -25l1 2q-27 19 -31 31q2 0 11 -2.5t14 -2.5l15 1q-7 14 -41 28q23 1 33.5 9.5t21.5 34.5zM391 207l62 18q-10 3 -28.5 10t-23.5 9l44 11v55h-122v-116l110 -5l1 3zM125 11l6 142h-65l-24 -113zM79 385h58l-12 132h-35zM241 461l2 -3q-3 -14 -22 -23v26h20z M235 270l-11 -9l-15 27l6 6zM509 684q0 -49 -42 -91l-81 4q-10 20 -13 61h-268l-58 40l75 36l257 8q1 24 20 50l77 4q33 -43 33 -112zM450 618q19 5 28 27t9 47q0 48 -22 81q-37 -4 -37 -89q0 -38 22 -66zM82 696l37 -23h209l18 20v-16l25 -4q2 33 7 48l-251 -3zM431 772 h-18q-23 -39 -23 -88q0 -38 9 -66l29 -1q-13 39 -13 87q0 36 16 68z" />
<glyph unicode="&#x113;" horiz-adv-x="451" d="M431 451l31 -121l-204 -18v-42h123l-6 -142l-119 7v-26l147 -35l-23 -117q-109 20 -218 20q-2 0 -68 -3l2 24l-89 17l23 128l69 -5v160h-63l15 147l57 -2v26h141l15 -18h167zM229 26l2 416l-18 -49l-16 58h-17l-19 -23l-29 26v-444l21 80l9 -83l17 1l15 72l10 -70z M262 330l173 17l-8 22l-49 7l46 13l-3 15l-53 4l51 25h-157v-103zM386 59l-124 31l-23 -92l128 -21q-23 14 -27 26h35q-11 9 -43 22h2q25 0 35 6.5t17 27.5zM311 170l50 14l-43 14l42 11v43h-98v-94l89 -3zM94 17l5 105h-51l-20 -89zM58 318h44l-8 106h-26zM192 380l2 -3 q0 -15 -19 -24v27h17zM189 220l-7 -6l-4 2q-6 5 -14 19l7 8l4 -4q2 0 14 -19zM448 595q0 -49 -42 -91l-81 4q-10 20 -13 61h-268l-58 40l75 36l257 8q1 24 20 50l77 4q33 -43 33 -112zM389 529q19 5 28 27t9 47q0 48 -22 81q-37 -4 -37 -89q0 -39 22 -66zM21 607l37 -23h209 l18 20v-16l25 -4q2 33 7 48l-251 -3zM370 683h-18q-23 -39 -23 -88q0 -37 9 -66l29 -1q-13 39 -13 87q0 36 16 68z" />
<glyph unicode="&#x114;" horiz-adv-x="562" d="M528 545l37 -145l-245 -24v-47q20 -1 70 -3t77 -4q0 -16 -8 -168l-142 10v-25l177 -42q-3 -14 -11.5 -65.5t-14.5 -79.5q-129 25 -263 25q-28 0 -80 -2v27q-18 3 -53.5 7t-51.5 6l28 159l83 -5l7 193q-16 -1 -83 -8q3 38 9.5 103.5t8.5 82.5l70 -4v38q31 -2 88.5 -4 t79.5 -3l17 -18q37 0 108 -2t92 -2zM287 33l3 504l-3 2q-2 -6 -9 -25t-10 -29l-20 64h-24q-19 -23 -21 -26l-37 34v-541h8l18 82l10 -88l23 1l19 78l10 -78zM322 403l214 18l-10 31q-8 0 -26.5 2.5t-27.5 3.5l49 14l-2 22q-23 0 -57 4l55 26l-1 3h-194v-124zM476 75l-159 30 l-21 -106l156 -25l1 2q-27 19 -31 31q2 0 11 -2.5t14 -2.5l15 1q-7 14 -41 28q23 1 33.5 9.5t21.5 34.5zM391 207l62 18q-10 3 -28.5 10t-23.5 9l44 11v55h-122v-116l110 -5l1 3zM125 11l6 142h-65l-24 -113zM79 385h58l-12 132h-35zM241 461l2 -3q-3 -14 -22 -23v26h20z M235 270l-11 -9l-15 27l6 6zM40 730q10 49 45.5 89.5t85.5 45.5q12 0 20 -1l53 -62q-7 -13 -35 -50q60 -32 101 -32q25 0 48 14t36 29t37 49l97 32l-25 -94q-94 -121 -206 -121q-79 0 -152 66q-27 -16 -49 -20zM199 738q-11 -14 -37 -29q70 -61 137 -61q88 0 187 111l19 60 l-62 -21q-62 -97 -138 -97q-50 0 -106 37zM171 841q-36 0 -66 -32t-40 -71q6 -8 20 -8q24 3 54.5 28.5t49.5 60.5l-3 16q-5 6 -15 6zM89 713l12 -13q73 19 116 97l-16 21q-6 -7 -23.5 -30t-26.5 -33t-26.5 -23.5t-35.5 -18.5z" />
<glyph unicode="&#x115;" horiz-adv-x="451" d="M431 451l31 -121l-204 -18v-42h123l-6 -142l-119 7v-26l147 -35l-23 -117q-109 20 -218 20q-2 0 -68 -3l2 24l-89 17l23 128l69 -5v160h-63l15 147l57 -2v26h141l15 -18h167zM229 26l2 416l-18 -49l-16 58h-17l-19 -23l-29 26v-444l21 80l9 -83l17 1l15 72l10 -70z M262 330l173 17l-8 22l-49 7l46 13l-3 15l-53 4l51 25h-157v-103zM386 59l-124 31l-23 -92l128 -21q-23 14 -27 26h35q-11 9 -43 22h2q25 0 35 6.5t17 27.5zM311 170l50 14l-43 14l42 11v43h-98v-94l89 -3zM94 17l5 105h-51l-20 -89zM58 318h44l-8 106h-26zM192 380l2 -3 q0 -15 -19 -24v27h17zM189 220l-7 -6l-4 2q-6 5 -14 19l7 8l4 -4q2 0 14 -19zM-23 618q10 49 45.5 89.5t85.5 45.5q12 0 20 -1l53 -62q-7 -13 -35 -50q60 -32 101 -32q25 0 48 14t36 29t37 49l97 32l-25 -94q-94 -121 -206 -121q-79 0 -152 66q-27 -16 -49 -20zM136 626 q-11 -14 -37 -29q70 -61 137 -61q88 0 187 111l19 60l-62 -21q-62 -97 -138 -97q-50 0 -106 37zM108 729q-36 0 -66 -32t-40 -71q6 -8 20 -8q24 3 54.5 28.5t49.5 60.5l-3 16q-5 6 -15 6zM26 601l12 -13q73 19 116 97l-16 21q-6 -7 -23.5 -30t-26.5 -33t-26.5 -23.5 t-35.5 -18.5z" />
<glyph unicode="&#x116;" horiz-adv-x="562" d="M528 545l37 -145l-245 -24v-47q20 -1 70 -3t77 -4q0 -16 -8 -168l-142 10v-25l177 -42q-3 -14 -11.5 -65.5t-14.5 -79.5q-129 25 -263 25q-28 0 -80 -2v27q-18 3 -53.5 7t-51.5 6l28 159l83 -5l7 193q-16 -1 -83 -8q3 38 9.5 103.5t8.5 82.5l70 -4v38q31 -2 88.5 -4 t79.5 -3l17 -18q37 0 108 -2t92 -2zM287 33l3 504l-3 2q-2 -6 -9 -25t-10 -29l-20 64h-24q-19 -23 -21 -26l-37 34v-541h8l18 82l10 -88l23 1l19 78l10 -78zM322 403l214 18l-10 31q-8 0 -26.5 2.5t-27.5 3.5l49 14l-2 22q-23 0 -57 4l55 26l-1 3h-194v-124zM476 75l-159 30 l-21 -106l156 -25l1 2q-27 19 -31 31q2 0 11 -2.5t14 -2.5l15 1q-7 14 -41 28q23 1 33.5 9.5t21.5 34.5zM391 207l62 18q-10 3 -28.5 10t-23.5 9l44 11v55h-122v-116l110 -5l1 3zM125 11l6 142h-65l-24 -113zM79 385h58l-12 132h-35zM241 461l2 -3q-3 -14 -22 -23v26h20z M235 270l-11 -9l-15 27l6 6zM198 698q0 38 23 64t57 26q35 0 58 -21.5t23 -63.5q0 -41 -23 -64.5t-58 -23.5q-34 0 -57 23.5t-23 59.5zM219 699q0 -24 17.5 -41t41.5 -17q27 0 45 17t18 44t-18 44t-45 17q-24 0 -41.5 -18.5t-17.5 -45.5z" />
<glyph unicode="&#x117;" horiz-adv-x="451" d="M431 451l31 -121l-204 -18v-42h123l-6 -142l-119 7v-26l147 -35l-23 -117q-109 20 -218 20q-2 0 -68 -3l2 24l-89 17l23 128l69 -5v160h-63l15 147l57 -2v26h141l15 -18h167zM229 26l2 416l-18 -49l-16 58h-17l-19 -23l-29 26v-444l21 80l9 -83l17 1l15 72l10 -70z M262 330l173 17l-8 22l-49 7l46 13l-3 15l-53 4l51 25h-157v-103zM386 59l-124 31l-23 -92l128 -21q-23 14 -27 26h35q-11 9 -43 22h2q25 0 35 6.5t17 27.5zM311 170l50 14l-43 14l42 11v43h-98v-94l89 -3zM94 17l5 105h-51l-20 -89zM58 318h44l-8 106h-26zM192 380l2 -3 q0 -15 -19 -24v27h17zM189 220l-7 -6l-4 2q-6 5 -14 19l7 8l4 -4q2 0 14 -19zM144 608q0 38 23 64t57 26q35 0 58 -21.5t23 -63.5q0 -41 -23 -64.5t-58 -23.5q-34 0 -57 23.5t-23 59.5zM165 609q0 -24 17.5 -41t41.5 -17q27 0 45 17t18 44t-18 44t-45 17q-24 0 -41.5 -18.5 t-17.5 -45.5z" />
<glyph unicode="&#x118;" horiz-adv-x="562" d="M528 545l37 -145l-245 -24v-47q20 -1 70 -3t77 -4q0 -16 -8 -168l-142 10v-25l177 -42q-3 -14 -11.5 -65.5t-14.5 -79.5l-33 7q-4 -10 -4 -14q0 -8 7 -15t22 -7q11 0 32 1.5t26 1.5q13 -48 24 -141q-51 -5 -88 -5q-63 0 -104 41t-41 89q0 30 20 62q-53 5 -124 5 q-28 0 -80 -2v27q-18 3 -53.5 7t-51.5 6l28 159l83 -5l7 193q-16 -1 -83 -8q3 38 9.5 103.5t8.5 82.5l70 -4v38q31 -2 88.5 -4t79.5 -3l17 -18q37 0 108 -2t92 -2zM287 33l3 504l-3 2q-2 -6 -9 -25t-10 -29l-20 64h-24q-19 -23 -21 -26l-37 34v-541h8l18 82l10 -88l23 1 l19 78l10 -78zM337 -132q11 -29 47.5 -48t86.5 -19q21 0 49 5q-3 6 -3 21q-52 0 -66 6l1 2q32 0 60 11q-2 21 -3 23h-10q-25 0 -41 9q3 1 16 1.5t22.5 2.5t9.5 8q0 1 -1 7t-1 10h-35q-24 0 -39 5q12 -14 35 -25q-16 0 -32.5 13t-16.5 29q0 31 49 87l-39 14q-4 -2 -20 -10.5 t-26.5 -15.5t-24.5 -19.5t-21 -29.5t-7 -37q0 -23 10 -50zM322 403l214 18l-10 31q-8 0 -26.5 2.5t-27.5 3.5l49 14l-2 22q-23 0 -57 4l55 26l-1 3h-194v-124zM391 207l62 18q-10 3 -28.5 10t-23.5 9l44 11v55h-122v-116l110 -5l1 3zM430 41l17 -6q16 8 29 40l-159 30 l-21 -106l48 -8q36 36 86 50zM125 11l6 142h-65l-24 -113zM79 385h58l-12 132h-35zM386 -88q18 -44 49 -68q-14 2 -34 21.5t-20 35.5q0 6 5 11zM241 461l2 -3q-3 -14 -22 -23v26h20zM235 270l-11 -9l-15 27l6 6zM411 -7q0 8 7 8t7 -8q0 -7 -7 -7t-7 7zM453 -24l-6 5l-3 -6 l8 -1z" />
<glyph unicode="&#x119;" horiz-adv-x="451" d="M431 451l31 -121l-204 -18v-42h123l-6 -142l-119 7v-26l147 -35l-9 -47l8 -2l-11 -17l-11 -51q-8 2 -24 4q-4 -7 -4 -16q0 -8 7 -15t21 -7q12 0 32.5 1.5t25.5 1.5q12 -40 24 -141q-51 -5 -87 -5q-63 0 -104.5 41t-41.5 89q0 35 21 64q-44 3 -88 3q-2 0 -68 -3l2 24 l-89 17l23 128l69 -5v160h-63l15 147l57 -2v26h141l15 -18h167zM229 26l2 416l-18 -49l-16 58h-17l-19 -23l-29 26v-444l21 80l9 -83l17 1l15 72l10 -70zM262 330l173 17l-8 22l-49 7l46 13l-3 15l-53 4l51 25h-157v-103zM311 170l50 14l-43 14l42 11v43h-98v-94l89 -3z M351 41l21 -7q5 5 14 25l-124 31l-23 -92l27 -5q33 33 85 48zM94 17l5 105h-51l-20 -89zM58 318h44l-8 106h-26zM192 380l2 -3q0 -15 -19 -24v27h17zM189 220l-7 -6l-4 2q-6 5 -14 19l7 8l4 -4q2 0 14 -19zM257 -132q11 -29 47.5 -48t87.5 -19q21 0 49 5q-4 6 -4 21 q-52 0 -66 6l1 2q31 0 61 11q-1 4 -1.5 9.5t-1 8.5t-1.5 5h-10q-25 0 -41 9q3 1 16 1.5t22.5 2.5t9.5 8q0 1 -0.5 7t-0.5 10h-36q-53 0 -53 27q0 26 49 82l-39 14q-4 -2 -20 -10.5t-26.5 -15.5t-24.5 -19.5t-21 -29.5t-7 -37q0 -23 10 -50zM283 -88q18 -43 49 -68 q-14 2 -33.5 21.5t-19.5 35.5q0 7 4 11zM315 -65q8 -25 47 -48q-15 0 -32 12t-17 26q0 7 2 10zM331 -7q0 8 7 8t7 -8q0 -7 -7 -7t-7 7z" />
</font>
</defs>
</svg>
